<?xml version="1.0" encoding="utf-8"?>
<!-- Generator: Adobe Illustrator 23.0.0, SVG Export Plug-In . SVG Version: 6.00 Build 0)  -->
<svg version="1.1" id="Layer_1" xmlns="http://www.w3.org/2000/svg" xmlns:xlink="http://www.w3.org/1999/xlink" x="0px" y="0px"
	 viewBox="0 0 512 512" style="enable-background:new 0 0 512 512;" xml:space="preserve">
<style type="text/css">
	.st0{fill:#322277;}
	.st1{fill:#F84E82;}
	.st2{fill:#7956BA;}
	.st3{fill:#4B358E;}
	.st4{fill:#08053D;}
	.st5{fill:#FDD33A;}
	.st6{fill:#F9BD3A;}
	.st7{fill:#FFE6A9;}
</style>
<path class="st0" d="M8.5,466.6c0,1.7-1.4,3-3,3s-3-1.4-3-3s1.4-3,3-3S8.5,464.9,8.5,466.6z"/>
<g>
	<path class="st1" d="M420.4,145.9c0,49.9-40.4,90.3-90.3,90.3c-49.9,0-90.3-40.4-90.3-90.3s40.4-90.3,90.3-90.3
		C379.9,55.6,420.4,96.1,420.4,145.9z"/>
	<g>
		<path class="st2" d="M275.6,374.9h11.2V267.4c-3.4,1.3-7.2,2-11.2,2V374.9z"/>
		<path class="st3" d="M275.6,269.4c-4,0-7.8-0.7-11.2-2v107.5v0.2h11.2v-0.2L275.6,269.4C275.6,269.4,275.6,269.4,275.6,269.4z"/>
	</g>
	<path class="st2" d="M275.6,218.2c4,0,7.8,0.9,11.2,2.6v-60.6h-22.5v0.1h11.2V218.2z"/>
	<path class="st3" d="M275.6,218.2v-57.9h-11.2v60.5C267.8,219.1,271.6,218.2,275.6,218.2C275.6,218.2,275.6,218.2,275.6,218.2z"/>
	<path class="st4" d="M301.5,244.1c0-10.3-6-19.1-14.6-23.3c-3.4-1.6-7.2-2.6-11.2-2.6c0,0,0,0,0,0c-4,0-7.8,0.9-11.2,2.6
		c-8.7,4.2-14.6,13.1-14.6,23.3c0,10.3,6,19.1,14.6,23.3c3.4,1.6,7.2,2.6,11.2,2.6c0,0,0,0,0,0c4,0,7.8-0.9,11.2-2.6
		C295.5,263.2,301.5,254.3,301.5,244.1z M275.6,258.3c-7.9,0-14.3-6.4-14.3-14.3c0-7.9,6.4-14.3,14.3-14.3s14.3,6.4,14.3,14.3
		C289.9,252,283.5,258.3,275.6,258.3z"/>
	<path class="st0" d="M275.6,229.8c-7.9,0-14.3,6.4-14.3,14.3c0,7.9,6.4,14.3,14.3,14.3s14.3-6.4,14.3-14.3
		C289.9,236.2,283.5,229.8,275.6,229.8z"/>
	<g>
		<path class="st5" d="M352.1,182.1l6.2,0l0,0c18.1-0.2,32.7-14.8,32.7-32.9c0-18.1-14.6-32.8-32.7-32.9l0,0l-6.2,0L352.1,182.1z"/>
		<path class="st6" d="M357.6,162.6L357.6,162.6l-6.2,0l0,18.6l6.2,0l0,0c18.1-0.2,32.7-14.8,32.7-32.9c0-3.2-0.5-6.4-1.3-9.3
			C384.9,152.6,372.5,162.5,357.6,162.6z"/>
		<path class="st2" d="M347,207.9l-55.8-32.4v0.2l-39.8,0c-2.6,0-4.6-2.1-4.6-4.6l0-44.1c0-2.6,2.1-4.6,4.6-4.6l39.8,0v0.2L347,90.3
			c3.2-1.9,7.3,0.5,7.3,4.2l0,109.3C354.3,207.5,350.3,209.8,347,207.9z"/>
		<path class="st3" d="M346.8,189.6L291,157.2l0,0.2l-39.8,0c-2,0-3.8-1.3-4.4-3.1l0,16.9c0,2.6,2.1,4.6,4.6,4.6l39.8,0l0-0.2
			l55.8,32.4c3.2,1.9,7.3-0.5,7.3-4.2l0-18.8C354.3,188.7,350,191.4,346.8,189.6z"/>
		<path class="st0" d="M246.8,171.2l0-44.1c0-2.6,2.1-4.6,4.6-4.6l39.8,0l0,53.4l-39.8,0C248.8,175.8,246.8,173.7,246.8,171.2z"/>
		<g>
			<path class="st7" d="M362.8,121.8c-3,0-5.4,2.4-5.4,5.4c0,3,2.4,5.4,5.4,5.4c3,0,5.4-2.4,5.4-5.4
				C368.2,124.3,365.8,121.8,362.8,121.8z"/>
			<path class="st7" d="M374.9,131.8c-4.7,0-8.5,3.8-8.5,8.5c0,4.7,3.8,8.5,8.5,8.5c4.7,0,8.5-3.8,8.5-8.5
				C383.4,135.6,379.6,131.8,374.9,131.8z"/>
			<path class="st7" d="M415.8,151.4l-14,0c-1.5,0-2.7-1.2-2.7-2.7c0-1.5,1.2-2.7,2.7-2.7l14,0c1.5,0,2.7,1.2,2.7,2.7
				C418.5,150.2,417.3,151.4,415.8,151.4z"/>
			<path class="st7" d="M409.1,182.2c-0.4,0-0.8-0.1-1.1-0.2l-12.7-5.8c-1.3-0.6-1.9-2.2-1.3-3.5c0.6-1.3,2.2-1.9,3.5-1.3l12.7,5.8
				c1.3,0.6,1.9,2.2,1.3,3.5C411,181.6,410.1,182.2,409.1,182.2z"/>
			<path class="st7" d="M396.4,126.2c-1,0-2-0.6-2.4-1.6c-0.6-1.3,0-2.9,1.3-3.5l12.7-5.8c1.3-0.6,2.9,0,3.5,1.3
				c0.6,1.3,0,2.9-1.3,3.5l-12.7,5.8C397.1,126.1,396.7,126.2,396.4,126.2z"/>
		</g>
	</g>
</g>
</svg>
