<svg id="Layer_1" data-name="Layer 1" xmlns="http://www.w3.org/2000/svg" viewBox="0 0 212.43 95.51"><defs><style>.cls-1{fill:#ffc144;}.cls-2{fill:#fff;}.cls-3{fill:#fff7bf;}.cls-4{fill:#b6bccf;}.cls-5{fill:#38393d;stroke:#38393d;stroke-miterlimit:10;}.cls-6{fill:#949494;}</style></defs><title>logo3</title><path d="M325.53,168.06l-.07-.08L325,169a1.69,1.69,0,0,1-1.52.94h-17.3a1.73,1.73,0,0,1-1.56-.94l-1.33-2.65a4.64,4.64,0,0,1-1.72,2.34q-1.81,1.29-7.15,1.29h-2v5.27h46.12V170h-4.1C330.14,170,327.21,169.34,325.53,168.06Z" transform="translate(-142.27 -80.63)"/><path d="M291.41,91v3.39A27.19,27.19,0,0,1,294,90.78C293.09,90.86,292.23,90.94,291.41,91Z" transform="translate(-142.27 -80.63)"/><path d="M302.65,161.26c-.41.24,1.34,2.7.59,5.12a9.23,9.23,0,0,0,.58-2.81Z" transform="translate(-142.27 -80.63)"/><path class="cls-1" d="M307.42,109.64l2.65-2.69a1.76,1.76,0,0,1,2.46,0l2.23,2.26L317,107a1.76,1.76,0,0,1,2.15-.21,9.1,9.1,0,1,1,7.34,14.46,9.63,9.63,0,0,1-1.08-.11L322.57,132l-.59,2.26,3.87,1.87c.19-.39.39-.82.66-1.28.12-.24.27-.47.43-.75.82-1.44,3.47-5.66,3.67-6.05a1.75,1.75,0,0,1,2.38-.51c.78-1.24,1.56-2.49,2.3-3.77a1.72,1.72,0,1,1,1.69-3c.7-1.32,1.36-2.65,1.95-3.93a1.82,1.82,0,0,1-.94-2.27,14.76,14.76,0,0,0,1.17-4.84,26.34,26.34,0,0,0-4.8-14.92,24.49,24.49,0,0,0-2.38-3,25.31,25.31,0,0,0-3.24-2.93,22.12,22.12,0,0,0-13.63-4.8A23.76,23.76,0,0,0,299,90.47c-.43.39-.86.82-1.29,1.25a26,26,0,0,0-3.47,4.57h.15a18.79,18.79,0,0,1,5.82.66c2.46.78,3.67,3.2,3.67,7.19v2.46A5.11,5.11,0,0,1,307.42,109.64Z" transform="translate(-142.27 -80.63)"/><polygon class="cls-1" points="161.59 39.44 161.59 55.52 165.26 53.69 161.59 39.44"/><path class="cls-1" d="M317.36,112.09a6,6,0,0,1,.07-.61L316,112.92a1.76,1.76,0,0,1-2.46,0l-2.23-2.26-2.26,2.26a1.75,1.75,0,0,1-1.21.51h-.32a5,5,0,0,1-1.29,2l4.69,18h7.69L322.09,120A9.07,9.07,0,0,1,317.36,112.09Z" transform="translate(-142.27 -80.63)"/><polygon class="cls-2" points="162.1 63.18 182.87 63.18 182.87 59.04 177.29 56.34 167.72 56.34 162.1 59.2 162.1 63.18"/><polygon class="cls-3" points="180.06 85.86 180.96 84.07 181.82 82.39 163.19 82.39 164.91 85.86 180.06 85.86"/><polygon class="cls-2" points="182.87 70.67 182.87 67.39 180.3 68.33 162.1 74.89 162.1 78.13 180.3 71.61 182.87 70.67"/><polygon class="cls-4" points="170.38 78.88 182.87 78.88 182.87 74.39 180.3 75.32 170.38 78.88"/><polygon class="cls-4" points="162.1 66.65 162.1 71.18 174.64 66.65 162.1 66.65"/><path class="cls-2" d="M303.86,110.46v2.46a1.77,1.77,0,0,0,.51-1.25A1.68,1.68,0,0,0,303.86,110.46Z" transform="translate(-142.27 -80.63)"/><path d="M334.41,122.3a1.72,1.72,0,0,0,.88,1.49,1.63,1.63,0,0,0,.85.25,1.73,1.73,0,0,0,.84-3.24,1.69,1.69,0,0,0-2.57,1.5Z" transform="translate(-142.27 -80.63)"/><path d="M306.13,170h17.3A1.69,1.69,0,0,0,325,169l.51-1.05,3-5.94a1.31,1.31,0,0,0,.2-.78V138.61a2.58,2.58,0,0,1,.39-1.05c.23-.47.74-1.41,1.37-2.42,1.28-2.23,3-5,3.16-5.19a1.73,1.73,0,0,0-.55-2.39,1.75,1.75,0,0,0-2.38.51c-.2.39-2.85,4.61-3.67,6.05-.16.28-.31.51-.43.75-.27.46-.47.89-.66,1.28L322,134.28l.59-2.26,2.82-10.93a8.83,8.83,0,0,1-3.3-1.06l-3.47,13.47h-7.69l-4.69-18a5,5,0,0,0,1.29-2h.32a1.75,1.75,0,0,0,1.21-.51l2.26-2.26,2.23,2.26a1.76,1.76,0,0,0,2.46,0l1.42-1.44a9.06,9.06,0,0,1,1.7-4.74A1.76,1.76,0,0,0,317,107l-2.22,2.26L312.53,107a1.76,1.76,0,0,0-2.46,0l-2.65,2.69a5.11,5.11,0,0,0-3.56-3v13.47l3.67,14.25-3.67,1.83-1.23.63c0,.65,0,1.3,0,1.95v22.53l1.17,2.31a9.23,9.23,0,0,1-.58,2.81l1.33,2.65A1.73,1.73,0,0,0,306.13,170Zm13.43-33,5.58,2.7v4.14H304.37v-4L310,137Zm5.58,22.53H312.65l9.92-3.55,2.57-.94Zm-20.77-12.22H316.9l-12.53,4.53Zm0,8.24,18.2-6.56,2.57-.93v3.28l-2.57.93-18.2,6.52Zm19.72,7.5-.86,1.68-.9,1.79H307.18L305.46,163Z" transform="translate(-142.27 -80.63)"/><path d="M299,90.47a23.76,23.76,0,0,1,16.13-6.36,22.12,22.12,0,0,1,13.63,4.8A25.31,25.31,0,0,1,332,91.84a24.49,24.49,0,0,1,2.38,3,26.34,26.34,0,0,1,4.8,14.92A14.76,14.76,0,0,1,338,114.6a1.82,1.82,0,0,0,.94,2.27h0a1.71,1.71,0,0,0,2.22-1,16.65,16.65,0,0,0,1.41-6.13,29.59,29.59,0,0,0-3.75-14.21,30.65,30.65,0,0,0-5.12-6.76A29.09,29.09,0,0,0,326,83.13a24.38,24.38,0,0,0-10.85-2.5A27.77,27.77,0,0,0,294,90.78a27.19,27.19,0,0,0-2.61,3.59v1.92h2.81a26,26,0,0,1,3.47-4.57C298.12,91.29,298.55,90.86,299,90.47Z" transform="translate(-142.27 -80.63)"/><path d="M278.25,98l4.88,1.8a1.78,1.78,0,0,0,.59.1,1.74,1.74,0,0,0,.59-3.38l-4.87-1.8A1.74,1.74,0,0,0,278.25,98Z" transform="translate(-142.27 -80.63)"/><path d="M351.31,121.2l0,0-4.88-1.8a1.67,1.67,0,0,0-2.19,1,1.75,1.75,0,0,0,1,2.26l4.88,1.8c.08,0,.12,0,.2,0a1.29,1.29,0,0,0,.39,0,1.77,1.77,0,0,0,1.64-1.13A1.73,1.73,0,0,0,351.31,121.2Z" transform="translate(-142.27 -80.63)"/><path d="M276.54,111.33h5.19a1.75,1.75,0,0,0,0-3.49h-5.19a1.75,1.75,0,0,0,0,3.49Z" transform="translate(-142.27 -80.63)"/><path d="M353,107.85h-5.19a1.74,1.74,0,0,0,0,3.47H353a1.74,1.74,0,0,0,0-3.47Z" transform="translate(-142.27 -80.63)"/><path d="M283.13,119.35l-4.88,1.79a1.75,1.75,0,0,0,.6,3.39,1.8,1.8,0,0,0,.59-.11l4.87-1.79a1.76,1.76,0,0,0,1-2.24A1.73,1.73,0,0,0,283.13,119.35Z" transform="translate(-142.27 -80.63)"/><path d="M344.12,97.85a1.53,1.53,0,0,0,.08.94,1.68,1.68,0,0,0,1.6,1.13,3.09,3.09,0,0,0,.59-.08l.15,0L351.27,98a1.8,1.8,0,0,0,1.05-2.26,1.71,1.71,0,0,0-2.23-1l-4.88,1.79A1.69,1.69,0,0,0,344.12,97.85Z" transform="translate(-142.27 -80.63)"/><path d="M288.35,129.68l-4,3.37a1.74,1.74,0,0,0,2.23,2.67l4-3.36a1.75,1.75,0,0,0,.21-2.46A1.71,1.71,0,0,0,288.35,129.68Z" transform="translate(-142.27 -80.63)"/><path d="M338.73,89.3a1.9,1.9,0,0,0,1.33.58,1.69,1.69,0,0,0,1.13-.39l.43-.39h0l3.51-3a1.77,1.77,0,0,0,.2-2.46,1.69,1.69,0,0,0-2.42-.24l-4,3.4a1.68,1.68,0,0,0-.47,2A1,1,0,0,0,338.73,89.3Z" transform="translate(-142.27 -80.63)"/><path d="M288.35,89.49a1.72,1.72,0,0,0,2.43-.21,1.75,1.75,0,0,0-.21-2.46l-4-3.37a1.72,1.72,0,0,0-2.44.22,1.75,1.75,0,0,0,.21,2.46Z" transform="translate(-142.27 -80.63)"/><path d="M344.12,132.13l-2.93-2.46a1.75,1.75,0,0,0-2.46.24,1.78,1.78,0,0,0,.24,2.46l1.75,1.48h0l2.19,1.88a1.7,1.7,0,0,0,2.42-.24,1.77,1.77,0,0,0-.2-2.46Z" transform="translate(-142.27 -80.63)"/><path d="M335.58,112.09a9.08,9.08,0,0,0-18.15-.61,6,6,0,0,0-.07.61,9.07,9.07,0,0,0,4.73,7.94,8.83,8.83,0,0,0,3.3,1.06,9.63,9.63,0,0,0,1.08.11A9.11,9.11,0,0,0,335.58,112.09Zm-14.52,0a5.41,5.41,0,1,1,5.41,5.41A5.41,5.41,0,0,1,321.06,112.09Z" transform="translate(-142.27 -80.63)"/><path class="cls-2" d="M331.88,112.09a5.41,5.41,0,1,0-5.41,5.41A5.41,5.41,0,0,0,331.88,112.09Z" transform="translate(-142.27 -80.63)"/><path class="cls-5" d="M143.1,171.4q5.68-6,11.39-12c1.4,6.86,6.59,11.83,12.31,12.34A14.15,14.15,0,0,0,177,168.18a11.59,11.59,0,0,0,4-9.09q0-5.47-7.48-12.08l-6.42-5.7c-4.78-4.2-7.73-7.14-8.87-8.85a12.1,12.1,0,0,1-1.71-6.83q0-8.53,7.2-14.71a25.46,25.46,0,0,1,6.13-3.91,26.49,26.49,0,0,1,11.06-2.27c11.28-.1,20.72,7.38,22.62,8.94l-10,6.29H190.6c.06-.94.09-1.59.09-2a8.33,8.33,0,0,0-3.46-7q-3.47-2.66-9.17-2.65a14.51,14.51,0,0,0-9.89,3.49,11,11,0,0,0-4,8.64,10.71,10.71,0,0,0,2,6.34q2,2.87,8.45,8.34l5.38,4.65q9,7.71,9,14.41,0,8.79-8.44,15.09a32.69,32.69,0,0,1-20.1,6.29A38.18,38.18,0,0,1,143.1,171.4Z" transform="translate(-142.27 -80.63)"/><path class="cls-6" d="M198.28,174.55l4.33-4.33.44.12a14.88,14.88,0,0,0,1.7,0,5.41,5.41,0,0,0,4.82-2.31q1.58-2.31,2.92-9.05l4.66-23.5h-7.42q-11.28,0-11.28,8.91a15.59,15.59,0,0,0,.27,2.6l-6.1,2.85a20.57,20.57,0,0,1,7.47-13.66q6.24-5,15.71-5h12.42q8.42,0,11.13-1.12t3.69-5l4.4-1.79a17.1,17.1,0,0,1-7.91,8.82,26.17,26.17,0,0,1-13.3,3.37H223.3L219.23,156a24.33,24.33,0,0,1-3.21,8.69,22.35,22.35,0,0,1-6.67,6.08l11.31.23-4.07,4.34Z" transform="translate(-142.27 -80.63)"/><path class="cls-5" d="M239,174.55l4.34-4.36h.5c3,0,5-.61,6.14-1.84s2.09-3.94,2.91-8.11l5.33-26.76a14.31,14.31,0,0,0-9.75,3.24,10.66,10.66,0,0,0-3.72,8.45v.64L239,148.57q.74-8.88,7-13.13t18.49-4.24h17.23l-2.61,8.29h-1.85a10.18,10.18,0,0,0,.24-2.05c0-1.55-.88-2.61-2.65-3.2s-5-.88-9.66-.88h-.9l-3.4,17.35H274l-3,3a88.21,88.21,0,0,0-9.06-.84h-1.46l-.62,3.15a22.73,22.73,0,0,1-3.12,8.44,23.83,23.83,0,0,1-6.72,6.19l14.06.55,3.08.09a14.21,14.21,0,0,0,8.93-3.25l-.47,2.34q-5.18,5.25-9.75,5.25l-1.35,0Z" transform="translate(-142.27 -80.63)"/></svg>