<svg id="Layer_1" data-name="Layer 1" xmlns="http://www.w3.org/2000/svg" viewBox="0 0 209.22 98.75"><defs><style>.cls-1{fill:#ffc144;}.cls-2{fill:#fff;}.cls-3{fill:#fff7bf;}.cls-4{fill:#b6bccf;}</style></defs><title>logo</title><path d="M119.58,135.84c-2.44,0-4.87.14-7.29.22-3.06-.23-5.06-1.21-6.06-3a4.23,4.23,0,0,1,.17-4.42,9,9,0,0,1,3.34-3.21,11.1,11.1,0,0,1,7.76-1.29,13.11,13.11,0,0,1,6.89,3.8l2.44-1.4L120,117.33l-1.29.74a2.15,2.15,0,0,1-.94,1.49c-.14.07-1.62.47-4.43,1.22a23.41,23.41,0,0,0-5.76,2.44,19.3,19.3,0,0,0-4.58,3.56,13,13,0,0,0-3.35,6.41,10,10,0,0,0,1.25,7.07,11.06,11.06,0,0,0,7.26,5.38,33.52,33.52,0,0,0,9.39.53,68.55,68.55,0,0,1,8.19,0c3.24.4,5.46,1.69,6.66,3.79a6.19,6.19,0,0,1,.84,3.52c-.23,2.74-1.7,4.89-4.48,6.48-5,2.83-10.19,1.77-15.67-3.19l-2.38,1.36,7.88,10.25,1.56-.9a1.55,1.55,0,0,1,.73-1.72,31.61,31.61,0,0,1,5.07-1.59,29.14,29.14,0,0,0,6.5-2.41,16.44,16.44,0,0,0,5.63-5.24c3.1-4.65,3.39-9.18.89-13.55a12.8,12.8,0,0,0-8.1-6.08A42.48,42.48,0,0,0,119.58,135.84Z" transform="translate(-99.48 -69.63)"/><path d="M185.24,119.38a4.84,4.84,0,0,1-3.36,1.17H148.41a6.81,6.81,0,0,1-2-.2,5.54,5.54,0,0,1-1.32-1h-2.27l-1.25,13.12h2.85a30.34,30.34,0,0,1,1.45-5.59,4,4,0,0,1,2.53-2.34,13.19,13.19,0,0,1,3.64-.35h8.27v32.06q0,5.26-5.38,5.27h-2.39v2.73h25.31v-2.73h-1.68c-2.23,0-3.75-.35-4.61-1-1-.74-1.52-2.15-1.52-4.25V124.22h8.27a12.12,12.12,0,0,1,4.18.54c1.1.47,1.92,1.61,2.5,3.4a40.86,40.86,0,0,1,.94,4.34h2.89l-1.29-13.12Z" transform="translate(-99.48 -69.63)"/><path d="M228.62,158.7c-1.17,1.13-3.05,1.71-5.63,1.71H211.24a2.23,2.23,0,0,1-2.22-1,6.19,6.19,0,0,1-.36-2.58V144.09H219a12.36,12.36,0,0,1,4.1.51c1.49.55,2.27,2.07,2.27,4.57h2.81v-14h-2.81c0,1.87-.43,3.2-1.25,3.94s-2.15,1.14-4.06,1.14H208.66V124.45h15.39a4,4,0,0,1,3.75,1.92,14.48,14.48,0,0,1,1.09,4.37h2.69l-.74-10.19H192.15v2.77h.66c2.23,0,3.75.31,4.61.9,1,.74,1.56,2.15,1.56,4.25v28q0,5-5.51,5h-2.89v2.73h42.33l.82-11.05h-2.65C230.53,155.85,229.71,157.68,228.62,158.7Z" transform="translate(-99.48 -69.63)"/><path d="M279.53,157.06l-.07-.08L279,158a1.69,1.69,0,0,1-1.52.94h-17.3a1.73,1.73,0,0,1-1.56-.94l-1.33-2.65a4.64,4.64,0,0,1-1.72,2.34q-1.82,1.29-7.15,1.29h-2v5.27h46.12V159h-4.1C284.14,159,281.21,158.34,279.53,157.06Z" transform="translate(-99.48 -69.63)"/><path d="M245.41,80v3.39A27.19,27.19,0,0,1,248,79.78C247.09,79.86,246.23,79.94,245.41,80Z" transform="translate(-99.48 -69.63)"/><path d="M256.65,150.26c-.41.24,1.34,2.7.59,5.12a9.23,9.23,0,0,0,.58-2.81Z" transform="translate(-99.48 -69.63)"/><path class="cls-1" d="M261.42,98.64,264.07,96a1.76,1.76,0,0,1,2.46,0l2.23,2.26L271,96a1.76,1.76,0,0,1,2.15-.21,9.1,9.1,0,1,1,7.34,14.46,9.63,9.63,0,0,1-1.08-.11L276.57,121l-.59,2.26,3.87,1.87c.19-.39.39-.82.66-1.28.12-.24.27-.47.43-.75.82-1.44,3.47-5.66,3.67-6.05a1.75,1.75,0,0,1,2.38-.51c.78-1.24,1.56-2.49,2.3-3.77a1.72,1.72,0,1,1,1.69-3c.7-1.32,1.36-2.65,1.95-3.93a1.82,1.82,0,0,1-.94-2.27,14.76,14.76,0,0,0,1.17-4.84,26.34,26.34,0,0,0-4.8-14.92,24.49,24.49,0,0,0-2.38-3,25.31,25.31,0,0,0-3.24-2.93,22.12,22.12,0,0,0-13.63-4.8A23.76,23.76,0,0,0,253,79.47c-.43.39-.86.82-1.29,1.25a26,26,0,0,0-3.47,4.57h.15a18.79,18.79,0,0,1,5.82.66c2.46.78,3.67,3.2,3.67,7.19V95.6A5.11,5.11,0,0,1,261.42,98.64Z" transform="translate(-99.48 -69.63)"/><polygon class="cls-1" points="158.39 39.44 158.39 55.52 162.06 53.69 158.39 39.44"/><path class="cls-1" d="M271.36,101.09a6,6,0,0,1,.07-.61L270,101.92a1.76,1.76,0,0,1-2.46,0l-2.23-2.26-2.26,2.26a1.75,1.75,0,0,1-1.21.51h-.32a5,5,0,0,1-1.29,2l4.69,18h7.69L276.09,109A9.07,9.07,0,0,1,271.36,101.09Z" transform="translate(-99.48 -69.63)"/><polygon class="cls-2" points="158.89 63.18 179.67 63.18 179.67 59.04 174.08 56.34 164.52 56.34 158.89 59.2 158.89 63.18"/><polygon class="cls-3" points="176.85 85.86 177.75 84.07 178.61 82.39 159.99 82.39 161.71 85.86 176.85 85.86"/><polygon class="cls-2" points="179.67 70.67 179.67 67.39 177.09 68.33 158.89 74.89 158.89 78.13 177.09 71.61 179.67 70.67"/><polygon class="cls-4" points="167.17 78.88 179.67 78.88 179.67 74.39 177.09 75.32 167.17 78.88"/><polygon class="cls-4" points="158.89 66.65 158.89 71.18 171.43 66.65 158.89 66.65"/><path class="cls-2" d="M257.86,99.46v2.46a1.77,1.77,0,0,0,.51-1.25A1.68,1.68,0,0,0,257.86,99.46Z" transform="translate(-99.48 -69.63)"/><path d="M288.41,111.3a1.72,1.72,0,0,0,.88,1.49,1.63,1.63,0,0,0,.85.25,1.73,1.73,0,0,0,.84-3.24,1.69,1.69,0,0,0-2.57,1.5Z" transform="translate(-99.48 -69.63)"/><path d="M260.13,159h17.3A1.69,1.69,0,0,0,279,158l.51-1.05,3-5.94a1.31,1.31,0,0,0,.2-.78V127.61a2.58,2.58,0,0,1,.39-1c.23-.47.74-1.41,1.37-2.42,1.28-2.23,3-5,3.16-5.19a1.73,1.73,0,0,0-.55-2.39,1.75,1.75,0,0,0-2.38.51c-.2.39-2.85,4.61-3.67,6.05-.16.28-.31.51-.43.75-.27.46-.47.89-.66,1.28L276,123.28l.59-2.26,2.82-10.93a8.83,8.83,0,0,1-3.3-1.06l-3.47,13.47h-7.69l-4.69-18a5,5,0,0,0,1.29-2h.32a1.75,1.75,0,0,0,1.21-.51l2.26-2.26,2.23,2.26a1.76,1.76,0,0,0,2.46,0l1.42-1.44a9.06,9.06,0,0,1,1.7-4.74A1.76,1.76,0,0,0,271,96l-2.22,2.26L266.53,96a1.76,1.76,0,0,0-2.46,0l-2.65,2.69a5.11,5.11,0,0,0-3.56-3v13.47l3.67,14.25-3.67,1.83-1.23.63c0,.65,0,1.3,0,2v22.53l1.17,2.31a9.23,9.23,0,0,1-.58,2.81l1.33,2.65A1.73,1.73,0,0,0,260.13,159Zm13.43-33,5.58,2.7v4.14H258.37v-4L264,126Zm5.58,22.53H266.65l9.92-3.55,2.57-.94Zm-20.77-12.22H270.9l-12.53,4.53Zm0,8.24,18.2-6.56,2.57-.93v3.28l-2.57.93-18.2,6.52Zm19.72,7.5-.86,1.68-.9,1.79H261.18L259.46,152Z" transform="translate(-99.48 -69.63)"/><path d="M253,79.47a23.76,23.76,0,0,1,16.13-6.36,22.12,22.12,0,0,1,13.63,4.8A25.31,25.31,0,0,1,286,80.84a24.49,24.49,0,0,1,2.38,3,26.34,26.34,0,0,1,4.8,14.92A14.76,14.76,0,0,1,292,103.6a1.82,1.82,0,0,0,.94,2.27h0a1.71,1.71,0,0,0,2.22-1,16.65,16.65,0,0,0,1.41-6.13,29.59,29.59,0,0,0-3.75-14.21,30.65,30.65,0,0,0-5.12-6.76A29.09,29.09,0,0,0,280,72.13a24.38,24.38,0,0,0-10.85-2.5A27.77,27.77,0,0,0,248,79.78a27.19,27.19,0,0,0-2.61,3.59v1.92h2.81a26,26,0,0,1,3.47-4.57C252.12,80.29,252.55,79.86,253,79.47Z" transform="translate(-99.48 -69.63)"/><path d="M232.25,87l4.88,1.8a1.78,1.78,0,0,0,.59.1,1.74,1.74,0,0,0,.59-3.38l-4.87-1.8A1.74,1.74,0,0,0,232.25,87Z" transform="translate(-99.48 -69.63)"/><path d="M305.31,110.2l0,0-4.88-1.8a1.67,1.67,0,0,0-2.19,1,1.75,1.75,0,0,0,1,2.26l4.88,1.8c.08,0,.12,0,.2,0a1.29,1.29,0,0,0,.39,0,1.77,1.77,0,0,0,1.64-1.13A1.73,1.73,0,0,0,305.31,110.2Z" transform="translate(-99.48 -69.63)"/><path d="M230.54,100.33h5.19a1.75,1.75,0,0,0,0-3.49h-5.19a1.75,1.75,0,0,0,0,3.49Z" transform="translate(-99.48 -69.63)"/><path d="M307,96.85h-5.19a1.74,1.74,0,0,0,0,3.47H307a1.74,1.74,0,0,0,0-3.47Z" transform="translate(-99.48 -69.63)"/><path d="M237.13,108.35l-4.88,1.79a1.75,1.75,0,0,0,.6,3.39,1.8,1.8,0,0,0,.59-.11l4.87-1.79a1.76,1.76,0,0,0,1-2.24A1.73,1.73,0,0,0,237.13,108.35Z" transform="translate(-99.48 -69.63)"/><path d="M298.12,86.85a1.53,1.53,0,0,0,.08.94,1.68,1.68,0,0,0,1.6,1.13,3.09,3.09,0,0,0,.59-.08l.15,0L305.27,87a1.8,1.8,0,0,0,1.05-2.26,1.71,1.71,0,0,0-2.23-1l-4.88,1.79A1.69,1.69,0,0,0,298.12,86.85Z" transform="translate(-99.48 -69.63)"/><path d="M242.35,118.68l-4,3.37a1.74,1.74,0,0,0,2.23,2.67l4-3.36a1.75,1.75,0,0,0,.21-2.46A1.71,1.71,0,0,0,242.35,118.68Z" transform="translate(-99.48 -69.63)"/><path d="M292.73,78.3a1.9,1.9,0,0,0,1.33.58,1.69,1.69,0,0,0,1.13-.39l.43-.39h0l3.51-3a1.77,1.77,0,0,0,.2-2.46,1.69,1.69,0,0,0-2.42-.24l-4,3.4a1.68,1.68,0,0,0-.47,2A1,1,0,0,0,292.73,78.3Z" transform="translate(-99.48 -69.63)"/><path d="M242.35,78.49a1.72,1.72,0,0,0,2.43-.21,1.75,1.75,0,0,0-.21-2.46l-4-3.37a1.72,1.72,0,0,0-2.44.22,1.75,1.75,0,0,0,.21,2.46Z" transform="translate(-99.48 -69.63)"/><path d="M298.12,121.13l-2.93-2.46a1.75,1.75,0,0,0-2.46.24,1.78,1.78,0,0,0,.24,2.46l1.75,1.48h0l2.19,1.88a1.7,1.7,0,0,0,2.42-.24,1.77,1.77,0,0,0-.2-2.46Z" transform="translate(-99.48 -69.63)"/><path d="M289.58,101.09a9.08,9.08,0,0,0-18.15-.61,6,6,0,0,0-.07.61,9.07,9.07,0,0,0,4.73,7.94,8.83,8.83,0,0,0,3.3,1.06,9.63,9.63,0,0,0,1.08.11A9.11,9.11,0,0,0,289.58,101.09Zm-14.52,0a5.41,5.41,0,1,1,5.41,5.41A5.41,5.41,0,0,1,275.06,101.09Z" transform="translate(-99.48 -69.63)"/><path class="cls-2" d="M285.88,101.09a5.41,5.41,0,1,0-5.41,5.41A5.41,5.41,0,0,0,285.88,101.09Z" transform="translate(-99.48 -69.63)"/></svg>