<svg id="Layer_1" data-name="Layer 1" xmlns="http://www.w3.org/2000/svg" viewBox="0 0 417.9 413.94"><defs><style>.cls-1{fill:#322277;}.cls-2{fill:#f84e82;}.cls-3{fill:#7956ba;}.cls-4{fill:#4b358e;}.cls-5{fill:#08053d;}.cls-6{fill:#fdd33a;}.cls-7{fill:#f9bd3a;}.cls-8{fill:#ffe6a9;}</style></defs><title>p</title><path class="cls-1" d="M8.5,466.55a3,3,0,1,1-3-3A3,3,0,0,1,8.5,466.55Z" transform="translate(-2.46 -55.64)"/><path class="cls-2" d="M420.36,145.91a90.27,90.27,0,1,1-90.27-90.27A90.27,90.27,0,0,1,420.36,145.91Z" transform="translate(-2.46 -55.64)"/><path class="cls-3" d="M275.6,374.89h11.24V267.39a31.72,31.72,0,0,1-11.24,2Z" transform="translate(-2.46 -55.64)"/><path class="cls-4" d="M275.6,269.41a31.7,31.7,0,0,1-11.23-2V375H275.6V269.41Z" transform="translate(-2.46 -55.64)"/><path class="cls-3" d="M275.6,218.19a25.79,25.79,0,0,1,11.24,2.56V160.14H264.37v.1H275.6Z" transform="translate(-2.46 -55.64)"/><path class="cls-4" d="M275.6,218.19V160.24H264.37v60.51a25.78,25.78,0,0,1,11.23-2.56Z" transform="translate(-2.46 -55.64)"/><path class="cls-5" d="M301.48,244.07a25.86,25.86,0,0,0-25.88-25.88h0a25.88,25.88,0,1,0,0,51.76h0a25.86,25.86,0,0,0,25.88-25.88ZM275.6,258.35a14.28,14.28,0,1,1,14.28-14.28A14.28,14.28,0,0,1,275.6,258.35Z" transform="translate(-2.46 -55.64)"/><path class="cls-1" d="M275.6,229.79a14.28,14.28,0,1,0,14.28,14.28A14.27,14.27,0,0,0,275.6,229.79Z" transform="translate(-2.46 -55.64)"/><path class="cls-6" d="M352.07,182.09h6.19a32.94,32.94,0,0,0,0-65.87h-6.19Z" transform="translate(-2.46 -55.64)"/><path class="cls-7" d="M357.62,162.64h-6.2v18.62h6.2A32.91,32.91,0,0,0,388.93,139,32.94,32.94,0,0,1,357.62,162.64Z" transform="translate(-2.46 -55.64)"/><path class="cls-3" d="M347,207.94l-55.78-32.38v.24H251.41a4.65,4.65,0,0,1-4.65-4.65V127a4.65,4.65,0,0,1,4.65-4.65h39.84v.23L347,90.25a4.86,4.86,0,0,1,7.29,4.2V203.74A4.85,4.85,0,0,1,347,207.94Z" transform="translate(-2.46 -55.64)"/><path class="cls-4" d="M346.78,189.57,291,157.19v.24H251.16a4.64,4.64,0,0,1-4.4-3.14v16.87a4.65,4.65,0,0,0,4.65,4.65h39.84v-.24L347,207.94a4.85,4.85,0,0,0,7.29-4.2l0-18.79C354.29,188.69,350,191.44,346.78,189.57Z" transform="translate(-2.46 -55.64)"/><path class="cls-1" d="M246.76,171.15V127a4.65,4.65,0,0,1,4.65-4.65h39.84v53.4H251.41A4.65,4.65,0,0,1,246.76,171.15Z" transform="translate(-2.46 -55.64)"/><path class="cls-8" d="M362.79,121.85a5.38,5.38,0,1,0,5.38,5.38A5.38,5.38,0,0,0,362.79,121.85Z" transform="translate(-2.46 -55.64)"/><path class="cls-8" d="M374.86,131.82a8.53,8.53,0,1,0,8.53,8.53A8.53,8.53,0,0,0,374.86,131.82Z" transform="translate(-2.46 -55.64)"/><path class="cls-8" d="M415.84,151.35h-14a2.68,2.68,0,1,1,0-5.35h14a2.68,2.68,0,0,1,0,5.35Z" transform="translate(-2.46 -55.64)"/><path class="cls-8" d="M409.06,182.21a2.46,2.46,0,0,1-1.12-.24l-12.7-5.83a2.67,2.67,0,1,1,2.23-4.86l12.7,5.82a2.67,2.67,0,0,1,1.32,3.55A2.64,2.64,0,0,1,409.06,182.21Z" transform="translate(-2.46 -55.64)"/><path class="cls-8" d="M396.36,126.16a2.68,2.68,0,0,1-1.12-5.11l12.7-5.83a2.67,2.67,0,1,1,2.23,4.86l-12.7,5.83A2.6,2.6,0,0,1,396.36,126.16Z" transform="translate(-2.46 -55.64)"/></svg>