<?xml version="1.0" encoding="utf-8"?>
<!-- Generator: Adobe Illustrator 23.0.0, SVG Export Plug-In . SVG Version: 6.00 Build 0)  -->
<svg version="1.1" id="Layer_1" xmlns="http://www.w3.org/2000/svg" xmlns:xlink="http://www.w3.org/1999/xlink" x="0px" y="0px"
	 viewBox="0 0 1000 1080" style="enable-background:new 0 0 1000 1080;" xml:space="preserve">
<style type="text/css">
	.st0{fill:#FFFFFF;}
	.st1{fill:#071651;}
	.st2{opacity:0.67;fill:#6699FF;enable-background:new    ;}
</style>
<title>back</title>
<rect x="0.3" y="0.1" class="st0" width="1000" height="1080"/>
<path class="st1" d="M1000.3,0v213.8c-29.7-21-59.6-19.2-89.8,0c-31.1,20.5-61,22.6-89.4,0c-33-21.3-63-19-90.9,0
	c-34.6,20.9-68.4,22.1-101.3,0c-33.9-19.3-66.7-20.8-98.1,0c-33,20.9-64.3,22.1-93.3,0c-34-23.9-67-25.5-99,0
	c-34.8,21.8-70.2,21.2-106.1,0c-33-24.5-63-21.8-90.9,0c-27.8,21.7-55.7,21.4-83.8,0c-20.8-13.4-40.1-14.5-57.3,0V0H1000.3z"/>
<path class="st2" d="M1000.3,174.9v38.9c-29.7-21-59.6-19.2-89.8,0c-31.1,20.5-61,22.6-89.4,0c-33-21.3-63-19-90.9,0
	c-34.6,20.9-68.4,22.1-101.3,0c-33.9-19.3-66.7-20.8-98.1,0c-33,20.9-64.3,22.1-93.3,0c-34-23.9-67-25.5-99,0
	c-34.8,21.8-70.2,21.2-106.1,0c-33-24.5-63-21.8-90.9,0c-27.8,21.7-55.7,21.4-83.8,0c-20.8-13.4-40.1-14.5-57.3,0v-38.9
	c17.2,14.5,36.5,13.4,57.2,0c28.1-21.4,56-21.6,83.8,0c28,21.9,58,24.5,90.9,0c35.9-21.2,71.3-21.8,106.1,0c31.9,25.5,64.9,24,99,0
	c29.1-22.1,60.3-20.9,93.3,0c31.4,20.8,64.2,19.3,98.1,0c32.9-22.1,66.7-20.9,101.4,0c28,19,58,21.3,90.9,0
	c28.3-22.6,58.2-20.5,89.4,0C940.7,194.2,970.6,195.9,1000.3,174.9z"/>
</svg>
