<?xml version="1.0" encoding="utf-8"?>
<!-- Generator: Adobe Illustrator 23.0.0, SVG Export Plug-In . SVG Version: 6.00 Build 0)  -->
<svg version="1.1" id="Layer_1" xmlns="http://www.w3.org/2000/svg" xmlns:xlink="http://www.w3.org/1999/xlink" x="0px" y="0px"
	 viewBox="0 0 421.5 239.7" style="enable-background:new 0 0 421.5 239.7;" xml:space="preserve">
<style type="text/css">
	.st0{fill:none;stroke:#0A1A44;stroke-miterlimit:10;}
	.st1{fill:#EAEAF7;}
	.st2{fill:#E1E2EC;}
	.st3{fill:#DCDFFE;stroke:#000000;stroke-width:0.25;stroke-miterlimit:10;}
	.st4{fill:#B2B5FA;stroke:#2E3044;stroke-width:0.1;stroke-miterlimit:10;}
	.st5{fill:#121632;}
	.st6{fill:#2E3044;}
	.st7{fill:#131633;}
	.st8{fill:#FFA968;}
	.st9{fill:#4752FF;}
	.st10{fill:#262CA2;}
	.st11{fill:#E32C10;stroke:#D23308;stroke-width:0.81;stroke-miterlimit:10;}
	.st12{fill:none;stroke:#000000;stroke-width:0.5;stroke-miterlimit:10;}
	.st13{fill:#DDE0EE;stroke:#000000;stroke-width:0.25;stroke-miterlimit:10;}
	.st14{fill:#FFFAFA;stroke:#8491BF;stroke-miterlimit:10;}
	.st15{fill:#595ADA;}
	.st16{fill:#F0EEFF;stroke:#9198AF;stroke-width:0.25;stroke-miterlimit:10;}
	.st17{fill:#F0EEFF;stroke:#9198AF;stroke-width:0.18;stroke-miterlimit:10;}
	.st18{fill:none;stroke:#9198AF;stroke-width:0.25;stroke-miterlimit:10;}
	.st19{fill:#F1EEFD;}
	.st20{fill:#F9D2C8;}
	.st21{fill:#F9F8FE;}
	.st22{fill:none;stroke:#E7DEE0;stroke-miterlimit:10;}
	.st23{fill:#F2F2F4;}
	.st24{fill:#E4E4EA;}
	.st25{fill:#BEBEC6;}
	.st26{fill:#FCD1C6;stroke:#000000;stroke-width:0.25;stroke-miterlimit:10;}
	.st27{fill:#D3A9A1;}
	.st28{fill:#14152C;}
	.st29{fill:#070C24;}
	.st30{fill:#222D93;}
	.st31{fill:#DE3103;}
	.st32{fill:#FFFFFF;stroke:#000000;stroke-width:0.25;stroke-miterlimit:10;}
	.st33{fill:#B0B2FF;}
	.st34{fill:#23279B;}
	.st35{fill:#4A4DC3;}
	.st36{fill:#ACB1F3;}
	.st37{fill:#AEB1FB;}
	.st38{opacity:0.46;fill:none;stroke:#34353F;stroke-width:0.25;stroke-miterlimit:10;enable-background:new    ;}
	.st39{fill:#2B2F42;}
	.st40{fill:#282BA3;}
	.st41{fill:#ECEAF5;}
	.st42{fill:none;stroke:#E1E1EE;stroke-miterlimit:10;}
	.st43{fill:#FFFFFF;}
	.st44{fill:#FDD8CE;}
	.st45{fill:#F5F6FD;}
	.st46{fill:#DBDFFE;}
	.st47{fill:#BFC5DB;}
	.st48{fill:#4755DE;}
	.st49{fill:#25213C;}
	.st50{fill:#F7F6F9;}
	.st51{fill:#252F8C;}
	.st52{fill:#F4F6FA;}
	.st53{fill:#D33607;}
	.st54{fill:#050505;}
	.st55{fill:#DDF3FF;}
	.st56{fill:#94DAFE;}
	.st57{fill:#FF9966;stroke:#FF9966;stroke-miterlimit:10;}
	.st58{fill:#8CCCE0;}
	.st59{fill:#FFC17D;}
	.st60{fill:#DC4124;}
	.st61{fill:#E2A86F;}
	.st62{opacity:0.31;fill:none;stroke:#000000;stroke-width:0.19;stroke-miterlimit:10;enable-background:new    ;}
	.st63{fill:#B5C0C4;}
	.st64{fill:#FDFFFF;}
	.st65{fill:#FCA66E;}
	.st66{fill:#223570;stroke:#000000;stroke-width:0.16;stroke-miterlimit:10;}
	.st67{fill:#223570;}
	.st68{fill:#8F4469;}
	.st69{fill:#FFFFFF;stroke:#020202;stroke-width:0.16;stroke-miterlimit:10;}
	.st70{fill:#FCA66E;stroke:#020202;stroke-width:0.13;stroke-miterlimit:10;}
	.st71{fill:#020202;}
	.st72{fill:#F7D0C3;stroke:#000000;stroke-width:0.25;stroke-miterlimit:10;}
	.st73{fill:#BA9890;}
</style>
<title>team</title>
<polyline class="st0" points="0,239.2 48,239.2 69.1,239.2 421.5,239.2 "/>
<path class="st1" d="M373.5,238.8c13-3.1,17.3-11.4,14-24.2c-1.7-12.9,12.3-9.5,17.4-24.2c3.7-14-15.3-15.7,6.1-34
	c-8.1-3.2-17,2.2-27.2,20.1c-8.9,3.8-34.5,10.6-32.7,22.8v39.5L373.5,238.8z"/>
<path class="st2" d="M355.6,239c0,0,4.4-17,7.1-17c0,0,3.9-5.3,18-5.3c0,0-8.7-2.6-16.3,1.2c0,0,3.4-12.1,6.8-12.1
	c0,0,5.8-4.6,13.1-3.6c0,0-1.5-3.2-11.1,0c0,0,5.1-11.2,17-11.2c-2.3-1.1-5-1.4-7.5-0.9c0,0,3.1-5.7,5.7-5.7c0,0-4.4,1.8-6.5,4.9
	l-4.1,4.1c0,0,0.5-8.2-2.4-8.2c0,0,5.1,7.8-5.8,15.7c0,0,5.5-4.8,1-9.2c0,0,1.2,5.4-3.1,7.7c0,0-3.7,12.4-9,12.4
	c0,0,8.5-15.4,4.3-16.3c0,0-3.8,14.9-8,16.3L345,233L355.6,239z"/>
<rect x="326" y="81.9" class="st3" width="28.8" height="157.3"/>
<polygon class="st4" points="351.8,229 350.6,232.8 348.1,237.4 357.4,237.4 356,233.8 356,227.3 "/>
<rect x="351.9" y="232" class="st5" width="2.4" height="0.8"/>
<rect x="350.4" y="234.1" class="st5" width="4" height="0.8"/>
<rect x="348.1" y="237.4" class="st6" width="9.3" height="1.8"/>
<polygon class="st4" points="334.6,228.5 333.4,232.3 330.9,236.9 340.2,236.9 338.8,233.4 338.8,226.9 "/>
<rect x="334.7" y="231.6" class="st5" width="2.4" height="0.8"/>
<rect x="333.1" y="233.6" class="st5" width="4" height="0.8"/>
<rect x="330.9" y="236.9" class="st6" width="9.3" height="1.8"/>
<polygon class="st7" points="350.4,230.1 357,230.1 362.4,161.2 339.1,162.6 334.8,195.6 333.7,230.1 340.8,230.1 343.5,196.5 
	349,174.7 350.6,199.6 "/>
<path class="st7" d="M350.4,230.1h6.6l0,0l1.2-17.2c0.4-5.8,0.8-11.5,1.3-17.2l2.7-34.5l0.3,0.3l-23.2,1.4l0.2-0.2l-4.3,33.1l0,0
	l-1.1,34.5l-0.3-0.3h7.1l-0.3,0.2l2.7-33.6l0,0l5.6-21.9l0.4-1.6l0.1,1.6c0.5,8.3,1.1,16.6,1.6,24.9l0,0L350.4,230.1z M350.4,230.1
	v-30.5l0,0c-0.6-8.3-1.1-16.6-1.7-24.9h0.5l-5.4,21.9l0,0l-2.7,33.6v0.2h-7.6v-0.3l1.1-34.5l0,0l4.3-33.1v-0.2h0.2l23.2-1.4h0.3v0.3
	l-2.7,34.5c-0.4,5.7-0.9,11.5-1.4,17.2l-1.5,17.2l0,0h0L350.4,230.1z"/>
<path class="st8" d="M336.6,137.8l-5.8,6.9c0,0-2.5,3.4-4.9-2.8l-5.4-14.7c0,0-1.9-3.2-3.3-3.2l-7.6-1.1c0,0-3-3.1,2.3-1h8.4
	c0,0,4,1,3.2,3.2l4.9,9.8c0,0,1,3.8,4.5-2S336.6,137.8,336.6,137.8z"/>
<rect x="364.4" y="127.5" transform="matrix(0.867 -0.4983 0.4983 0.867 -17.5621 201.0529)" class="st9" width="6.9" height="11.8"/>
<path class="st10" d="M337.2,166.4c0,0,15.8,4.2,25.4-4.1c0,0,1.1-25.5,0-26.7l2.6,3.2l6.6-3.6c-0.7-1.8-1.4-3.6-2.2-5.4
	s-1.5-3.9-2.3-5.8c0,0-10.6-6.3-13.1-6.3l-7,0.5c0,0-12.3,5.7-11.8,6.3c0,0-5.1,7.5-5.1,8.8c0,0,4.3,6.5,5.7,6.5l1.5-2.6
	C337.8,137.3,338.9,157,337.2,166.4z"/>
<path class="st8" d="M366.3,139.7c0.9,0.4,1.7,1.2,2,2.2c0.3,1.2,0.1,2.4-0.6,3.4l-7.3,16.9c0,0-2.4-0.8-2.4,2.4c0,0,1.7,2.9,0,2.9
	c0,0,1,3,3.3,0.8S374,146,374,146c0.3-1.7,0.3-3.5,0-5.2c-0.4-1.3-0.9-2.5-1.4-3.7c-0.1-0.3-0.3-0.6-0.3-0.8L366.3,139.7z"/>
<path class="st8" d="M354.9,124.8v-10.5c0,0,3.8-4.5,2.9-9.3c0,0-0.9-9.4-12.8-2.9c0,0-4.6,8.3,3.5,13.9v7.8
	C348.5,123.8,352.5,127.1,354.9,124.8z"/>
<path class="st11" d="M312.5,120.7c-0.5-0.6-0.6-1.3-0.3-2c0-0.2,0.1-0.4,0.2-0.5c0.1-0.2,0.3-0.3,0.5-0.4l1.8-0.9
	c0.2-0.1,0.5-0.2,0.8-0.3c0.3,0,0.6,0.1,0.9,0.3l2,1.1c0.1,0.1,0.3,0.2,0.4,0.3c0.1,0.1,0.1,0.3,0.1,0.4v1.7c0,0.1,0,0.1,0,0.2
	c-0.1,0.1-0.1,0.1-0.2,0.1l-5,0.3C313.2,121,312.8,120.9,312.5,120.7z"/>
<polygon class="st12" points="310.9,121 320.1,121 320.1,115.6 317.5,113.1 320.1,110.8 320.1,104.6 310.9,104.8 310.9,110.5 
	313.6,112.8 310.9,115.5 "/>
<path class="st11" d="M318.1,109.2c-0.1,0.1-0.1,0.2-0.2,0.3c-0.3,0.3-0.7,0.6-1.1,0.9c-0.4,0.2-0.7,0.6-0.9,1
	c-0.1,0.3-0.2,0.7-0.2,1c-0.1,0.5-0.3,1-0.7,0.5s-0.1-1.1-0.3-1.5s-0.9-0.7-1.3-1.1c-0.4-0.6-0.6-1.3-0.5-2l2.1,1.1
	c0.2,0.1,0.5,0.2,0.8,0.2c0.2,0,0.4-0.1,0.6-0.2l1.8-1.1C318.3,108.5,318.3,108.9,318.1,109.2z"/>
<circle class="st11" cx="315.3" cy="114.9" r="0.5"/>
<rect x="127.2" y="51.3" class="st13" width="174.1" height="186.4"/>
<circle class="st14" cx="142.3" cy="62" r="2"/>
<circle class="st14" cx="152.5" cy="62" r="2"/>
<circle class="st14" cx="163.5" cy="62" r="2"/>
<rect x="242.4" y="81.4" class="st15" width="2.4" height="2.4"/>
<rect x="250.8" y="81.4" class="st16" width="26" height="4.8"/>
<rect x="250.8" y="88.6" class="st16" width="26" height="1.8"/>
<rect x="250.8" y="91.9" class="st16" width="26" height="1.8"/>
<rect x="250.8" y="95.1" class="st17" width="14" height="1.8"/>
<rect x="242.4" y="105.2" class="st15" width="2.4" height="2.4"/>
<rect x="250.8" y="105.2" class="st16" width="26" height="4.8"/>
<rect x="250.8" y="112.4" class="st16" width="26" height="1.8"/>
<rect x="250.8" y="115.7" class="st16" width="26" height="1.8"/>
<rect x="250.8" y="118.9" class="st17" width="14" height="1.8"/>
<rect x="242.4" y="129" class="st15" width="2.4" height="2.4"/>
<rect x="250.8" y="129" class="st16" width="26" height="4.9"/>
<rect x="250.8" y="136.2" class="st16" width="26" height="1.8"/>
<rect x="250.8" y="139.5" class="st16" width="26" height="1.8"/>
<rect x="250.8" y="142.8" class="st17" width="14" height="1.8"/>
<line class="st18" x1="135.4" y1="86.2" x2="225.8" y2="86.2"/>
<line class="st18" x1="146.9" y1="78.8" x2="146.9" y2="148.3"/>
<rect x="150.5" y="90.4" class="st19" width="14.1" height="14.2"/>
<rect x="150.5" y="107.1" class="st20" width="14.1" height="14.2"/>
<rect x="150.5" y="123.9" class="st19" width="14.1" height="14.2"/>
<rect x="170.2" y="90.4" class="st18" width="14.1" height="14.2"/>
<rect x="170.2" y="107.1" class="st19" width="14.1" height="14.2"/>
<rect x="170.2" y="123.9" class="st20" width="14.1" height="14.2"/>
<rect x="187.6" y="90.4" class="st19" width="14.1" height="14.2"/>
<rect x="187.6" y="107.1" class="st20" width="14.1" height="14.2"/>
<rect x="187.6" y="123.9" class="st19" width="14.1" height="14.2"/>
<rect x="206.3" y="90.4" class="st20" width="14.1" height="14.2"/>
<rect x="206.3" y="107.1" class="st19" width="14.1" height="14.2"/>
<rect x="206.3" y="123.9" class="st20" width="14.1" height="14.2"/>
<rect x="146.7" y="156.4" class="st21" width="147.6" height="82.7"/>
<polyline class="st22" points="146.9,231 182.9,195 192.9,204.9 212.5,185.3 226.9,199.7 252.5,174.2 "/>
<ellipse transform="matrix(0.1602 -0.9871 0.9871 0.1602 40.996 393.245)" class="st23" cx="251.6" cy="172.5" rx="9.7" ry="9.7"/>
<circle class="st24" cx="251.6" cy="172.5" r="7.4"/>
<ellipse transform="matrix(0.1602 -0.9871 0.9871 0.1602 40.996 393.245)" class="st25" cx="251.6" cy="172.5" rx="4.4" ry="4.5"/>
<rect x="302.1" y="145.5" class="st26" width="20.9" height="93.4"/>
<rect x="302.1" y="145.5" class="st27" width="10.5" height="93.4"/>
<polygon class="st8" points="312.5,237.8 299.6,237 299.6,232.2 304.5,232.2 "/>
<polygon class="st28" points="298.9,232.9 302.5,231.7 311.8,238.8 316.9,238.8 300.3,226.2 "/>
<path class="st8" d="M262.8,226.2v8.2l-6.5,2c0,0,9.2,3.2,10.2,2.2l2.4-13.6L262.8,226.2z"/>
<path class="st29" d="M258.8,235.6c0,0-10.4,0.7-7.7,3.4h16.5v-1.7C267.6,237.3,260.4,237.3,258.8,235.6z"/>
<path class="st10" d="M300.9,237.6v-9.4c0,0,13.7-4.5,6.1-12.1L288.2,205c0,0-13.4-4.8-16.5-4.8c0,0-10.5-2.6-9.9,9.9v17.4h7
	l1.7-13.3c0,0-0.2-3.1,3.9-1.5l8.7,5.1c0,0,2,0.2,0,1.1L267.2,229c0,0-5.3,7.7,2.4,9.9L300.9,237.6z"/>
<path class="st30" d="M275.2,232.5l25.8-4.3v9.4l-31.3,1.2c-1.4-0.8-4.3-2.7-4-4.2S269.8,232.3,275.2,232.5z"/>
<path class="st8" d="M284.5,183.7c-3.8,2.5-6.8,4.4-9,5.8c-0.7,0.4-2.1,1.4-3.6,1c-0.5-0.2-1-0.4-1.4-0.8c-4-2.8-8.1-5.3-12.4-7.6
	c-0.5-0.2-1-0.6-1.4-1c-0.4-0.7-0.7-1.5-0.8-2.3c-0.6-2.7-2.1-5-4.4-6.6c-0.5,1.5,0.9,3.1,1,4.7c0.1,1.4-0.6,2.7-0.6,4
	c-0.1,0.7,0.3,1.3,0.9,1.6c0.7,0.5,1.4,0.9,2.1,1.4c2.7,1.9,5.4,3.9,8,6c1.8,1.4,3.5,2.9,5.2,4.4c1.7,1.5,3.6,3.1,5.8,2.9
	c0.8-0.1,1.7-0.3,2.4-0.7c2.2-1.1,6.3-2.6,14.1-4.8L284.5,183.7z"/>
<path class="st8" d="M288.4,177.5v-7.9c-0.2-1.3-1.2-2.4-2.6-2.6c-0.9,0-1.6-0.7-1.6-1.5c0,0,0,0,0-0.1c0,0-2-0.7,0-11.3l8.1,1.1
	l6.9,21.4L288.4,177.5z"/>
<path class="st31" d="M288.1,216c0.4,0.2,0.8,0.3,1.2,0.4c1.5,0.6,3.1,1,4.7,1.4c3.2,0.8,6.5,1.2,9.8,1.2c1.4,0,2.8,0,4.1-0.1
	c0.7,0,1.4-0.2,1.9-0.6c0.8-0.8,0.6-2.1,0.3-3.2l-3.4-12.4c-1.4-5.1-2.7-10.1-4.2-15.2c-1.3-5-3.2-9.8-5.6-14.3
	c-2.6,1.2-5.5,1.6-8.4,1l-8,11.6c2,1.7,3.9,3.5,5.6,5.4c0.2,0.1,0.3,0.3,0.3,0.6c0,0.2-0.1,0.4-0.2,0.6c-0.6,0.7-1.4,1.1-2.3,1.1
	c0.3,0.8,0.5,1.5,0.7,2.3c0.2,0.8,0.5,1.6,0.7,2.5c0.4,1.6,0.8,3.3,1.1,5c0.6,3.3,1,6.7,1.1,10.1c-0.1,0.8,0,1.5,0.1,2.3
	C287.8,215.7,287.9,215.9,288.1,216z"/>
<path class="st7" d="M302.4,190.6c3.1-1.1-1.5-30-0.8-33.1c4.3-5.4-14-12.6-16.1-4.9c0,0-5.3,2.1-1.9,5.5l1.5-3.2
	c1.4-0.6,3.1-0.2,4.1,0.9c1.3,2.4,1.4,5.3,0.8,8.4c1.3,2.2,2.6,3.8,4.3,4.3c-1,2.4-0.1,5.2,2.1,6.5
	C299.5,178.8,299.4,186.8,302.4,190.6z"/>
<path class="st7" d="M356.9,136.7c1.1,0.6,2.4,0.7,3.6,0.3c3.5-1.4,3.7-8.5,3.8-15.5c0.1-5.8-0.3-11.6-1.3-17.3
	c0.3-0.4,0.6-0.9,0.6-1.4c0.4-3.3-9.1-8.4-15.3-5.6c-1.2,0.5-2.2,1.3-3,2.2c-1.3,1.6-1.8,3.7-1.3,5.8l2.6-3.4
	c1.4-0.6,3.1-0.2,4.1,0.9c0,1.4,0.4,2.7,1.1,3.9c0.7,1.2,1.8,2.3,3,3c-1.3,1-1.8,2.7-1.3,4.3c0.3,0.8,0.8,1.4,1.5,1.9
	c0.5,0.8,1,1.7,1.4,2.7c0.6,1.2,1.1,2.4,1.5,3.5c0.3,3.3,0.3,6.6-0.1,9.9C357.5,133.4,357.2,135.1,356.9,136.7z"/>
<path class="st32" d="M229.6,225.8v-13.2c-8.8,0.7-13.1,5.1-13,13.1L229.6,225.8z"/>
<path class="st33" d="M230.4,225.6v-13c0.3,0,7.8,0.3,11.3,6.7c2.6,4.9,1.9,11-1.8,15.1L230.4,225.6z"/>
<path class="st34" d="M229.8,226.8h-13.3c0.9,7.3,7.6,12.5,14.9,11.6c2.7-0.3,5.3-1.5,7.3-3.3L229.8,226.8z"/>
<rect x="183" y="226.7" class="st35" width="3.1" height="6.8"/>
<rect x="188.1" y="226.7" class="st35" width="3.1" height="6.8"/>
<path class="st36" d="M178,237.9h15.2c0.4,0,0.7,0.3,0.7,0.7l0,0c0,0.4-0.3,0.7-0.7,0.7H178c-0.4,0-0.7-0.3-0.7-0.7l0,0
	C177.3,238.2,177.6,237.9,178,237.9z"/>
<path class="st37" d="M182.9,229.8c-0.4-0.4-0.5-2.1-0.6-2.7c-0.8-3.8-1.3-7.7-1.6-11.6c-0.7-7.9-0.9-15.9-2.2-23.8
	c-0.9-5.1-2.3-10.1-3.1-15.2s-1-10.4,0.4-15.4h22.7c1.9,9.5-0.7,19.3-2.2,28.9c-2.1,13-2.4,26.4-4.8,39.4l-6,0.5
	C184.8,229.8,183.4,230.2,182.9,229.8z"/>
<line class="st38" x1="187.6" y1="229.6" x2="187.5" y2="175.6"/>
<path class="st39" d="M181,232.8l-0.5,0.1c-0.4,0-0.8,0.2-1.1,0.4c-0.4,0.3-0.6,0.8-0.7,1.3c-0.6,2.3,1,3.5,3.1,3.7
	c1.6,0.1,3.1,0.1,4.7-0.1c0.1,0,0.2,0,0.3-0.1c0.1-0.1,0.1-0.2,0.1-0.3l0.1-4.7c0-0.1,0-0.2-0.1-0.3c-0.1-0.1-0.1-0.1-0.2-0.1
	C184.7,232.5,182.9,232.5,181,232.8z"/>
<path class="st39" d="M192.5,233.9c0-0.3-0.1-0.5-0.3-0.8c-0.3-0.2-0.6-0.3-0.9-0.3c-1.3-0.2-2.7-0.2-4-0.1c-0.1,0-0.2,0-0.2,0.1
	c-0.1,0.1-0.1,0.2-0.1,0.2c-0.2,1.2-0.3,2.4-0.2,3.6c0.1,1.2,0.3,1.8,1.6,1.8l4-0.1c0.1,0,0.2,0,0.2-0.1c0.1-0.1,0.1-0.2,0.1-0.3
	C192.8,236.6,192.8,235.2,192.5,233.9z"/>
<path class="st8" d="M201.8,168.1l0.2,5.1c0,0,2.4-2,1.8,0.6l-2,2.6v1.7l3.7-3.7l0.3-1.8V167L201.8,168.1z"/>
<path class="st8" d="M168.2,103l-1.2-5.7l2.6-1.8v-3.8c0,0,0.8-0.7,1.2,3.7v7.7H168.2z"/>
<path class="st7" d="M175.2,161.8h23.3c-2.3-9.6-1.7-17.2,1-23.4c0.2,9.7,0.9,19.8,2,30.3h4.5c0.7-12.4,0.7-24.9,0-37.3
	c0,0-2.5-8-8.8-6.3l-13.4-4.3c-2-0.5-4-1.1-6-1.8c0,0-3.4-1.7-4.8-8.4c0,0-2.3-9-2.3-9.8s-2.7,0.8-2.7,0.8l1.3,16.8
	c0,0,0.4,3.1,2.6,4.4c0,0,6.2,6.4,7.1,6.4C179.5,141.2,178.7,152.4,175.2,161.8z"/>
<path class="st40" d="M181.5,131.2c0.4,3.1,1.3,8.2,2.9,6.1c0.4-0.5,0.6-1.1,1.1-1.5c0.9-0.5,2-0.2,2.6,0.6c0.6,0.8,1,1.6,1.3,2.6
	c0.3,0.6,0.7,1.3,1.4,1.4c0.7,0,1.3-0.4,1.5-1.1c0.3-0.6,0.4-1.3,0.6-1.9c0.9-2.1,3.4-3.1,5.6-2.1c0.1,0.1,0.3,0.1,0.4,0.2
	c0.5-2.4,3-3.9,3.6-6.3c0.6-2.6-1.4-5-2.5-7.5c-1.7-3.8-1.2-8.3-2.6-12.2c-0.5-1.5-1.4-2.8-2.7-3.8c-1.3-1-2.9-1.2-4.4-0.8
	c-1.3,0.6-2.3,1.6-3,2.9c-2.7,4.4-4,9.5-3.5,14.6c0.1,0.3,0,0.7-0.1,1c-0.2,0.3-0.5,0.6-0.8,0.8c-1.4,1.1-1.5,3.1-1.4,4.8
	C181.3,129.4,181.4,130.2,181.5,131.2z"/>
<path class="st41" d="M56.5,238.1c0,0-47.7-7.2-47.7-25.5S68.3,234.8,56.5,238.1z"/>
<line class="st42" x1="13.9" y1="214.9" x2="58.3" y2="235.3"/>
<line class="st42" x1="21.6" y1="213.5" x2="24.5" y2="219.8"/>
<line class="st42" x1="27.6" y1="221.2" x2="16.9" y2="221.8"/>
<line class="st42" x1="38.4" y1="226.2" x2="27.9" y2="226.9"/>
<line class="st42" x1="33.2" y1="223.8" x2="31.8" y2="218.6"/>
<line class="st42" x1="49.6" y1="231.3" x2="42.6" y2="232.5"/>
<path class="st41" d="M60.3,232c0,0-41-25.4-33.8-42.3S72.4,233.6,60.3,232z"/>
<line class="st42" x1="30.3" y1="193.8" x2="63" y2="230.1"/>
<line class="st42" x1="38" y1="195.5" x2="38.2" y2="202.5"/>
<line class="st42" x1="40.4" y1="205" x2="30.3" y2="201.3"/>
<line class="st42" x1="48.4" y1="213.8" x2="38.5" y2="210.4"/>
<line class="st42" x1="44.5" y1="209.5" x2="45.4" y2="204.2"/>
<line class="st42" x1="56.6" y1="223" x2="49.7" y2="221.3"/>
<path class="st41" d="M68.9,222.6c0,0-34.2-34-23.3-48.8S80.3,226.9,68.9,222.6z"/>
<line class="st42" x1="46.4" y1="175.8" x2="70.1" y2="218.6"/>
<line class="st42" x1="53.5" y1="179.3" x2="52.1" y2="186.1"/>
<line class="st42" x1="53.7" y1="189.1" x2="44.7" y2="183.2"/>
<line class="st42" x1="59.5" y1="199.4" x2="50.6" y2="193.8"/>
<line class="st42" x1="56.7" y1="194.4" x2="58.7" y2="189.4"/>
<line class="st42" x1="65.5" y1="210.2" x2="59.1" y2="207"/>
<rect x="69.5" y="125.6" class="st43" width="58.5" height="113.1"/>
<rect x="64.2" y="107.9" class="st13" width="64.8" height="130.5"/>
<circle class="st44" cx="60.4" cy="226.2" r="12.8"/>
<circle class="st12" cx="60.4" cy="226.2" r="12.8"/>
<g>
	<g>
		<circle class="st12" cx="60.4" cy="226.2" r="12.8"/>
	</g>
</g>
<rect x="73.6" y="131.4" class="st45" width="41.6" height="39.1"/>
<rect x="73.6" y="177.1" class="st46" width="41.6" height="39.1"/>
<polygon class="st47" points="115.2,107.9 115.2,131.4 126,131.4 126,170.5 115.2,170.5 115.2,177.1 126,177.1 126,216.2 
	115.2,216.2 115.2,238.4 129,238.4 129,107.9 "/>
<path d="M59.7,234.8v-2.1c-1.1,0-2.2-0.3-3.2-0.9l0.5-1.4c0.9,0.6,1.9,0.9,3,0.9c1.5,0,2.5-0.9,2.5-2.1s-0.8-1.9-2.4-2.5
	c-2.1-0.8-3.5-1.8-3.5-3.6c0-1.8,1.4-3.2,3.2-3.4v-2.1h1.3v2c1,0,1.9,0.3,2.7,0.7l-0.5,1.4c-0.8-0.5-1.7-0.7-2.6-0.7
	c-1.6,0-2.2,1-2.2,1.8c0,1.1,0.8,1.6,2.6,2.4c2.2,0.9,3.3,2,3.3,3.9c0,1.9-1.5,3.4-3.3,3.6v2.2L59.7,234.8z"/>
<circle class="st14" cx="72" cy="114.2" r="2"/>
<circle class="st14" cx="82.2" cy="114.2" r="2"/>
<circle class="st14" cx="93.2" cy="114.2" r="2"/>
<polygon class="st48" points="75.4,227.2 82.6,230.5 82.6,225.9 75.4,223.9 "/>
<rect x="124.2" y="229.2" class="st48" width="3.6" height="6.6"/>
<rect x="121.5" y="237.6" class="st49" width="18" height="1.5"/>
<path class="st50" d="M71.7,221.9c0,0,6.7,0.3,7.8,2.1c0,0-1.9,1.8,0,5.3c0,0-4.8,3.7-4.3,5.4l1.9,0.9c0,0-0.5,3-2.2,3
	C74.8,238.5,68.6,239.4,71.7,221.9z"/>
<path class="st39" d="M72.4,222.1l-1,11.9c0,0,0.8,3.4,2.1,3.4h2.7v1.7h-4.9c0,0-0.7-2.9-1.4-3.6l0.6-14.1L72.4,222.1z"/>
<path class="st51" d="M91.4,216l13.2-1.3c1.2,6.7,2.4,13.3,3.6,19.9l-11.7-5.4C94.9,224.8,93.1,220.4,91.4,216z"/>
<path class="st8" d="M101.9,167.3c0-0.4,0.1-0.7,0.4-0.9c0.4-0.4,0.9-0.8,1.3-1.2c0.7-1.1,1-2.4,0.8-3.7l-0.1-2.9
	c0-0.4,0-0.8,0.2-1.2c0.2-0.3,0.5-0.6,0.8-0.8c2.5-1.7,5.1-3.2,7.8-4.4c0.4-0.1,0.8-0.3,1.1,0c0.1,0.2,0.2,0.4,0.2,0.6
	c0.6,2.8,0.8,5.7,0.6,8.5c0,0.5-0.1,1.1-0.4,1.5c-0.4,0.6-1.3,0.8-2,1.1c-1.6,0.7-2.8,2.1-3.1,3.8c0,0.5-0.2,1-0.5,1.4
	c-0.5,0.4-1.2,0.5-1.8,0.3C106.1,169.3,102.1,168.8,101.9,167.3z"/>
<path class="st52" d="M88.7,207.4c7,2.7,13-1.5,20.8-5.1c0,0,1.7-17.2,2.7-17.2c0,0,3.4-11.7-2.8-15.9l-8.5-2.7c0,0-3.5,3.2-3,6.1
	C93,185,92.9,197.7,88.7,207.4z"/>
<path class="st53" d="M104.2,161.3c-1,0.2-2-2.5-2.4-3.2c-0.8-1.8-1.4-3.6-1.7-5.6c-0.3-0.9,0.1-2,1.1-2.3c0.1,0,0.3-0.1,0.4-0.1
	c2.4-0.9,5-1.2,7.5-1c1.7,0.3,3.5,0.4,5.3,0.4c1.8,0,3.4-1,4.3-2.6c0.7,1.9,0.1,4-1.5,5.2c-1.6,1.2-3.5,1.6-5.5,1.4
	c0.1,0.6-0.1,1.2-0.4,1.7c-0.1,0.2-0.3,0.3-0.4,0.4l-0.6,1.9l-0.6-0.1c-0.4-0.2-0.3-0.9-0.4-1.3c-0.2-0.5-0.8-0.8-1.3-0.7
	c-0.5,0.1-1,0.4-1.3,0.8c-0.7,0.7-1.2,1.7-1.4,2.7c-0.1,0.5-0.2,1-0.4,1.5C104.7,161.1,104.5,161.3,104.2,161.3z"/>
<path class="st54" d="M226.4,71c-0.1,0.2-0.1,0.3-0.2,0.5c-0.6,1.3-1.4,2.5-2.4,3.5c-0.8,0.8-1.8,1.5-2.6,2.4c-1,1.1-2.2,4.2,0.4,3
	c3.6-1.5,7.1-3.4,10.3-5.7c0.2-0.1,0.4-0.4,0.6-0.6c0.1-0.3,0-0.6-0.1-0.8c-0.3-1.2-0.9-2.4-1.7-3.3c-0.9-0.9-2.3-1.1-3.4-0.3
	C226.9,70,226.6,70.5,226.4,71z"/>
<path class="st55" d="M232.2,74L232.2,74c0.6,0,1.1,0.4,1.1,1l-7.1,4.4c-0.9,0.6-1.8,1.1-2.8,1.4c-0.6,0.2-4.2-0.1-2.7-0.9l10.1-5.4
	C231.2,74.2,231.7,74,232.2,74z"/>
<path class="st54" d="M252.8,70.8l0.2,0.5c0.6,1.3,1.4,2.5,2.4,3.4c0.8,0.8,1.8,1.5,2.5,2.4c1,1.1,2.3,4.1-0.4,3
	c-3.6-1.5-7.1-3.4-10.3-5.7c-0.2-0.1-0.4-0.4-0.6-0.6c-0.1-0.3,0-0.6,0.1-0.8c0.3-1.2,0.9-2.4,1.7-3.3c0.9-0.9,2.3-1.1,3.4-0.3
	C252.3,69.9,252.6,70.3,252.8,70.8z"/>
<path class="st55" d="M246.9,73.9L246.9,73.9c-0.6,0-1.1,0.5-1.1,1l7.1,4.4c0.9,0.6,1.8,1.1,2.8,1.4c0.6,0.2,4.2-0.1,2.7-0.9
	l-10.1-5.4C247.9,74.1,247.5,73.9,246.9,73.9z"/>
<path class="st56" d="M224.6,72.3h7.8c-3.6-5.8-1-15-4.8-18.9h24.8c-3.6,3.9-0.8,12.9-5.2,18.2l7.4,0.7c0.5-6.7,3.4-13.1,4.6-18.1
	c3.1-3.9,2.2-6.8-0.7-9.2c-11.7-2.9-23-3.3-33.8-0.5c-5.5,0.2-7.3,3.2-5.5,9C223.1,60.1,225.2,66.4,224.6,72.3z"/>
<path class="st8" d="M227.4,44.2c-2.3-1.4-4.1-2-4-5l0.1-12.1c1.6,0,3.3,0,4.9,0L227.4,44.2z"/>
<path class="st57" d="M251.8,45.5c2.3-1.4,4.1-2,4-5l-0.1-12.1c-1.6,0-3.3,0-4.9,0L251.8,45.5z"/>
<polygon class="st58" points="247.1,70.7 248.6,72.2 252.8,52.2 226.6,52.2 230.3,72.2 232.1,70.3 228.3,53.5 251.1,53.5 "/>
<path class="st59" d="M234.9,20.8c0.8,2.7,3.7,4.2,6.4,3.4c2.1-0.6,3.5-2.5,3.6-4.7c0,0,0.8-10.7,0-12.7s-10.8,0-10.8,0
	s-1.2,11.6,0,12.7C234.1,19.6,234.8,20.6,234.9,20.8z"/>
<path class="st60" d="M229.3,37c-0.2-0.2-0.3-0.5-0.4-0.7c-0.8-2-1-4.2-0.5-6.3c-1.9-0.1-4-0.5-5.3-1.9c-1.6-1.8-1.2-4.6-0.7-7
	c0.1-0.8,0.4-1.5,0.8-2.2c0.7-0.6,1.5-1,2.4-1.1c1.6-0.5,3.3-0.7,5.1-0.7c1.7,0,3.4,0.7,4.7,1.8c1.5,1.5,2,3.8,3.8,4.9
	c1.9-1.5,3.2-3.7,5.2-5.2c1.6-1.2,3.7-1.8,5.7-1.5c2,0.3,3.9,1.4,5,3.1c1,1.9,1.5,4,1.2,6.2c0,0.5-0.1,1-0.3,1.4
	c-0.8,1.7-3.4,0.6-4.5,2c-0.6,0.7-0.4,1.4-0.1,5c0.1,1.8,0.2,3.2,0.2,4.1c-9.1-0.5-15.6-0.9-18.2-0.8
	C232.5,38.3,230.4,38.4,229.3,37z"/>
<path d="M233.5,13.6c-0.7-0.4-0.3-3.2-0.6-3.6c-0.1-0.1-0.2-0.3-0.2-0.5c0,0,0-0.1,0-0.1V5.3c0-0.6,0-1.2,0.3-1.7
	c0.4-0.7,0.9-1.2,1.6-1.5c2-1.3,4.3-2.4,6.7-2c1.2,0.3,2.4,0.9,3.4,1.6c0.7,0.5,1.3,1.1,1.7,1.8c0.3,0.7,0.4,1.5,0.3,2.3
	c-0.1,1.7-0.2,4-0.1,7.1c-0.1-0.9-0.4-1.7-0.6-1.7s-0.7,1.3-0.7,1.1c0-1.1-0.1-2.3-0.1-3.5l-7-0.1c0-0.7-1-1-1.5-0.6
	c-0.6,0.4-0.9,1.1-1.1,1.8c-0.6,1.7-0.2,2.6-0.9,3.3C234.3,13.4,233.8,13.8,233.5,13.6z"/>
<path class="st59" d="M245.1,14c0,0,0.4-4.1,1.3-1.9c0,0,0.3,2.9-0.3,3.5C246.2,15.5,245.5,15.6,245.1,14z"/>
<path class="st61" d="M245.3,13.4c0,0,0.2-3,0.7-1.4c0.1,0.9,0,1.7-0.1,2.6C245.8,14.5,245.5,14.6,245.3,13.4z"/>
<path class="st59" d="M233.9,15.6c0,0-1.3,0.3-1.3-1.4c0,0-0.2-4.1,1-2.1"/>
<path class="st61" d="M232.9,14c0,0,0.2-3,0.7-1.4c0.1,0.9,0,1.7-0.1,2.6C233.4,15.1,233,15.2,232.9,14z"/>
<path class="st62" d="M245.1,17.7c-3.9,3-7.8,3.2-11.4,0"/>
<polygon class="st63" points="226.3,34.6 252,34.6 251.5,48.5 226.6,48.5 "/>
<path class="st64" d="M238.4,39.2h1.5c1.3,0,2.4,1.1,2.4,2.4v0c0,1.3-1.1,2.4-2.4,2.4h-1.5c-1.3,0-2.4-1.1-2.4-2.4v0
	C236,40.3,237.1,39.2,238.4,39.2z"/>
<path class="st64" d="M125.4,94.5c0.4,0,0.8,0.2,1,0.5c0.8,1.1-2.1,3.4-2.7,4.1l-4.4,4.9c-0.5-0.7-0.2-1.6,0.2-2.4
	c0.6-1.2,1.2-2.3,1.9-3.5c0.7-1.2,1.5-2.3,2.6-3.1c0.4-0.3,0.8-0.5,1.2-0.6L125.4,94.5z"/>
<path d="M119.5,104.4c-0.2,0-0.2-0.3-0.1-0.5c2.2-3.2,4.6-6.2,7.3-9c0,0-0.1,0.7-0.1,0.9c-0.2,0.4-0.5,0.7-0.8,1
	c-0.7,0.8-1.4,1.7-2.1,2.5L119.5,104.4z"/>
<path class="st64" d="M115.3,102c2.7,1.3-2.8,2.8-3.6,3.1c-2.2,0.6-4.3,1.4-6.4,2.2c-0.1-0.8,0.7-1.5,1.4-1.9
	c1.1-0.8,2.2-1.4,3.3-2.1c1.1-0.7,2.4-1.2,3.7-1.5C114.2,101.7,114.8,101.7,115.3,102L115.3,102z"/>
<path d="M105.4,107.8c-0.1-0.1-0.1-0.2-0.1-0.4c1.8-0.9,3.6-1.7,5.4-2.4c1.4-0.6,4-2.2,5.6-2c-0.2,0.8-1.9,1.2-2.6,1.5L105.4,107.8z
	"/>
<path class="st65" d="M109.4,33.2c-0.8,7.1-1.7,14.1-2.6,21.2c0,0.4-0.3,3.2-0.9,2.7c-0.1-0.1-0.2-0.3-0.2-0.4
	c-0.5-1.9-0.7-3.9-0.5-5.8c0.1-2.3,0.3-4.7,0.6-7c0.4-3.6,0.9-7.2,1.4-10.7L109.4,33.2z"/>
<path class="st66" d="M115.1,103.1c0.7-8.7,5.3-18.1,2.7-22.9c2.1-6,3.2-14,4-22.6l-14.9-3.3c-2.5,7.1-4.4,13.7-4.9,19
	c-0.5,4.2,0.2,6.4,1.4,7.6l17.3,17.3c2-0.8,3.8-2.2,5-4c-7.8-5.4-11.3-17.6-17.1-18.1c0.2-2.6,1-5.1,2.4-7.3c1,2.3,1.5,4.8,1.4,7.4
	l-1.6,26.2C112.1,103.1,113.6,103.4,115.1,103.1z"/>
<path class="st67" d="M118.3,85.5c0,0-1.5,8.6-1.9,9l-4.7-4.7l0.9-14.3L118.3,85.5z"/>
<path class="st8" d="M122.2,26.3c0,0-6.3,4.1-7.1,3.3l-0.5-5h-1.8c-0.2-0.3-0.3-0.7-0.5-1c-0.7-1.3-1.4-2.7-2.1-3.9l-0.7-5.9l10.2-1
	l0.5,7.6L122.2,26.3z"/>
<path class="st68" d="M122.6,57.9c-0.3,0.2-1.3-0.2-1.7-0.2l-2.1-0.4l-4.1-0.8c-0.7-0.1-8.2-1.5-8.2-1.5c1.4-6.6,2.2-13.3,2.4-20
	c0-0.2,0-0.3,0-0.3l-2.1,0.4c0-1.3,0-5.2,2.5-7.5c0.1-0.1,0.1,0,3.4-1.5c0.9-0.4,1.6-0.7,2-0.4s0.1,0.4,0.1,1s0.1,1.4,0.4,1.7
	c0.8,0.6,2.5-0.3,4-1.3c1.2-0.8,2.2-1.8,3.4-2.6c3.1,1.8,5,5.1,5.1,8.7c-0.1,3.3-2.2,6.3-3.4,9.4c-0.9,2.4-1.4,5-1.6,7.6
	c-0.1,1.3-0.1,2.6-0.1,3.9c0,0.7,0,1.3,0,2C122.6,56.4,122.8,57.6,122.6,57.9z"/>
<rect x="101.3" y="33.9" transform="matrix(0.382 -0.9241 0.9241 0.382 29.5308 117.9679)" class="st69" width="3.3" height="6"/>
<path class="st70" d="M126,38.5l-4.5-1.5l-2.9,4.6c0,0-0.6,2-1.3,1.3l-9.3-2.1l-1.4-3.8c0,0-1.4-0.4-0.7,2.3l-6.4-2.3
	c0,0-1.2,0.5,2,2v2.8l3.8,2h1.1l10.2,4c0,0,3.7,1.4,4.5-0.7L126,38.5z"/>
<polygon class="st68" points="126.3,37.8 125.7,39.1 121.1,37.6 121.9,36.3 "/>
<path class="st71" d="M109.9,15c0,0-3-1.8,0.4-3.1c0,0,3.8-2.9,6.7-2.7l1.7-0.4l1.4,0.5c1.5,1.1,2.7,2.5,3.7,4.1
	c5.6,9-0.3,20.6-0.9,21.9l-3.9-3.3c1.2-2.7,1.5-5.6,0.8-8.5c-0.3-1.2-0.8-2.4-1.5-3.5c0.1-0.2,2.1-3.6,1.1-4.5
	c-0.2-0.1-0.6-0.3-1.7,0.1l-1.1-2.8L109.9,15z"/>
<rect x="139.5" y="184.3" class="st72" width="25.3" height="5.6"/>
<polyline class="st72" points="155.8,204.7 164.8,204.7 164.8,199.1 157.8,199.1 152.1,199.1 139.5,199.1 139.5,204.7 150.1,204.7 
	"/>
<rect x="138" y="205.7" class="st72" width="25.3" height="5.6"/>
<rect x="138" y="212.4" class="st72" width="25.3" height="5.6"/>
<rect x="136.7" y="219" class="st72" width="25.3" height="5.6"/>
<rect x="138" y="225.6" class="st72" width="25.3" height="5.6"/>
<rect x="138" y="232.3" class="st72" width="25.3" height="5.6"/>
<rect x="110.1" y="232.3" class="st72" width="25.3" height="5.6"/>
<rect x="109.1" y="225.6" class="st72" width="25.3" height="5.6"/>
<rect x="109.1" y="219" class="st72" width="25.3" height="5.6"/>
<polygon class="st73" points="146,232.3 144,237.9 138.3,237.9 140.3,232.3 "/>
<polygon class="st73" points="148.4,225.6 146.4,231.3 140.7,231.3 142.7,225.6 "/>
<polygon class="st73" points="150.7,219 148.7,224.6 143,224.6 145,219 "/>
<polygon class="st73" points="153.1,212.4 151.1,218 145.4,218 147.4,212.4 "/>
<polygon class="st73" points="155.4,205.7 153.4,211.3 147.8,211.3 149.8,205.7 "/>
<polygon class="st73" points="157.8,199.1 155.8,204.7 150.1,204.7 152.1,199.1 "/>
<polygon class="st73" points="163.1,184.3 161.1,189.9 155.4,189.9 157.4,184.3 "/>
<path class="st10" d="M80.6,229.6c0.1,0.2,0.2,0.5,0.3,0.6c1.7,1.6,4.7,2.6,6.7,3.7c3.3,1.9,6.8,3.8,10.5,4.4c2.5,0.3,5,0.3,7.5,0
	c0.5,0,0.9-0.1,1.4-0.4c0.9-0.6,0.9-1.8,0.8-2.9c-0.6-6.9-1.2-13.8-3.1-20.4l17.5-4.5c0.6-0.1,1.3-0.1,1.4,0.4
	c0,0.3-0.1,0.5-0.3,0.7c-1.1,2-1.5,4.3-1.4,6.6c0,3.9,0.5,7.8,1.4,11.6c0,0.4,0.2,0.7,0.5,0.9c0.3,0.1,0.6,0.2,0.9,0.2l4.4,0.3
	l2.6-19.1c0.4-2.6,0.7-5.4-0.7-7.6c-1.2-1.8-3.1-3-5.2-3.4c-2.1-0.4-4.2-0.4-6.4-0.2l-26.5,1.5c-0.2,0-0.4,0-0.6,0.1
	c-0.3,0.2-0.5,0.4-0.6,0.7c-2.3,3.9-1.8,8.9-0.3,13.1s3.8,8.2,5.1,12.5c0.1,0.2,0.1,0.5,0.1,0.7c-0.2,0.6-1.1,0.5-1.6,0.3l-14.7-5.1
	C79.9,224.3,80.1,228,80.6,229.6z"/>
<path class="st50" d="M121.6,238.1l18-0.5l-10.1-4.3h-2L124,232C124,232,119.3,231.8,121.6,238.1z"/>
<path class="st8" d="M106.2,181.5c0.2,1,5,4.5,5.8,5.2c2,2,4.4,3.5,7,4.4c2.8,0.8,5.8,0.4,8.6,0.1c4.2-0.4,8.4-0.7,12.7-0.7
	c1.2,0.1,2.3,0,3.4-0.4c0.7-0.3,1.4-0.7,2-1.2c1.2-1.1,2-3,1-4.2l-4.8,1.7c-0.4,0.2-0.8,0.2-1.2,0c-0.3-0.3-0.4-0.8-0.1-1.1
	c0.2-0.3,0.5-0.6,0.9-0.8c-0.8-0.7-2-0.7-2.8,0.1c-0.7,0.8-1.1,1.7-1.3,2.8c-4.9-1.2-10.1-0.4-14.8-2c-4.4-1.5-7.8-4.9-11.7-7.4
	c-0.2-0.2-0.5-0.3-0.7-0.3c-0.2,0.1-0.4,0.2-0.5,0.3l-3.1,2.8c-0.2,0.2-0.4,0.4-0.5,0.7C106.2,181.4,106.2,181.5,106.2,181.5z"/>
<path class="st10" d="M347.7,120c0,0,4.1,3.2,7.6,0.4l0.8,4.6c0,0-5.4,2.3-8.8,1.1S347.7,120,347.7,120z"/>
</svg>
