<svg id="Layer_1" data-name="Layer 1" xmlns="http://www.w3.org/2000/svg" viewBox="0 0 292.13 374.79"><defs><style>.cls-1{fill:#336;}.cls-2{fill:#699;}.cls-3{fill:#ccc;}.cls-4{fill:#99c;}.cls-5{fill:#3f6;}.cls-6{fill:#66c;}.cls-7{fill:#666;}</style></defs><title>Untitled-2</title><path class="cls-1" d="M191.22,345.16a15.42,15.42,0,0,1-18.17,3.23,14,14,0,0,1-1.62-.95,14.82,14.82,0,0,1-1.94-1.53L148.68,326.5l-.68-.64-22.62-21.12L124,303.47l-22.63-21.12L98,279.16,75.35,258.05,74,256.76l-22.62-21.1-.48-.46L28.25,214.09l-1.57-1.46L4.06,191.52l18.5-24.81,22.62,21.11,1.57,1.47L69.37,210.4l.48.45L92.47,232l1.37,1.28,22.62,21.12,3.43,3.19,22.62,21.12,1.37,1.27,22.62,21.12.68.63,22.62,21.12.67.62c.24.22.46.45.68.68A15.41,15.41,0,0,1,191.22,345.16Z" transform="translate(-4.06 -15.76)"/><polygon class="cls-1" points="123.76 337.16 105.27 361.96 82.65 340.85 55.23 315.26 32.61 294.15 28.15 289.99 10.21 273.25 8.13 271.31 26.63 246.5 27.12 246.95 49.73 268.06 51.11 269.35 73.73 290.46 77.15 293.65 99.76 314.76 101.14 316.04 123.76 337.16"/><polygon class="cls-1" points="143.38 310.85 124.89 335.65 102.27 314.54 100.9 313.26 78.27 292.15 74.85 288.95 52.23 267.84 50.86 266.56 28.24 245.45 27.76 245 5.14 223.88 3.57 222.42 22.06 197.62 23.63 199.08 46.25 220.2 46.73 220.65 69.35 241.76 70.73 243.04 93.35 264.15 96.77 267.35 119.39 288.46 120.76 289.74 143.38 310.85"/><rect class="cls-1" x="149.18" y="-2.93" width="30.75" height="284.4" rx="15.38" transform="translate(-53.6 148.79) rotate(-46.98)"/><rect class="cls-2" x="109.64" y="48.12" width="30.75" height="284.4" rx="15.38" transform="translate(-103.48 136.1) rotate(-46.98)"/><rect class="cls-3" x="98.54" y="20.96" width="30.75" height="313.03" rx="15.38" transform="translate(124.63 -48.66) rotate(36.71)"/><rect class="cls-4" x="107.8" y="63.11" width="30.75" height="313.03" rx="15.38" transform="translate(151.67 -45.83) rotate(36.71)"/><path class="cls-5" d="M155.18,40.31l-10.8,14.48L125.88,79.6l-1.11,1.49h0l-18.5,24.8-.56.75-18.5,24.8L86.09,133l-18.5,24.8-2.8,3.76L46.3,186.32l-1.12,1.5-18.5,24.81L4.06,191.52l18.5-24.81,1.19-1.6,17.87-24,3.35-4.5,18.5-24.8,4.65-6.24,9.72-13,5.81-7.79L102.14,60l1.12-1.5L121.67,33.8l8.85-11.87a15.38,15.38,0,0,1,24.66,18.38Z" transform="translate(-4.06 -15.76)"/><path class="cls-6" d="M171.33,73.67l-2.76,3.7-18.49,24.8-1.12,1.5-18.5,24.81-.56.75L111.41,154l-1.13,1.51-18.5,24.8L89,184.1,70.49,208.9l-1.12,1.5-18.5,24.8-.56.76-18.49,24.8-1.13,1.5L8.07,241.15l1.13-1.51,18.49-24.8.56-.75,18.5-24.8,1.12-1.5L66.36,163l2.8-3.76,18.5-24.81,1.12-1.5,18.5-24.8.56-.75,18.5-24.81,1.11-1.5L146,56.26l.73-1a15.38,15.38,0,1,1,24.65,18.39Z" transform="translate(-4.06 -15.76)"/><path class="cls-6" d="M289,189.78l-18.5,24.8-1.22,1.63-17.77,23.84-1.18,1.58-18.5,24.8-1.36,1.83-17.34,23.26-3.72,5-18.5,24.8-1.12,1.51-18.37,24.63-11.78,15.8A15.38,15.38,0,1,1,135,344.85l13.68-18.35,18.5-24.81,1.12-1.5,18.5-24.8,2.8-3.76,18.5-24.81,1.12-1.5,18.49-24.8.57-.76L246.77,195l1.12-1.5,18.49-24.8Z" transform="translate(-4.06 -15.76)"/><path class="cls-6" d="M191.15,324.11a15.37,15.37,0,0,1-18.1,24.28Z" transform="translate(-4.06 -15.76)"/><path class="cls-5" d="M296.19,234.7,274.33,264l-18.5,24.8-22.56,30.26-17.64,23.66a15.1,15.1,0,0,1-5.11-3.15l-18.23-17,18.5-24.8L215.1,292l16.4-22,1.71-2.3,18.5-24.8,1.67-2.25,17-22.84,1.47-2,15.93,14.86A15.31,15.31,0,0,0,296.19,234.7Z" transform="translate(-4.06 -15.76)"/><rect class="cls-6" x="160.88" y="51.17" width="30.75" height="313.03" rx="15.38" transform="translate(155.06 -79.93) rotate(36.71)"/><path class="cls-7" d="M273.11,158.09,265.7,168l-18.49,24.81-1.12,1.49-18.5,24.81-.56.75-18.49,24.8-1.12,1.5L188.91,271l-2.8,3.75-18.49,24.8-1.12,1.51L148,325.86l-.56.75L129,351.41l-1.13,1.51-18.49,24.8-5,6.66A15.38,15.38,0,1,1,79.71,366l7-9.38L105.2,331.8l1.13-1.5,18.49-24.8.56-.76,18.5-24.8,1.12-1.5,18.49-24.8,2.8-3.76,18.5-24.81,1.13-1.5,18.49-24.8L205,198l18.5-24.8,1.12-1.5,18.49-24.8,5.38-7.21a15.39,15.39,0,0,1,12.36-6.16,15.22,15.22,0,0,1,9.15,3A15.43,15.43,0,0,1,273.11,158.09Z" transform="translate(-4.06 -15.76)"/><path class="cls-1" d="M290.38,191.05l-18.5,24.81-1.37-1.28-22.62-21.12-.68-.63-22.62-21.12-1.37-1.27-22.63-21.12-3.42-3.2L174.55,125l-1.37-1.27-22.62-21.12-.48-.45L127.45,81.06l-1.57-1.46L103.26,58.48l-.89-.83a15.38,15.38,0,0,1,19.3-23.85,15.58,15.58,0,0,1,1.69,1.37l21,19.62L146,56.26l22.62,21.11.49.45,22.62,21.11,1.36,1.28,22.62,21.11,3.43,3.2,22.62,21.11,1.37,1.28L265.7,168l.68.64L289,189.78Z" transform="translate(-4.06 -15.76)"/><path class="cls-1" d="M232.25,338.84a15.42,15.42,0,0,1-16.62,3.9,15.1,15.1,0,0,1-5.11-3.15l-18.23-17-1.37-1.28L168.3,300.19l-.68-.64L145,278.44l-1.37-1.28L121,256.05l-3.43-3.2L95,231.74l-1.37-1.28L71,209.35l-.48-.45L47.87,187.79l-1.57-1.47-21.22-19.8a16,16,0,0,1-1.33-1.41,15.37,15.37,0,0,1,17.87-24A15.21,15.21,0,0,1,46.06,144l18.73,17.48L66.36,163,89,184.1l.49.45,22.61,21.11,1.38,1.28,22.62,21.11,3.42,3.2,22.62,21.11,1.37,1.28,22.62,21.11.69.64,22.62,21.11,1.37,1.28,20.71,19.33a14.26,14.26,0,0,1,1.77,2A15.43,15.43,0,0,1,232.25,338.84Z" transform="translate(-4.06 -15.76)"/><rect class="cls-6" x="160.77" y="48.23" width="30.75" height="284.4" rx="15.38" transform="translate(-87.31 173.52) rotate(-46.98)"/></svg>