<?xml version="1.0" encoding="utf-8"?>
<!-- Generator: Adobe Illustrator 23.0.0, SVG Export Plug-In . SVG Version: 6.00 Build 0)  -->
<svg version="1.1" id="Layer_35" xmlns="http://www.w3.org/2000/svg" xmlns:xlink="http://www.w3.org/1999/xlink" x="0px" y="0px"
	 viewBox="0 0 210 189.1" style="enable-background:new 0 0 210 189.1;" xml:space="preserve">
<style type="text/css">
	.st0{fill:#69D6F4;}
	.st1{fill:#FF9811;}
	.st2{fill:#C0AB91;}
	.st3{fill:#FFDAAA;}
	.st4{fill:#FFDA44;}
	.st5{fill:#898890;}
	.st6{fill:#ACABB1;}
	.st7{fill:#2D2D30;}
</style>
<title>flag-edited</title>
<path class="st0" d="M-0.1,2.6C18.2,8.2,32.5,8.1,42,7c16.6-1.9,20.6-7,35.2-5.8c16.5,1.4,18.3,8.4,33,8.2
	c15.4-0.2,15.5-7.8,31.3-9.2c18.2-1.5,23.7,8.2,44.2,7.7c8.3-0.3,16.5-2.1,24.2-5.3v186.6h-210c15.5-14,18.4-24.5,17.4-32
	C15.6,143.6,1,140.1,1,127.2c0-13.8,16.8-17.1,16.7-31c-0.1-13-15.1-15.6-15.4-28.9C2.1,54.3,16,50.7,18,37
	C19,29.8,16.9,18.6-0.1,2.6z"/>
<path class="st1" d="M157.6,81.9h-10.8V68.4h10.8V81.9z"/>
<path class="st2" d="M149.5,103.5h27v75.6h-27v-10.8V103.5z"/>
<path class="st3" d="M76.6,125.1c-3,0-5.4-2.4-5.4-5.4v-5.4c0-3,2.4-5.4,5.4-5.4H109V87.3c0-3,2.4-5.4,5.4-5.4h5.4
	c3,0,5.4,2.4,5.4,5.4l2.7,10.8l10.8,10.8h10.8v59.4l-16.2,5.4H82c-3,0-5.4-2.4-5.4-5.4v-5.4c0-3,2.4-5.4,5.4-5.4h-2.7
	c-3,0-5.4-2.4-5.4-5.4v-5.4c0-3,2.4-5.4,5.4-5.4c-3,0-5.4-2.4-5.4-5.4v-5.4c0-3,2.4-5.4,5.4-5.4L76.6,125.1z"/>
<path class="st4" d="M136.9,63c-3-8.4,1.4-17.7,9.9-20.7c8.4-3,17.7,1.4,20.7,9.9c3,8.4-1.4,17.7-9.9,20.7c-3.5,1.3-7.3,1.3-10.8,0
	C142.2,71.2,138.6,67.6,136.9,63z"/>
<path class="st5" d="M90.1,22.6h10.8v10.7H90.1v-8V22.6z"/>
<path class="st6" d="M100.9,33.3v75.6H90.1V33.3H100.9z"/>
<path class="st4" d="M90.1,25.3v32.4H33.4l16.2-16.2L33.4,25.3H90.1z"/>
<path class="st7" d="M31.5,55.7c-0.5,0.5-0.8,1.2-0.8,1.9c0,1.5,1.2,2.7,2.7,2.7h54v45.9H76.6c-4.5,0-8.1,3.6-8.1,8.1v5.4
	c0,2.8,1.4,5.4,3.8,6.8c-0.7,1.2-1.1,2.6-1.1,4v5.4c0,2,0.8,3.9,2.1,5.4c-1.3,1.5-2.1,3.4-2.1,5.4v5.4c0,2.8,1.4,5.4,3.8,6.8
	c-0.7,1.2-1.1,2.6-1.1,4v5.4l0,0c0,4.5,3.6,8.1,8.1,8.1h51.3c0.3,0,0.6,0,0.9-0.1l12.7-4.2v7c0,1.5,1.2,2.7,2.7,2.7h27
	c1.5,0,2.7-1.2,2.7-2.7v-75.6c0-1.5-1.2-2.7-2.7-2.7h-27c-1.5,0-2.7,1.2-2.7,2.7v2.7h-7l-9.5-9.5l-2.4-9.8c-0.2-4.3-3.8-7.7-8.1-7.7
	h-5.4l0,0c-4.5,0-8.1,3.6-8.1,8.1v18.9h-2.7V22.5c0-1.5-1.2-2.7-2.7-2.7H90.1c-1.5,0-2.7,1.2-2.7,2.7h-54c-0.7,0-1.4,0.3-1.9,0.8
	c-1,1.1-1,2.8,0,3.8l14.3,14.3L31.5,55.7z M98.2,25.3v5.4h-5.4v-5.4C92.8,25.3,98.2,25.3,98.2,25.3z M98.2,106.2h-5.4V36.1h5.4
	V106.2z M152.2,106.2h21.6v70.2h-21.6V106.2z M76.6,111.6h40.5v-5.4h-5.4V87.3c0-1.5,1.2-2.7,2.7-2.7h5.4c1.5,0,2.7,1.2,2.7,2.7
	c0,0.2,0,0.4,0.1,0.7l2.7,10.8c0.1,0.5,0.4,0.9,0.7,1.3l10.8,10.8c0.5,0.5,1.2,0.8,1.9,0.8h8.1v54.8l-13.9,4.6H82
	c-1.5,0-2.7-1.2-2.7-2.7V163c0-1.5,1.2-2.7,2.7-2.7h5.4v-5.4h-8.1c-1.5,0-2.7-1.2-2.7-2.7v-5.4c0-1.5,1.2-2.7,2.7-2.7h8.1v-5.4h-8.1
	l0,0c-1.5,0-2.7-1.2-2.7-2.7v-5.4c0-1.5,1.2-2.7,2.7-2.7h10.8v-5.4H76.6c-1.5,0-2.7-1.2-2.7-2.7v-5.4
	C73.9,112.8,75.2,111.6,76.6,111.6z M40,54.9l11.6-11.6c1.1-1.1,1.1-2.8,0-3.8L40,27.9h47.4v27H40z"/>
<path class="st7" d="M154.9,36h-5.4v-5.4h5.4V36z"/>
<path class="st7" d="M165.3,40.3l-4.7-2.7l2.7-4.7l4.7,2.7L165.3,40.3z"/>
<path class="st7" d="M172.3,49.2l-2.7-4.7l4.7-2.7l2.7,4.7L172.3,49.2z"/>
<path class="st7" d="M179.2,60.3h-5.4v-5.4h5.4V60.3z"/>
<path class="st7" d="M174.2,73.5l-4.7-2.7l2.7-4.7l4.7,2.7L174.2,73.5z"/>
<path class="st7" d="M130.2,73.5l-2.7-4.7l4.7-2.7l2.7,4.7L130.2,73.5z"/>
<path class="st7" d="M130.6,60.3h-5.4v-5.4h5.4V60.3z"/>
<path class="st7" d="M132.2,49.2l-4.7-2.7l2.7-4.7l4.7,2.7L132.2,49.2z"/>
<path class="st7" d="M139.1,40.3l-2.8-4.7l4.7-2.7l2.8,4.7L139.1,40.3z"/>
<path class="st7" d="M157.6,84.6c1.5,0,2.7-1.2,2.7-2.7v-7.2c3.9-1.9,7.1-5,9-9c4.5-9.4,0.5-20.7-9-25.2s-20.7-0.5-25.2,9
	s-0.5,20.7,9,25.2v7.2c0,1.5,1.2,2.7,2.7,2.7H157.6L157.6,84.6z M149.5,76.3c1.8,0.3,3.6,0.3,5.4,0v2.9h-5.4V76.3z M160.3,68.3v-8
	h-5.4v10.6c-1.8,0.4-3.6,0.4-5.4,0V60.3h-5.4v8.1c-3.4-2.6-5.4-6.6-5.4-10.9c0-7.5,6.1-13.5,13.6-13.4c7.5,0,13.5,6.1,13.4,13.6
	C165.7,61.8,163.7,65.8,160.3,68.3z"/>
</svg>
