<svg height="512" viewBox="0 0 64 64" width="512" xmlns="http://www.w3.org/2000/svg"><circle cx="32" cy="32" fill="#006468" r="27"/><circle cx="32" cy="32" fill="#009698" r="23"/><path d="m3 43h6v18h-6z" fill="#003f8a"/><path d="m55 3h6v18h-6z" fill="#003f8a"/><path d="m37 47h-8a2 2 0 0 1 0 4 1.987 1.987 0 0 1 .62 3.88h-.01a2.176 2.176 0 0 1 -.72.12h-1.89a2 2 0 0 1 1.97 2.34 1.927 1.927 0 0 1 -.98 1.36 2.115 2.115 0 0 1 -1.1.3h-17.89v-14h4.03a2.006 2.006 0 0 0 1.97-2v-4.5a2.5 2.5 0 1 1 5 0v3.5a1 1 0 0 0 1 1h15.89a2.072 2.072 0 0 1 2.08 1.66 2 2 0 0 1 -1.97 2.34z" fill="#ffdaaa"/><path d="m55 5v14h-4.03a2.006 2.006 0 0 0 -1.97 2v4.5a2.5 2.5 0 1 1 -5 0v-3.5a1 1 0 0 0 -1-1h-15.89a2.072 2.072 0 0 1 -2.08-1.66 2 2 0 0 1 1.97-2.34h8a2 2 0 0 1 0-4 1.987 1.987 0 0 1 -.62-3.88h.01a2.176 2.176 0 0 1 .72-.12h1.89a2 2 0 0 1 -1.97-2.34 1.927 1.927 0 0 1 .98-1.36 2.115 2.115 0 0 1 1.1-.3z" fill="#ffdaaa"/><g fill="#ffda44"><path d="m31 35h2v4h-2z"/><path d="m31 25h2v4h-2z"/><path d="m35 31h4v2h-4z"/><path d="m25 31h4v2h-4z"/></g><path d="m2 31h11v2h-11z" fill="#ff6243"/><path d="m31 55h2v7h-2z" fill="#ff6243"/><path d="m51 31h11v2h-11z" fill="#ff6243"/><path d="m31 2h2v7h-2z" fill="#ff6243"/><circle cx="32" cy="32" fill="#ff5023" r="4"/></svg>