<svg id="Layer_1" data-name="Layer 1" xmlns="http://www.w3.org/2000/svg" viewBox="0 0 198.87 186.24"><defs><style>.cls-1{fill:#69d6f4;}.cls-2{fill:#006468;}.cls-3{fill:#009698;}.cls-4{fill:#003f8a;}.cls-5{fill:#ffdaaa;}.cls-6{fill:#ffda44;}.cls-7{fill:#ff6243;}.cls-8{fill:#ff5023;}</style></defs><title>focus-edited</title><path class="cls-1" d="M224.5,162.5c.9,13.51-15.45,20.07-12.5,29.5,2.23,7.14,11.91,4.39,21.5,14.5,9.93,10.47,5.54,19.73,14,25,9.12,5.68,16.05-4,29,0C292.62,236.44,293,254.78,306,256c8.51.79,9.09-6.95,24-11,15.69-4.26,22.91,2.18,30-4,6.68-5.82,2-13.06,9-20,8.53-8.49,20.47-2.61,24.5-9.5,3.9-6.66-7-13.36-5-27,.83-5.72,2.71-5.95,11.5-23,9.41-18.25,9-21.32,8.5-23-2.48-8.88-13.54-6.93-19-17-6.59-12.16,3.61-25.95-2-30-5-3.58-13.07,7.09-23,4s-9.07-16-18-18c-9.24-2.12-15,11.22-24,9-8.4-2.08-7.62-14.67-15.5-16.5s-11.12,10-26.5,16.5c-15.9,6.72-23.81-1.06-32.5,6.5s-2.45,16.81-11.5,27.5c-10.05,11.87-24.63,8.6-26.5,16.5C208.06,145.22,223.64,149.61,224.5,162.5Z" transform="translate(-209.83 -69.81)"/><circle class="cls-2" cx="99.67" cy="90.69" r="52.65"/><circle class="cls-3" cx="99.67" cy="90.69" r="44.85"/><path class="cls-4" d="M253,182h11.7v35.1H253Z" transform="translate(-209.83 -69.81)"/><path class="cls-4" d="M354.35,104h11.7v35.1h-11.7Z" transform="translate(-209.83 -69.81)"/><path class="cls-5" d="M319.25,189.75h-15.6a3.9,3.9,0,1,1,0,7.8,3.88,3.88,0,0,1,1.21,7.57h0a4.46,4.46,0,0,1-1.4.23h-3.69a3.91,3.91,0,0,1,3.9,3.9,3.68,3.68,0,0,1-.06.66,3.77,3.77,0,0,1-1.91,2.66,4.15,4.15,0,0,1-2.14.58H264.65v-27.3h7.86a3.91,3.91,0,0,0,3.84-3.9v-8.77a4.88,4.88,0,1,1,9.75,0V180a2,2,0,0,0,1.95,1.95h31a4,4,0,0,1,4,3.24,3.89,3.89,0,0,1-3.18,4.5A3.68,3.68,0,0,1,319.25,189.75Z" transform="translate(-209.83 -69.81)"/><path class="cls-5" d="M354.35,107.85v27.3h-7.86a3.91,3.91,0,0,0-3.84,3.9v8.78a4.88,4.88,0,0,1-9.75,0V141a2,2,0,0,0-1.95-1.95H300a4,4,0,0,1-4-3.24,3.89,3.89,0,0,1,3.18-4.5,3.68,3.68,0,0,1,.66-.06h15.6a3.9,3.9,0,0,1,0-7.8,3.88,3.88,0,0,1-1.21-7.57h0a4.46,4.46,0,0,1,1.4-.23h3.69a3.91,3.91,0,0,1-3.9-3.9,3.68,3.68,0,0,1,.06-.66,3.77,3.77,0,0,1,1.91-2.66,4.15,4.15,0,0,1,2.14-.58Z" transform="translate(-209.83 -69.81)"/><path class="cls-6" d="M307.55,166.35h3.9v7.8h-3.9Z" transform="translate(-209.83 -69.81)"/><path class="cls-6" d="M307.55,146.85h3.9v7.8h-3.9Z" transform="translate(-209.83 -69.81)"/><path class="cls-6" d="M315.35,158.55h7.8v3.9h-7.8Z" transform="translate(-209.83 -69.81)"/><path class="cls-6" d="M295.85,158.55h7.8v3.9h-7.8Z" transform="translate(-209.83 -69.81)"/><path class="cls-7" d="M251,158.55h21.45v3.9H251Z" transform="translate(-209.83 -69.81)"/><path class="cls-7" d="M307.55,205.35h3.9V219h-3.9Z" transform="translate(-209.83 -69.81)"/><path class="cls-7" d="M346.55,158.55H368v3.9H346.55Z" transform="translate(-209.83 -69.81)"/><path class="cls-7" d="M307.55,102h3.9v13.65h-3.9Z" transform="translate(-209.83 -69.81)"/><circle class="cls-8" cx="99.67" cy="90.69" r="7.8"/></svg>