<svg id="Layer_1" data-name="Layer 1" xmlns="http://www.w3.org/2000/svg" viewBox="0 0 136.58 189.8"><defs><style>.cls-1{fill:#f8ec7d;}.cls-2{fill:#f7caa5;}.cls-3{fill:#cc7350;}.cls-4{fill:#e48e66;}.cls-5{fill:#63316d;}</style></defs><title>right-edited</title><path class="cls-1" d="M240.58,141.36a39.59,39.59,0,0,1-15.34,0l-.44-.09a39.45,39.45,0,1,1,16.22,0Z" transform="translate(-139 -60)"/><path class="cls-2" d="M263.54,160.45v.32c0,8.91-4.41,16.14-13.32,16.14h-9.64V160.45Z" transform="translate(-139 -60)"/><path class="cls-2" d="M254.15,196.78v0a8.47,8.47,0,0,1,0,16.94h.25a8.22,8.22,0,0,1,0,16.44h-3.74a8.18,8.18,0,0,1,0,16.36H226.71a79.79,79.79,0,0,1-12.55-.73,30.77,30.77,0,0,1-11.59-4.1,45.78,45.78,0,0,0-24.15-6.88h-6.78V179.92H179A22.82,22.82,0,0,0,191,176c3-1.89,1.85-15.53,15.51-15.53h18.69v21h29.69a7.69,7.69,0,0,1,0,15.38Z" transform="translate(-139 -60)"/><path class="cls-3" d="M240.58,176.91v4.49H225.24v-40a39.59,39.59,0,0,0,15.34,0Z" transform="translate(-139 -60)"/><path class="cls-4" d="M171.64,234.85v9.54H142.22V169.13h29.42Z" transform="translate(-139 -60)"/><path class="cls-5" d="M275.58,102.67A42.67,42.67,0,1,0,222,143.92v13.31H206.55c-12,0-14.92,8.88-16.5,13.65a20.54,20.54,0,0,1-1,2.51c-3.62,2.22-6.93,3.31-10.1,3.31h-4.14v-7.57a3.22,3.22,0,0,0-3.22-3.22H142.22a3.22,3.22,0,0,0-3.22,3.22v75.26a3.23,3.23,0,0,0,3.22,3.23h29.42a3.23,3.23,0,0,0,3.22-3.23v-6.32h3.56a42.6,42.6,0,0,1,22.45,6.39A33.78,33.78,0,0,0,213.65,249a83.89,83.89,0,0,0,13.06.78h23.95A11.4,11.4,0,0,0,260,231.92a11.69,11.69,0,0,0,2.45-1.85,11.42,11.42,0,0,0-.22-16.38c.05-.05.11-.09.15-.14a11.68,11.68,0,0,0,0-16.53,10.89,10.89,0,0,0-4.94-18.53c5.76-2.86,9.3-9.28,9.3-17.73v-.31a3.22,3.22,0,0,0-3.23-3.22H243.8V143.92A42.84,42.84,0,0,0,275.58,102.67Zm-38.22,75.51h-8.89V145.1a42.61,42.61,0,0,0,8.89,0Zm-40.67-75.51a36.22,36.22,0,1,1,43.63,35.46l-.31.06H240a36.65,36.65,0,0,1-14.08,0l-.09,0-.32-.06A36.36,36.36,0,0,1,196.69,102.67Zm-28.27,138.5h-23V172.35h23Zm91-52.08a4.47,4.47,0,0,1-4.47,4.47h-7.08a2.38,2.38,0,0,0-.46,0h-4.56a3.22,3.22,0,0,0,0,6.44h11.32a5.25,5.25,0,0,1,0,10.5H242.83a3.22,3.22,0,0,0,0,6.44H254.4a5,5,0,0,1,0,10H237.72a3.22,3.22,0,1,0,0,6.44h12.94a5,5,0,0,1,0,9.92H226.71a78.15,78.15,0,0,1-12-.69,27.53,27.53,0,0,1-10.4-3.66,48.88,48.88,0,0,0-25.85-7.36h-3.56V183.14H179c4.49,0,9-1.45,13.75-4.43,1.87-1.17,2.58-3.31,3.41-5.8,1.8-5.41,3.6-9.24,10.39-9.24H222v11.17a3.22,3.22,0,0,0-6.29,1.26,9.55,9.55,0,0,0,9.51,8.52h29.69A4.47,4.47,0,0,1,259.4,189.09Zm.72-25.42c-.57,4.08-2.64,10-9.91,10H243.8v-10Z" transform="translate(-139 -60)"/><path class="cls-5" d="M229.61,116.1l22.31-22.31a3.22,3.22,0,1,0-4.55-4.56l-20,20-8.88-8.87a3.22,3.22,0,1,0-4.55,4.55l11.16,11.16A3.21,3.21,0,0,0,229.61,116.1Z" transform="translate(-139 -60)"/></svg>