<?xml version="1.0" encoding="utf-8"?>
<!-- Generator: Adobe Illustrator 23.0.0, SVG Export Plug-In . SVG Version: 6.00 Build 0)  -->
<svg version="1.1" id="a115e649-e6de-4a08-abb2-c2a69b6ac895"
	 xmlns="http://www.w3.org/2000/svg" xmlns:xlink="http://www.w3.org/1999/xlink" x="0px" y="0px" viewBox="0 0 892.6 540.8"
	 style="enable-background:new 0 0 892.6 540.8;" xml:space="preserve">
<style type="text/css">
	.st0{fill:#FF6584;}
	.st1{fill:#E6E6E6;}
	.st2{fill:#6C63FF;}
	.st3{fill:#3F3D56;}
	.st4{fill:#FFFFFF;}
	.st5{fill:#FFB8B8;}
	.st6{fill:#2F2E41;}
</style>
<title>season_change</title>
<circle class="st0" cx="70.9" cy="79.4" r="44.1"/>
<ellipse class="st1" cx="426.1" cy="512.6" rx="426.1" ry="17.3"/>
<circle class="st2" cx="108.4" cy="187.7" r="108.4"/>
<polygon class="st3" points="118.9,514.3 96.7,514.3 106.8,171.4 "/>
<polygon class="st3" points="108.8,236.4 132.6,203.4 108.4,244.5 105.8,240 "/>
<polygon class="st3" points="106.2,269.7 82.3,236.7 106.5,277.8 109.1,273.3 "/>
<polygon class="st3" points="794.1,514.7 771.9,514.7 782,171.7 "/>
<polygon class="st3" points="784,236.7 807.9,203.7 783.7,244.9 781.1,240.3 "/>
<polygon class="st3" points="781.4,270 757.5,237.1 781.7,278.2 784.3,273.6 "/>
<circle class="st3" cx="440.5" cy="312.6" r="202"/>
<circle class="st4" cx="440.5" cy="312.6" r="185.3"/>
<circle class="st3" cx="439.9" cy="313.3" r="24.8"/>
<rect x="434.5" y="136.7" class="st3" width="10.7" height="20.1"/>
<rect x="434.5" y="469.8" class="st3" width="10.7" height="20.1"/>
<rect x="263.3" y="307.9" class="st3" width="20.1" height="10.7"/>
<rect x="596.4" y="307.9" class="st3" width="20.1" height="10.7"/>
<polygon class="st3" points="432.7,324 441.9,303.1 556.5,366.6 "/>
<rect x="414.5" y="61.8" class="st3" width="52.2" height="60.2"/>
<ellipse class="st3" cx="440.5" cy="61.8" rx="60.2" ry="16.7"/>
<path class="st5" d="M553.3,348.4l-3.3,4.7c0,0-15.4,18.1-16.1,9.4c-0.7-8.7,11.4-14.7,11.4-14.7l6.7-4L553.3,348.4z"/>
<path class="st5" d="M648.5,364.2l2.8,5c0,0,9.7,21.6,1.6,18.5c-8.1-3.1-8.4-16.6-8.4-16.6l-0.8-7.8L648.5,364.2z"/>
<circle class="st6" cx="633.4" cy="254.7" r="20.4"/>
<path class="st5" d="M631.5,422l2.7,17.4v5.4h15.4V438c0,0,0.7-12-2-15.4C644.9,419.3,631.5,422,631.5,422z"/>
<path class="st5" d="M604.1,422l2.7,17.4v5.4h15.4V438c0,0,0.7-12-2-15.4C617.5,419.3,604.1,422,604.1,422z"/>
<path class="st2" d="M614.4,282.3c0,0-5.9,3.1-1.9,10.2s27.8,80.5,27.8,80.5l13.7-3.9l-12.1-46.4l-6.9-29.2L614.4,282.3z"/>
<circle class="st5" cx="631.2" cy="260.4" r="15.4"/>
<path class="st5" d="M638.2,262.8l-2,31.4l-14-10c0,0,4.7-18.7,3.3-20.1L638.2,262.8z"/>
<path class="st2" d="M638.2,291.5l-15.1-11.2c0,0-6.9-2.8-8.9,0.5c-2,3.3-12,52.8-6.7,62.2c0,0,28.8,6,34.8,2.7l2.7-17.4
	c0,0,3.3-10.7-2-17.4L638.2,291.5z"/>
<path class="st2" d="M618.1,281.5c0,0-5.4-4-10,2.7c-4.7,6.7-60.9,59.5-60.9,59.5l9.4,10.7l36.8-30.8l23.4-18.7L618.1,281.5z"/>
<path class="st6" d="M642.6,345.4c0,0-33.1-6.4-36.5-1.7l-0.7,7.4c0,0-7.4,14-3.3,36.8c4,22.7,1.3,36.8,1.3,36.8s18.1-2,31.4,0
	c13.4,2,15.4,0,15.4,0L642.6,345.4z"/>
<path class="st6" d="M650.9,442.1l-19.4,0.7l6.7,50.2c0,0-5.4,21.4,0.7,22.7c4.2,0.8,8.4,1.3,12.7,1.3c0,0,6,6,12.7,5.4
	c4.4-0.6,8.7-1.9,12.7-4c0,0,1.3-4-3.3-5.4c-4.7-1.3-17.4-5.4-20.1-19.4L650.9,442.1z"/>
<path class="st6" d="M623.5,442.1l-19.4,0.7l6.7,50.2c0,0-5.4,21.4,0.7,22.7c4.2,0.8,8.4,1.3,12.7,1.3c0,0,6,6,12.7,5.4
	c4.4-0.6,8.7-1.9,12.7-4c0,0,1.3-4-3.3-5.4c-4.7-1.3-17.4-5.4-20.1-19.4L623.5,442.1z"/>
<circle class="st6" cx="640.5" cy="233.3" r="8.4"/>
<path class="st6" d="M651.8,228.7c0-4.3-3.3-7.9-7.6-8.4c0.3,0,0.6,0,0.9,0c4.7,0,8.4,3.8,8.4,8.4c0,4.7-3.8,8.4-8.4,8.4
	c-0.3,0-0.6,0-0.9,0C648.5,236.6,651.8,233,651.8,228.7z"/>
<ellipse class="st6" cx="631" cy="250.4" rx="14" ry="8.4"/>
<path class="st1" d="M852.3,51.4C851,27.7,830.7,9.6,807.1,11c-18.3,1-34,13.6-38.9,31.3c-0.5,0-1,0-1.6,0
	c-19,0-35.8,12.5-41.1,30.8c-12.6-5.5-27.4-1.9-36,8.9h133.7c16,0,29-12.9,29.1-28.9c0-0.4,0-0.7,0-1.1
	C852.3,51.8,852.3,51.6,852.3,51.4z"/>
<circle class="st1" cx="740.5" cy="130.1" r="11.5"/>
<circle class="st1" cx="775.3" cy="102.9" r="9.6"/>
<circle class="st1" cx="822.1" cy="155" r="11.5"/>
<circle class="st1" cx="734.7" cy="207.8" r="11.5"/>
<circle class="st1" cx="822.1" cy="274" r="11.5"/>
<path class="st1" d="M803.8,496.1c0-0.1,0-0.2,0-0.4c0-6.4-5.1-11.5-11.5-11.5c-1.7,0-3.3,0.4-4.8,1.1c-4.2-4.8-11.4-5.3-16.2-1.2
	c-3.1,2.6-4.5,6.7-3.8,10.7c-0.1,0-0.1,0-0.2,0c-6.4,0-11.5,5.1-11.5,11.5c0,6.4,5.1,11.5,11.5,11.5c2.6,0,5.1-0.8,7.1-2.4
	c2.9,5.7,9.8,7.9,15.5,5c1.7-0.9,3.2-2.2,4.3-3.8c5.1,3.7,12.3,2.6,16.1-2.5c3.7-5.1,2.6-12.3-2.5-16.1
	C806.6,497.1,805.2,496.4,803.8,496.1z"/>
<circle class="st1" cx="832.6" cy="228" r="4.8"/>
<circle class="st1" cx="801.9" cy="112.8" r="4.8"/>
<circle class="st1" cx="785.6" cy="231.8" r="4.8"/>
<circle class="st1" cx="789.4" cy="227" r="4.8"/>
<circle class="st1" cx="792.3" cy="222.2" r="4.8"/>
<circle class="st1" cx="780.8" cy="262.5" r="4.8"/>
<circle class="st1" cx="851.8" cy="316.3" r="4.8"/>
<circle class="st1" cx="749.1" cy="319.1" r="4.8"/>
<circle class="st1" cx="754.9" cy="171.3" r="4.8"/>
<circle class="st1" cx="777" cy="257.7" r="4.8"/>
<circle class="st1" cx="772.2" cy="250" r="4.8"/>
</svg>
