<?xml version="1.0" encoding="utf-8"?>
<!-- Generator: Adobe Illustrator 23.0.0, SVG Export Plug-In . SVG Version: 6.00 Build 0)  -->
<svg version="1.1" id="a8904fed-7223-4ff2-9071-b444910320a0"
	 xmlns="http://www.w3.org/2000/svg" xmlns:xlink="http://www.w3.org/1999/xlink" x="0px" y="0px" viewBox="0 0 1137 518.1"
	 style="enable-background:new 0 0 1137 518.1;" xml:space="preserve">
<style type="text/css">
	.st0{fill:#3F3D56;}
	.st1{fill:#FF6584;}
	.st2{fill:#6C63FF;}
	.st3{opacity:0.1;enable-background:new    ;}
	.st4{opacity:0.4;fill:#6C63FF;enable-background:new    ;}
	.st5{fill:#CCCCCC;}
	.st6{fill:#F2F2F2;}
</style>
<title>best place</title>
<path class="st0" d="M117.1,510.9l-1.6-0.4c17.6-91.8,62-175.3,125-234.9c154.8-146.4,381.9-118.3,507,62.8
	c34.5,50,58.8,108.4,71.1,171l-1.6,0.4c-37.4-192-181.3-326.1-349.9-326.1C300.8,183.8,153.5,321.4,117.1,510.9z"/>
<ellipse class="st1" cx="730.4" cy="235" rx="44.1" ry="51.6"/>
<rect x="711.9" y="441.1" class="st0" width="1.6" height="75.1"/>
<path class="st2" d="M728.6,450.7c0.1,26.3-15.7,47.6-15.7,47.6s-15.9-21.1-16-47.4s15.7-47.6,15.7-47.6S728.5,424.5,728.6,450.7z"
	/>
<path class="st3" d="M728.6,450.7c0.1,26.3-15.7,47.6-15.7,47.6s-15.9-21.1-16-47.4s15.7-47.6,15.7-47.6S728.5,424.5,728.6,450.7z"
	/>
<ellipse class="st4" cx="406.8" cy="262.4" rx="25.4" ry="29.7"/>
<ellipse class="st4" cx="359.8" cy="276.5" rx="17.8" ry="20.8"/>
<ellipse class="st4" cx="169" cy="336.4" rx="17.8" ry="20.8"/>
<ellipse class="st4" cx="695.2" cy="259.9" rx="25.4" ry="29.7"/>
<path class="st0" d="M46,507.9c1.4,6,6.1,9.6,6.1,9.6s2.5-6,1.1-11.9c-1.4-5.9-6.1-9.6-6.1-9.6S44.6,501.9,46,507.9z"/>
<path class="st2" d="M48,506.6c3.7,4.3,4.3,10.9,4.3,10.9s-5.7-0.3-9.4-4.7c-3.7-4.3-4.3-10.9-4.3-10.9S44.2,502.2,48,506.6z"/>
<path class="st0" d="M542.8,507.9c1.4,6,6.1,9.6,6.1,9.6s2.5-6,1.1-11.9c-1.4-6-6.1-9.6-6.1-9.6S541.4,501.9,542.8,507.9z"/>
<path class="st2" d="M544.8,506.6c3.7,4.3,4.3,10.9,4.3,10.9s-5.7-0.3-9.4-4.7c-3.7-4.3-4.3-10.9-4.3-10.9S541.1,502.2,544.8,506.6z
	"/>
<polygon class="st0" points="55.3,463.1 52,456.6 83.3,425.1 163.9,425.1 163.9,434.3 134.8,471 101.2,478.8 "/>
<polygon class="st5" points="177.8,443.6 177.8,423.1 167.2,423.1 167.2,429.6 163.9,425.1 137.1,456.6 132.6,461.8 126.9,488 
	137.1,516.8 188.6,516.8 188.6,457.9 "/>
<rect x="52" y="456.6" class="st6" width="85.1" height="60.2"/>
<rect x="107.4" y="475.6" class="st0" width="17.9" height="18.4"/>
<rect x="84.5" y="474.9" class="st5" width="15.7" height="41.9"/>
<polygon class="st0" points="66.5,481.5 66.5,474.9 59.8,474.9 59.8,481.5 66,481.5 "/>
<polygon class="st0" points="66,486.7 59.8,486.7 59.8,493.2 66.5,493.2 66.5,486.7 "/>
<rect x="71" y="474.9" class="st0" width="6.7" height="6.5"/>
<rect x="71" y="486.7" class="st0" width="6.7" height="6.5"/>
<polygon class="st0" points="161.1,482.1 161.1,475.6 154.4,475.6 154.4,482.1 160.6,482.1 "/>
<polygon class="st0" points="160.6,487.4 154.4,487.4 154.4,493.9 161.1,493.9 161.1,487.4 "/>
<rect x="165.6" y="475.6" class="st0" width="6.7" height="6.5"/>
<rect x="165.6" y="487.4" class="st0" width="6.7" height="6.5"/>
<polygon class="st0" points="379.2,463.1 375.9,456.6 407.2,425.1 487.8,425.1 487.8,434.3 458.8,471 425.1,478.8 "/>
<polygon class="st5" points="501.7,443.6 501.7,423.1 491.1,423.1 491.1,429.6 487.8,425.1 460.9,456.6 456.5,461.8 450.9,488 
	460.9,516.8 512.5,516.8 512.5,457.9 "/>
<rect x="375.9" y="456.6" class="st6" width="85.1" height="60.2"/>
<rect x="431.3" y="475.6" class="st0" width="17.9" height="18.4"/>
<rect x="408.4" y="474.9" class="st5" width="15.7" height="41.9"/>
<polygon class="st0" points="390.4,481.5 390.4,474.9 383.7,474.9 383.7,481.5 389.9,481.5 "/>
<polygon class="st0" points="389.9,486.7 383.7,486.7 383.7,493.2 390.4,493.2 390.4,486.7 "/>
<rect x="394.9" y="474.9" class="st0" width="6.7" height="6.5"/>
<rect x="394.9" y="486.7" class="st0" width="6.7" height="6.5"/>
<polygon class="st0" points="485,482.1 485,475.6 478.3,475.6 478.3,482.1 484.5,482.1 "/>
<polygon class="st0" points="484.5,487.4 478.3,487.4 478.3,493.9 485,493.9 485,487.4 "/>
<rect x="489.5" y="475.6" class="st0" width="6.7" height="6.5"/>
<rect x="489.5" y="487.4" class="st0" width="6.7" height="6.5"/>
<polygon class="st0" points="227.7,353.1 222.2,347.9 253.5,315.1 333,315.1 333,344 281.4,384.5 "/>
<polygon class="st5" points="347.4,333.5 347.4,315.8 337,315.8 337,320.2 333,315.1 307.2,347.9 297.1,355.7 281.5,489.3 
	305,516.8 359.8,516.8 359.8,349.2 "/>
<rect x="222.2" y="347.9" class="st6" width="85.1" height="168.9"/>
<rect x="255.2" y="475.6" class="st5" width="15.7" height="41.2"/>
<polygon class="st0" points="238.4,487.4 238.4,480.8 231.7,480.8 231.7,487.4 237.8,487.4 "/>
<polygon class="st0" points="237.8,492.6 231.7,492.6 231.7,499.1 238.4,499.1 238.4,492.6 "/>
<rect x="242.9" y="480.8" class="st0" width="6.7" height="6.5"/>
<rect x="242.9" y="492.6" class="st0" width="6.7" height="6.5"/>
<polygon class="st0" points="284.3,487.4 284.3,480.8 277.6,480.8 277.6,487.4 283.7,487.4 "/>
<polygon class="st0" points="283.7,492.6 277.6,492.6 277.6,499.1 284.3,499.1 284.3,492.6 "/>
<rect x="288.7" y="480.8" class="st0" width="6.7" height="6.5"/>
<rect x="288.7" y="492.6" class="st0" width="6.7" height="6.5"/>
<polygon class="st0" points="331.3,356.5 331.3,349.8 324.6,349.8 324.6,356.5 330.8,356.5 "/>
<polygon class="st0" points="330.8,361.7 324.6,361.7 324.6,368.2 331.3,368.2 331.3,361.7 "/>
<rect x="335.8" y="349.8" class="st0" width="6.7" height="6.5"/>
<rect x="335.8" y="361.7" class="st0" width="6.7" height="6.5"/>
<polygon class="st0" points="331.3,393.1 331.3,386.6 324.6,386.6 324.6,393.1 330.8,393.1 "/>
<polygon class="st0" points="330.8,398.3 324.6,398.3 324.6,404.8 331.3,404.8 331.3,398.3 "/>
<rect x="335.8" y="386.6" class="st0" width="6.7" height="6.5"/>
<rect x="335.8" y="398.3" class="st0" width="6.7" height="6.5"/>
<polygon class="st0" points="331.3,429.7 331.3,423.2 324.6,423.2 324.6,429.7 330.8,429.7 "/>
<polygon class="st0" points="330.8,434.9 324.6,434.9 324.6,441.5 331.3,441.5 331.3,434.9 "/>
<rect x="335.8" y="423.2" class="st0" width="6.7" height="6.5"/>
<rect x="335.8" y="434.9" class="st0" width="6.7" height="6.5"/>
<polygon class="st0" points="331.3,466.4 331.3,459.8 324.6,459.8 324.6,466.4 330.8,466.4 "/>
<polygon class="st0" points="330.8,471.7 324.6,471.7 324.6,478.2 331.3,478.2 331.3,471.7 "/>
<rect x="335.8" y="459.8" class="st0" width="6.7" height="6.5"/>
<rect x="335.8" y="471.7" class="st0" width="6.7" height="6.5"/>
<rect x="231.7" y="356.5" class="st0" width="64.9" height="15.7"/>
<rect x="231.7" y="387.8" class="st0" width="64.9" height="15.7"/>
<rect x="231.7" y="419.2" class="st0" width="64.9" height="15.7"/>
<rect x="231.7" y="450.7" class="st0" width="64.9" height="15.7"/>
<polygon class="st0" points="554.9,353.1 549.3,347.9 580.6,315.1 660.1,315.1 660.1,344 608.7,384.5 "/>
<polygon class="st5" points="674.7,333.5 674.7,315.8 664.1,315.8 664.1,320.2 660.1,315.1 634.4,347.9 624.3,355.7 608.7,489.3 
	632.3,516.8 687,516.8 687,349.2 "/>
<rect x="549.3" y="347.9" class="st6" width="85.1" height="168.9"/>
<rect x="582.3" y="475.6" class="st5" width="15.7" height="41.2"/>
<polygon class="st0" points="565.5,487.4 565.5,480.8 558.8,480.8 558.8,487.4 565,487.4 "/>
<polygon class="st0" points="565,492.6 558.8,492.6 558.8,499.1 565.5,499.1 565.5,492.6 "/>
<rect x="570" y="480.8" class="st0" width="6.7" height="6.5"/>
<rect x="570" y="492.6" class="st0" width="6.7" height="6.5"/>
<polygon class="st0" points="611.5,487.4 611.5,480.8 604.7,480.8 604.7,487.4 610.9,487.4 "/>
<polygon class="st0" points="610.9,492.6 604.7,492.6 604.7,499.1 611.5,499.1 611.5,492.6 "/>
<rect x="615.9" y="480.8" class="st0" width="6.7" height="6.5"/>
<rect x="615.9" y="492.6" class="st0" width="6.7" height="6.5"/>
<polygon class="st0" points="658.4,356.5 658.4,349.8 651.7,349.8 651.7,356.5 657.9,356.5 "/>
<polygon class="st0" points="657.9,361.7 651.7,361.7 651.7,368.2 658.4,368.2 658.4,361.7 "/>
<rect x="662.9" y="349.8" class="st0" width="6.7" height="6.5"/>
<rect x="662.9" y="361.7" class="st0" width="6.7" height="6.5"/>
<polygon class="st0" points="658.4,393.1 658.4,386.6 651.7,386.6 651.7,393.1 657.9,393.1 "/>
<polygon class="st0" points="657.9,398.3 651.7,398.3 651.7,404.8 658.4,404.8 658.4,398.3 "/>
<rect x="662.9" y="386.6" class="st0" width="6.7" height="6.5"/>
<rect x="662.9" y="398.3" class="st0" width="6.7" height="6.5"/>
<polygon class="st0" points="658.4,429.7 658.4,423.2 651.7,423.2 651.7,429.7 657.9,429.7 "/>
<polygon class="st0" points="657.9,434.9 651.7,434.9 651.7,441.5 658.4,441.5 658.4,434.9 "/>
<rect x="662.9" y="423.2" class="st0" width="6.7" height="6.5"/>
<rect x="662.9" y="434.9" class="st0" width="6.7" height="6.5"/>
<polygon class="st0" points="658.4,466.4 658.4,459.8 651.7,459.8 651.7,466.4 657.9,466.4 "/>
<polygon class="st0" points="657.9,471.7 651.7,471.7 651.7,478.2 658.4,478.2 658.4,471.7 "/>
<rect x="662.9" y="459.8" class="st0" width="6.7" height="6.5"/>
<rect x="662.9" y="471.7" class="st0" width="6.7" height="6.5"/>
<rect x="558.8" y="356.5" class="st0" width="64.9" height="15.7"/>
<rect x="558.8" y="387.8" class="st0" width="64.9" height="15.7"/>
<rect x="558.8" y="419.2" class="st0" width="64.9" height="15.7"/>
<rect x="558.8" y="450.7" class="st0" width="64.9" height="15.7"/>
<polygon class="st0" points="734.3,353.1 728.7,347.9 760.1,315.1 839.5,315.1 839.5,344 788,384.5 "/>
<polygon class="st5" points="854,333.5 854,315.8 843.5,315.8 843.5,320.2 839.5,315.1 813.8,347.9 803.7,355.7 788.2,489.3 
	811.6,516.8 866.4,516.8 866.4,349.2 "/>
<rect x="728.7" y="347.9" class="st6" width="85.1" height="168.9"/>
<rect x="761.8" y="475.6" class="st5" width="15.7" height="41.2"/>
<polygon class="st0" points="744.9,487.4 744.9,480.8 738.2,480.8 738.2,487.4 744.4,487.4 "/>
<polygon class="st0" points="744.4,492.6 738.2,492.6 738.2,499.1 744.9,499.1 744.9,492.6 "/>
<rect x="749.4" y="480.8" class="st0" width="6.7" height="6.5"/>
<rect x="749.4" y="492.6" class="st0" width="6.7" height="6.5"/>
<polygon class="st0" points="790.8,487.4 790.8,480.8 784.1,480.8 784.1,487.4 790.3,487.4 "/>
<polygon class="st0" points="790.3,492.6 784.1,492.6 784.1,499.1 790.8,499.1 790.8,492.6 "/>
<rect x="795.3" y="480.8" class="st0" width="6.7" height="6.5"/>
<rect x="795.3" y="492.6" class="st0" width="6.7" height="6.5"/>
<polygon class="st0" points="837.9,356.5 837.9,349.8 831.2,349.8 831.2,356.5 837.3,356.5 "/>
<polygon class="st0" points="837.3,361.7 831.2,361.7 831.2,368.2 837.9,368.2 837.9,361.7 "/>
<rect x="842.4" y="349.8" class="st0" width="6.7" height="6.5"/>
<rect x="842.4" y="361.7" class="st0" width="6.7" height="6.5"/>
<polygon class="st0" points="837.9,393.1 837.9,386.6 831.2,386.6 831.2,393.1 837.3,393.1 "/>
<polygon class="st0" points="837.3,398.3 831.2,398.3 831.2,404.8 837.9,404.8 837.9,398.3 "/>
<rect x="842.4" y="386.6" class="st0" width="6.7" height="6.5"/>
<rect x="842.4" y="398.3" class="st0" width="6.7" height="6.5"/>
<polygon class="st0" points="837.9,429.7 837.9,423.2 831.2,423.2 831.2,429.7 837.3,429.7 "/>
<polygon class="st0" points="837.3,434.9 831.2,434.9 831.2,441.5 837.9,441.5 837.9,434.9 "/>
<rect x="842.4" y="423.2" class="st0" width="6.7" height="6.5"/>
<rect x="842.4" y="434.9" class="st0" width="6.7" height="6.5"/>
<polygon class="st0" points="837.9,466.4 837.9,459.8 831.2,459.8 831.2,466.4 837.3,466.4 "/>
<polygon class="st0" points="837.3,471.7 831.2,471.7 831.2,478.2 837.9,478.2 837.9,471.7 "/>
<rect x="842.4" y="459.8" class="st0" width="6.7" height="6.5"/>
<rect x="842.4" y="471.7" class="st0" width="6.7" height="6.5"/>
<rect x="738.2" y="356.5" class="st0" width="64.9" height="15.7"/>
<rect x="738.2" y="387.8" class="st0" width="64.9" height="15.7"/>
<rect x="738.2" y="419.2" class="st0" width="64.9" height="15.7"/>
<rect x="738.2" y="450.7" class="st0" width="64.9" height="15.7"/>
<rect y="516.2" class="st0" width="923" height="1.9"/>
<rect x="204.6" y="441.1" class="st0" width="1.6" height="75.1"/>
<path class="st2" d="M221.2,450.7c0.1,26.3-15.7,47.6-15.7,47.6s-15.9-21.1-16-47.4c-0.1-26.3,15.7-47.6,15.7-47.6
	S221.1,424.5,221.2,450.7z"/>
<rect x="367" y="441.1" class="st0" width="1.6" height="75.1"/>
<path class="st2" d="M383.5,450.7c0.1,26.3-15.7,47.6-15.7,47.6s-15.9-21.1-16-47.4s15.7-47.6,15.7-47.6S383.4,424.5,383.5,450.7z"
	/>
<rect x="690.9" y="441.1" class="st0" width="1.6" height="75.1"/>
<path class="st2" d="M707.4,450.7c0.1,26.3-15.7,47.6-15.7,47.6s-15.9-21.1-16-47.4s15.7-47.6,15.7-47.6S707.3,424.5,707.4,450.7z"
	/>
<ellipse class="st2" cx="476.9" cy="181.5" rx="30.9" ry="8.1"/>
<path class="st2" d="M511.8,68c0,23.1-35.8,88.3-35.8,88.3S440.3,91,440.3,68s16-41.7,35.8-41.7C495.8,26.2,511.8,44.9,511.8,68z"/>
<ellipse class="st6" cx="476.2" cy="68" rx="20.3" ry="23.7"/>
</svg>
