<svg id="Layer_35" data-name="Layer 35" xmlns="http://www.w3.org/2000/svg" viewBox="0 0 210.04 189.11"><defs><style>.cls-1{fill:#69d6f4;}.cls-2{fill:#fcd770;}.cls-3{fill:#e6e9ed;}.cls-4{fill:#aab2bd;}.cls-5{fill:#cf9e76;}.cls-6{fill:#ff826e;}.cls-7{fill:#f0d0b4;}</style></defs><title>vision-edited</title><path class="cls-1" d="M299.55,188.26c18.31-5.63,32.58-5.5,42.09-4.42,16.59,1.89,20.63,6.94,35.19,5.78,16.46-1.32,18.29-8.33,33-8.17,15.38.16,15.54,7.83,31.32,9.19,18.23,1.57,23.75-8.17,44.2-7.66a67.51,67.51,0,0,1,24.23,5.28V1.7h-210c15.45,14,18.34,24.5,17.36,32-1.76,13.65-16.3,17.13-16.34,30,0,13.81,16.81,17.14,16.69,31-.12,13-15.06,15.6-15.32,28.93-.26,13,13.69,16.62,15.66,30.3C318.63,161.06,316.53,172.31,299.55,188.26Z" transform="translate(-299.55 -1.7)"/><path class="cls-2" d="M471.63,16.1V53.59A2.69,2.69,0,0,1,469,56.27h-5.36a2.69,2.69,0,0,1-2.68-2.68V16.1a2.69,2.69,0,0,1,2.68-2.68H469A2.69,2.69,0,0,1,471.63,16.1Z" transform="translate(-299.55 -1.7)"/><path class="cls-3" d="M460.91,18.77V50.92H439.49V18.77Z" transform="translate(-299.55 -1.7)"/><path class="cls-4" d="M439.49,24.13V45.56L420.74,43.2l-.14,0a7.21,7.21,0,0,0-7.07-5.71h-1.1A7.16,7.16,0,0,0,408.1,39L405,41.27l-8.41-1.07V29.49Z" transform="translate(-299.55 -1.7)"/><path class="cls-5" d="M382.52,139.6l-.3.29a7.54,7.54,0,0,0-1.63,4.29,8,8,0,0,1-5.39-7.55V120.56a2.68,2.68,0,0,0-2.67-2.68H353.78a10.72,10.72,0,0,1-10.72-10.72v-5.35h37.5a10.7,10.7,0,0,1,10.71,10.71v18.75l.41.53a83.38,83.38,0,0,0-9.16,7.8Z" transform="translate(-299.55 -1.7)"/><path class="cls-5" d="M359.13,117.88v48.21a8,8,0,0,1-16.07,0V107.16a10.72,10.72,0,0,0,10.72,10.72Z" transform="translate(-299.55 -1.7)"/><path class="cls-6" d="M405,41.27,408.1,39a7.16,7.16,0,0,1,4.33-1.45h1.1a7.21,7.21,0,0,1,7.07,5.71,9.19,9.19,0,0,1,.14,1.5A7.17,7.17,0,0,1,418,50.41l-17,13.2A16,16,0,0,1,391.11,67H372.53v34.82H343.06V69.66a16.09,16.09,0,0,1,16.07-16.07H386.8A5.26,5.26,0,0,0,390,52.52Z" transform="translate(-299.55 -1.7)"/><circle class="cls-7" cx="67.62" cy="35.82" r="16.07"/><path class="cls-2" d="M493.06,61.63V132.1a77.43,77.43,0,0,0-10.72-6.8V61.63Z" transform="translate(-299.55 -1.7)"/><path class="cls-2" d="M471.63,72.34v48.13a79,79,0,0,0-10.72-3.16v-45Z" transform="translate(-299.55 -1.7)"/><path class="cls-2" d="M442.17,115.2c-.65,0-1.26,0-1.91,0a2.84,2.84,0,0,0-.77,0V83.06H450.2v32.51l-6.32-.32Z" transform="translate(-299.55 -1.7)"/><path class="cls-3" d="M439.49,115.28a2.84,2.84,0,0,1,.77,0,29.47,29.47,0,0,0,.19,58.82,84.88,84.88,0,0,1-57.93-24.35l-.3-.29a7.66,7.66,0,0,1-1.66-4.77,2.58,2.58,0,0,1,0-.48,7.54,7.54,0,0,1,1.63-4.29l.3-.29a83.38,83.38,0,0,1,9.16-7.8A84.75,84.75,0,0,1,439.49,115.28Z" transform="translate(-299.55 -1.7)"/><path class="cls-3" d="M450.2,115.57a87.74,87.74,0,0,1,21.43,4.9c.94.33,1.85.67,2.76,1a75,75,0,0,1,7.95,3.78,77.43,77.43,0,0,1,10.72,6.8v0a78.32,78.32,0,0,1,8.75,7.47l.3.29a7.68,7.68,0,0,1,0,9.54l-.3.29a84.86,84.86,0,0,1-57.93,24.35,29.46,29.46,0,0,0,0-58.82Z" transform="translate(-299.55 -1.7)"/><path class="cls-4" d="M443.88,115.25a29.46,29.46,0,0,1,0,58.82c-.56.05-1.15.05-1.71.05s-1.16,0-1.72-.05a29.47,29.47,0,0,1-.19-58.82c.65,0,1.26,0,1.91,0Z" transform="translate(-299.55 -1.7)"/><path class="cls-1" d="M428.77,134a8,8,0,1,0,10.13-7.74,18.24,18.24,0,0,1,3.27-.3,18.74,18.74,0,0,1,18.74,18.75c0,.16,0,.32,0,.51a8,8,0,0,0-5.33,7.53,8.06,8.06,0,0,0,1,3.91,18.74,18.74,0,0,1-33.18-12A18.46,18.46,0,0,1,429.34,131,8,8,0,0,0,428.77,134Z" transform="translate(-299.55 -1.7)"/><path class="cls-3" d="M438.9,126.21a8.07,8.07,0,1,1-9.56,4.82v0a18.36,18.36,0,0,1,9.53-4.79Z" transform="translate(-299.55 -1.7)"/><path d="M442.17,166.09a21.37,21.37,0,0,0,16.51-7.77l1.17-1.42-.9-1.61a5.27,5.27,0,0,1-.71-2.59,5.37,5.37,0,0,1,3.55-5l1.66-.8.12-1.74a3.85,3.85,0,0,0,0-.48,21.43,21.43,0,1,0-21.42,21.43Zm16-22.6a10.69,10.69,0,0,0-5.3,9.21,10.17,10.17,0,0,0,.58,3.4,16.06,16.06,0,0,1-26.21-17.4A10.69,10.69,0,0,0,447.52,134a10.55,10.55,0,0,0-1.16-4.79A16.11,16.11,0,0,1,458.18,143.49Zm-16-9.54a5.36,5.36,0,0,1-10.72,0,5.24,5.24,0,0,1,.24-1.45,16.09,16.09,0,0,1,7-3.52A5.34,5.34,0,0,1,442.17,134Z" transform="translate(-299.55 -1.7)"/><path d="M504.19,138.22l-.5-.51a88,88,0,0,0-8-6.92V59H479.66v62c-1.76-.83-3.55-1.59-5.36-2.31V69.66H458.23V114c-1.77-.33-3.56-.59-5.35-.81V80.38H436.81V112.7A87.09,87.09,0,0,0,394,126.92v-14.4a13.41,13.41,0,0,0-13.39-13.39H375.2V69.66h15.91a18.91,18.91,0,0,0,11.52-3.94l17-13.21a9.74,9.74,0,0,0,3.64-6.28l13.57,1.69v5.67h21.43A5.36,5.36,0,0,0,463.59,59H469a5.37,5.37,0,0,0,5.36-5.36V16.1A5.37,5.37,0,0,0,469,10.74h-5.36a5.36,5.36,0,0,0-5.35,5.36H436.81v5.67L394,27.12V42.57l4.19.52-9.72,7.29a2.67,2.67,0,0,1-1.61.54h-6.55a18.76,18.76,0,1,0-25.58.55,18.77,18.77,0,0,0-14.3,18.19v96.43a10.72,10.72,0,0,0,21.43,0V120.56h10.72v16.06a10.77,10.77,0,0,0,5.47,9.31,10.37,10.37,0,0,0,2.15,5.17l.5.52a87.76,87.76,0,0,0,123.05,0l.5-.51a10.32,10.32,0,0,0,0-12.89ZM463.59,16.1H469V53.59h-5.36ZM485,64.31h5.36v62.61c-1.75-1.15-3.54-2.21-5.36-3.23ZM463.59,75H469v41.67c-1.77-.56-3.55-1.09-5.36-1.54ZM469,144.66a26.79,26.79,0,1,1-26.78-26.78A26.82,26.82,0,0,1,469,144.66ZM442.17,85.74h5.35v27c-1.78-.11-3.56-.18-5.35-.18Zm0-64.29h16.07V48.24H442.17ZM399.31,37.84v-6l37.5-4.68V42.53l-14.24-1.78a9.9,9.9,0,0,0-9-5.91h-1.12a10,10,0,0,0-5.92,2l-2.19,1.64Zm-45.53-.32a13.39,13.39,0,1,1,13.39,13.4A13.4,13.4,0,0,1,353.78,37.52Zm5.35,18.75h27.68a8.11,8.11,0,0,0,4.82-1.6l18.08-13.56a4.51,4.51,0,0,1,2.71-.91h1.12a4.52,4.52,0,0,1,2.78,8.08l-17,13.21a13.45,13.45,0,0,1-8.22,2.82H369.85V99.13H345.74V69.66A13.41,13.41,0,0,1,359.13,56.27Zm-2.68,109.82a5.36,5.36,0,1,1-10.71,0V117.81a13.28,13.28,0,0,0,8,2.75h2.67Zm16.08-50.89H353.78a8.05,8.05,0,0,1-8-8v-2.68h34.82a8.05,8.05,0,0,1,8,8v18.27a87.92,87.92,0,0,0-8,6.91l-.5.52a9.9,9.9,0,0,0-1.09,1.71,5.28,5.28,0,0,1-1.17-3.31V120.56A5.36,5.36,0,0,0,372.53,115.2Zm11.86,32.6-.15-.15a5,5,0,0,1-1-3,4.93,4.93,0,0,1,1-3l.16-.16a81.84,81.84,0,0,1,36.44-20.84,32,32,0,0,0,0,48,82,82,0,0,1-36.45-20.85Zm115.7-.15-.16.15a82,82,0,0,1-36.44,20.85,32,32,0,0,0,0-48,81.94,81.94,0,0,1,36.45,20.85l.15.15a4.93,4.93,0,0,1,1,3,5,5,0,0,1-1,3Z" transform="translate(-299.55 -1.7)"/></svg>