<?xml version="1.0" encoding="utf-8"?>
<!-- Generator: Adobe Illustrator 23.0.0, SVG Export Plug-In . SVG Version: 6.00 Build 0)  -->
<svg version="1.1" id="a6a3afa7-c5e3-4bb7-8d5f-b359f5b682fe"
	 xmlns="http://www.w3.org/2000/svg" xmlns:xlink="http://www.w3.org/1999/xlink" x="0px" y="0px" viewBox="0 0 731.9 786"
	 style="enable-background:new 0 0 731.9 786;" xml:space="preserve">
<style type="text/css">
	.st0{fill:#69D6F4;}
	.st1{fill:#A0616A;}
	.st2{fill:#2F2E41;}
	.st3{fill:#575A89;}
	.st4{opacity:0.5;}
	.st5{fill:url(#SVGID_1_);}
	.st6{fill:#F5F5F5;}
	.st7{fill:#333333;}
	.st8{fill:#6C63FF;}
	.st9{opacity:0.1;enable-background:new    ;}
	.st10{fill:#FDA57D;}
	.st11{fill:url(#SVGID_2_);}
	.st12{fill:#72351C;}
	.st13{fill:url(#SVGID_3_);}
	.st14{fill:#BE7C5E;}
	.st15{fill:#CCCCCC;}
</style>
<path class="st0" d="M693,737.2H79.1c-17.7,0-32-14.3-32-32V35c0-17.7,14.3-32,32-32H693c17.7,0,32,14.3,32,32v670.1
	C725,722.8,710.7,737.2,693,737.2z"/>
<title>Connecting Teams</title>
<g>
	<path class="st1" d="M127.4,175.3l27.5-28.8c0,0,30.2-45.3,52.2-33s-31.6,41.2-31.6,41.2L148,200L127.4,175.3z"/>
	<path class="st2" d="M40.8,734.2c0,0-20.6,39.8-5.5,42.6s89.3,6.9,90.6,2.7c1.4-4.1,12.4-17.9,4.1-23.3c-8.2-5.5-41.2-9.6-41.2-9.6
		l-11-11L40.8,734.2z"/>
	<path class="st2" d="M29.9,345.6c0,0-43.9,54.9-8.2,111.2l8.2,94.8c0,0-15.1,130.5,4.1,174.4l2.7,15.1h48.1L72.4,625.7
		c0,0,1.4-13.7,5.5-16.5c4.1-2.7,71.4-151.1,71.4-151.1s-11-20.6-6.9-24.7c4.1-4.1-4.1-86.5-8.2-89.3
		C130.1,341.5,29.9,345.6,29.9,345.6z"/>
	<polygon class="st1" points="108.1,721.8 113.6,753.4 60.1,750.7 66.9,716.4 	"/>
	<circle class="st1" cx="98.5" cy="120.4" r="41.2"/>
	<path class="st1" d="M61.4,127.2l-4.1,49.4l43.9,20.6c0,0-7.6-46-2.1-58.4L61.4,127.2z"/>
	<path class="st3" d="M106.8,194.5l-4.1-16.5l-56.3-20.6c0,0-5.5,0-4.1,9.6c1.4,9.6,1.4,8.2,1.4,8.2s-19.2,8.2-20.6,22
		C21.6,211-0.4,215.1,1,235.7s8.2,31.6,8.2,31.6s-6.9,16.5,4.1,26.1c0,0,11,19.2,5.5,33c-5.5,13.7-12.4,37.1,2.7,33
		s119.5-11,119.5-11s15.1-56.3-1.4-76.9c0,0,0-12.4-12.4-37.1S106.8,194.5,106.8,194.5z"/>
	<path class="st1" d="M34,349.7c0,0,17.9,75.5,39.8,83.8c0,0,4.1,54.9,27.5,52.2s0-52.2,0-52.2l-26.1-94.8L34,349.7z"/>
	<path class="st3" d="M104,198.6c0,0,20.6-33,26.1-27.5c5.5,5.5,33,22,31.6,33s-13.7,11-13.7,11l-28.8,22L104,198.6z"/>
	<path class="st2" d="M132.8,444.5l16.5,11.8l11,117.2c0,0-39.8,159.3-50.8,160.7c-11,1.4-56.3,1.4-54.9-2.7
		c1.4-4.1,8.2-20.6,8.2-24.7c0-4.1,14.3-37.1,14.3-37.1l18.6-76.9l-4.1-60.4L132.8,444.5z"/>
	<path class="st2" d="M112.2,742.4c0,0-57.7-17.9-60.4-13.7s-21.1,45.6,4.6,50.3C82,783.6,174,791.9,174,779.5s-2.7-20.6-11-20.6
		s-45.3-17.9-48.1-22C112.2,732.8,112.2,742.4,112.2,742.4z"/>
	<path class="st2" d="M59.5,123.1c-1.7-3.5,2.1-7.4,5.5-5.4l0.1,0c2.4,1.5,3.8,4.3,3.4,7.1c5-4.9,1.3-14.9,6.7-19.4
		c2.5-2.1,6.5-2.5,7.8-5.5c0.7-1.7,0.2-3.8,0.9-5.6c1-2.6,4.1-3.7,6.8-4.1c8.7-1.3,17.5,0.9,26,3.1c3.1,0.8,6.4,1.7,8.7,4
		c2.4,2.4,3.2,5.9,4.7,9s11.1,2.8,14.5,2.4c1.2-3.3-7.5-3.6-8.2-7.1c-1.9-9.5,4.8-19.6,1.5-28.7c-2-5.5-7.2-9.1-12.4-11.7
		c-14.6-7-31.2-8.4-46.7-4c-1.6,0.3-3.1,1.1-4.3,2.1c-2,1.9-2.4,4.9-3.7,7.2c-3,5.4-10.2,6.7-15.1,10.6c-7.3,5.9-8.2,16.6-8.4,26
		c-0.1,4.7-0.2,9.7,1.7,14s6.5,7.9,11.2,6.9C59.9,123.9,59.7,123.5,59.5,123.1z"/>
	<path class="st3" d="M66.6,212c-10.9-7.6-25.6-6.8-35.7,1.8c-9.5,8-19.6,19.6-18.9,31.5c1.4,22,9.6,112.6,20.6,114
		s50.8-9.6,50.8-16.5s-9.6-15.1-9.6-15.1l11.7-70c2.9-17.3-4-35-18.2-45.2C67,212.3,66.8,212.2,66.6,212z"/>
	<g class="st4">
		
			<linearGradient id="SVGID_1_" gradientUnits="userSpaceOnUse" x1="285.5776" y1="564.9427" x2="285.5776" y2="706.3617" gradientTransform="matrix(1 0 0 -1 0 785.1968)">
			<stop  offset="0" style="stop-color:#808080;stop-opacity:0.25"/>
			<stop  offset="0.5351" style="stop-color:#808080;stop-opacity:0.12"/>
			<stop  offset="1" style="stop-color:#808080;stop-opacity:0.1"/>
		</linearGradient>
		<circle class="st5" cx="285.6" cy="149.5" r="70.7"/>
	</g>
	<circle class="st6" cx="285.7" cy="149.1" r="69.2"/>
	<path class="st7" d="M323.8,155.9c0,23-16.5,34.4-38,34.4c-21.5,0-39.8-11.3-39.8-34.4s17.4-41.7,38.9-41.7
		C306.4,114.2,323.8,132.9,323.8,155.9z"/>
	<path class="st8" d="M285.8,218.6c13.5,0,26.8-3.9,38-11.4c-2.6-13.9-12.3-14.7-12.3-14.7H258c0,0-9.2,0.8-12,13.6
		C257.7,214.2,271.5,218.6,285.8,218.6z"/>
	<path class="st9" d="M274.3,175.5h21.4l0,0v17.7c0,5.6-4.5,10.1-10.1,10.1h-1.2c-5.6,0-10.1-4.5-10.1-10.1L274.3,175.5L274.3,175.5
		z"/>
	<path class="st10" d="M276.2,174.7h17.6c1.1,0,1.9,0.9,1.9,1.9v15.8c0,5.6-4.5,10.1-10.1,10.1h-1.2c-5.6,0-10.1-4.5-10.1-10.1
		v-15.8C274.3,175.5,275.1,174.7,276.2,174.7L276.2,174.7z"/>
	<path class="st9" d="M274.3,183.5c6.9,2.6,14.5,2.6,21.4,0.1V181h-21.4V183.5z"/>
	<circle class="st10" cx="285" cy="154.3" r="30.7"/>
	<path class="st9" d="M249.7,156.3c0,0,19.1-2.3,33.6-20.8c0,0,19.1,21,32.4,18.7c0,0,7.7-8.1,0-16.2c-7.7-8.1-13.7-18.3-23.9-17
		c-10.2,1.4-22.8,1.9-28.2,6.8S249.7,156.3,249.7,156.3z"/>
	<path class="st7" d="M249.7,155.9c0,0,19.1-2.3,33.6-20.8c0,0,19.1,21,32.4,18.7c0,0,7.7-8.1,0-16.2s-13.7-18.3-23.9-17
		c-10.2,1.4-22.8,1.9-28.2,6.8S249.7,155.9,249.7,155.9z"/>
	<ellipse class="st10" cx="254.3" cy="154.3" rx="2.9" ry="5.4"/>
	<ellipse class="st10" cx="315.7" cy="154.3" rx="2.9" ry="5.4"/>
	<g class="st4">
		
			<linearGradient id="SVGID_2_" gradientUnits="userSpaceOnUse" x1="585.0339" y1="559.8992" x2="585.0339" y2="701.3181" gradientTransform="matrix(1 0 0 -1 0 785.1968)">
			<stop  offset="0" style="stop-color:#808080;stop-opacity:0.25"/>
			<stop  offset="0.5351" style="stop-color:#808080;stop-opacity:0.12"/>
			<stop  offset="1" style="stop-color:#808080;stop-opacity:0.1"/>
		</linearGradient>
		<circle class="st11" cx="585" cy="154.6" r="70.7"/>
	</g>
	<circle class="st6" cx="585.2" cy="154.1" r="69.2"/>
	<path class="st8" d="M585.2,223.6c13.5,0,26.8-3.9,38-11.4c-2.6-13.9-12.3-14.7-12.3-14.7h-53.5c0,0-9.2,0.8-12,13.6
		C557.1,219.3,571,223.7,585.2,223.6z"/>
	<circle class="st12" cx="584.5" cy="152.7" r="33.4"/>
	<path class="st9" d="M573.7,180.5h21.4l0,0v17.7c0,5.6-4.5,10.1-10.1,10.1h-1.2c-5.6,0-10.1-4.5-10.1-10.1V180.5L573.7,180.5z"/>
	<path class="st10" d="M575.6,179.7h17.6c1.1,0,1.9,0.9,1.9,1.9v15.8c0,5.6-4.5,10.1-10.1,10.1h-1.2c-5.6,0-10.1-4.5-10.1-10.1
		v-15.8C573.7,180.6,574.6,179.7,575.6,179.7L575.6,179.7z"/>
	<path class="st9" d="M573.8,188.6c6.9,2.6,14.5,2.6,21.4,0.1V186h-21.4V188.6z"/>
	<circle class="st10" cx="584.5" cy="159.3" r="30.7"/>
	<path class="st9" d="M562.6,131.4c0,0,12.9,26.2,49.4,11l-8.5-13.3l-15.1-5.4L562.6,131.4z"/>
	<path class="st12" d="M562.6,131c0,0,12.9,26.2,49.4,11l-8.5-13.3l-15.1-5.4L562.6,131z"/>
	<path class="st12" d="M562.5,129.3c0.9-2.7,2.4-5.2,4.4-7.1c6-6,15.9-7.2,21-14c1.1,1.9,0.4,4.3-1.5,5.4c-0.1,0.1-0.2,0.1-0.4,0.2
		c4.9,0,10.5-0.5,13.2-4.5c1.4,3.2,0.8,7-1.5,9.6c4.3,0.2,8.9,3.1,9.2,7.4c0.2,2.9-1.6,5.6-4,7.2c-2.4,1.5-5.2,2.5-8,3
		C586.8,138.3,557.2,145.9,562.5,129.3z"/>
	<path class="st12" d="M615.2,159.6h-0.8l-15.8,14.1c-15.2-7.1-26.4,0-26.4,0l-16.6-13.5l-1.7,0.2c0.5,16.9,14.6,30.3,31.5,29.8
		C601.9,189.7,615.1,176.2,615.2,159.6L615.2,159.6z M584.5,179.1c-6,0-10.8-1.2-10.8-2.7s4.8-2.7,10.8-2.7c6,0,10.8,1.2,10.8,2.7
		S590.4,179.1,584.5,179.1L584.5,179.1z"/>
	<ellipse class="st10" cx="553.8" cy="159.3" rx="2.9" ry="5.4"/>
	<ellipse class="st10" cx="615.2" cy="159.3" rx="2.9" ry="5.4"/>
	<g class="st4">
		
			<linearGradient id="SVGID_3_" gradientUnits="userSpaceOnUse" x1="435.3143" y1="443.8913" x2="435.3143" y2="585.3102" gradientTransform="matrix(1 0 0 -1 0 785.1968)">
			<stop  offset="0" style="stop-color:#808080;stop-opacity:0.25"/>
			<stop  offset="0.5351" style="stop-color:#808080;stop-opacity:0.12"/>
			<stop  offset="1" style="stop-color:#808080;stop-opacity:0.1"/>
		</linearGradient>
		<circle class="st13" cx="435.3" cy="270.6" r="70.7"/>
	</g>
	<circle class="st6" cx="435.3" cy="270.2" r="69.2"/>
	<path class="st7" d="M408.3,270.8c0,0-7.8,38.7-12.1,36.5c0,0,41.3,35.7,77.8,0c0,0-6.4-27.2-15.7-36.5H408.3z"/>
	<path class="st8" d="M435.5,339.6c13.5,0,26.8-3.9,38-11.4c-2.6-13.9-12.3-14.7-12.3-14.7h-53.5c0,0-9.2,0.8-12,13.6
		C407.4,335.3,421.3,339.7,435.5,339.6z"/>
	<circle class="st7" cx="434.8" cy="268.7" r="30.7"/>
	<path class="st9" d="M424,296.5h21.4l0,0v17.7c0,5.6-4.5,10.1-10.1,10.1h-1.2c-5.6,0-10.1-4.5-10.1-10.1L424,296.5L424,296.5
		L424,296.5z"/>
	<path class="st14" d="M425.9,295.7h17.6c1.1,0,1.9,0.9,1.9,1.9v15.8c0,5.6-4.5,10.1-10.1,10.1h-1.2c-5.6,0-10.1-4.5-10.1-10.1
		v-15.8C424,296.6,424.9,295.7,425.9,295.7L425.9,295.7z"/>
	<path class="st9" d="M424,304.6c6.9,2.6,14.5,2.6,21.4,0.1V302H424V304.6z"/>
	<circle class="st14" cx="434.8" cy="275.3" r="30.7"/>
	<path class="st7" d="M405.4,263.7H464c0,0-5-23.6-27.1-22.1S405.4,263.7,405.4,263.7z"/>
	<ellipse class="st14" cx="404.7" cy="274" rx="2.9" ry="5.4"/>
	<ellipse class="st14" cx="464.7" cy="274" rx="2.9" ry="5.4"/>
	<path class="st9" d="M405.4,264.5H464c0,0-5-23.6-27.1-22.1S405.4,264.5,405.4,264.5z"/>
	<path class="st15" d="M435.3,206.1c35.6,0,64.4,28.9,64.4,64.4S470.9,335,435.3,335s-64.4-28.9-64.4-64.4v0
		C370.9,235,399.7,206.1,435.3,206.1L435.3,206.1 M435.3,190.2c-44.4,0-80.4,36-80.4,80.4s36,80.4,80.4,80.4s80.4-36,80.4-80.4v0
		C515.6,226.2,479.7,190.3,435.3,190.2z"/>
	<rect x="423.4" y="171.4" class="st15" width="18.8" height="19.8"/>
	
		<rect x="468.9" y="183.4" transform="matrix(0.515 -0.8572 0.8572 0.515 66.9229 503.9428)" class="st15" width="19.8" height="18.8"/>
	
		<rect x="502" y="215.6" transform="matrix(0.8746 -0.4848 0.4848 0.8746 -44.9032 276.3723)" class="st15" width="19.8" height="18.8"/>
	
		<rect x="502.9" y="305.5" transform="matrix(0.5299 -0.848 0.848 0.5299 -26.6909 582.752)" class="st15" width="18.8" height="19.8"/>
	
		<rect x="349.3" y="215.1" transform="matrix(0.4848 -0.8746 0.8746 0.4848 -11.9628 429.6911)" class="st15" width="18.8" height="19.8"/>
	
		<rect x="348.4" y="306" transform="matrix(0.848 -0.5299 0.5299 0.848 -112.7169 237.8131)" class="st15" width="19.8" height="18.8"/>
	
		<rect x="382.4" y="182.9" transform="matrix(0.8572 -0.515 0.515 0.8572 -43.3509 229.3389)" class="st15" width="18.8" height="19.8"/>
	<rect x="423.4" y="349.9" class="st15" width="18.8" height="19.8"/>
	
		<rect x="469.4" y="338.4" transform="matrix(0.8572 -0.515 0.515 0.8572 -111.0295 296.368)" class="st15" width="18.8" height="19.8"/>
	
		<rect x="381.9" y="338.9" transform="matrix(0.515 -0.8572 0.8572 0.515 -108.5934 504.7892)" class="st15" width="19.8" height="18.8"/>
	<rect x="334.2" y="262.7" class="st15" width="22.8" height="16.9"/>
	<rect x="513.6" y="262.7" class="st15" width="22.8" height="16.9"/>
	<path class="st15" d="M585,90.1c35.6,0,64.4,28.9,64.4,64.4c0,35.6-28.9,64.4-64.4,64.4c-35.6,0-64.4-28.9-64.4-64.4c0,0,0,0,0,0
		C520.6,119,549.4,90.1,585,90.1 M585,74.2c-44.4,0-80.4,36-80.4,80.4s36,80.4,80.4,80.4c44.4,0,80.4-36,80.4-80.4
		C665.3,110.2,629.4,74.3,585,74.2z"/>
	<rect x="573.1" y="55.4" class="st15" width="18.8" height="19.8"/>
	
		<rect x="618.6" y="67.4" transform="matrix(0.515 -0.8572 0.8572 0.515 238.9693 576.0181)" class="st15" width="19.8" height="18.8"/>
	
		<rect x="651.7" y="99.6" transform="matrix(0.8746 -0.4848 0.4848 0.8746 30.1104 334.4127)" class="st15" width="19.8" height="18.8"/>
	
		<rect x="652.6" y="189.5" transform="matrix(0.5299 -0.848 0.848 0.5299 142.0697 655.1883)" class="st15" width="18.8" height="19.8"/>
	
		<rect x="499.1" y="99.1" transform="matrix(0.4848 -0.8746 0.8746 0.4848 166.634 500.8727)" class="st15" width="18.8" height="19.8"/>
	
		<rect x="498.1" y="190" transform="matrix(0.848 -0.5299 0.5299 0.848 -28.4919 299.5247)" class="st15" width="19.8" height="18.8"/>
	
		<rect x="532.1" y="66.9" transform="matrix(0.8572 -0.515 0.515 0.8572 37.7824 289.8804)" class="st15" width="18.8" height="19.8"/>
	<rect x="573.1" y="233.9" class="st15" width="18.8" height="19.8"/>
	
		<rect x="619.1" y="222.4" transform="matrix(0.8572 -0.515 0.515 0.8572 -29.8952 356.9109)" class="st15" width="18.8" height="19.8"/>
	
		<rect x="531.6" y="222.9" transform="matrix(0.515 -0.8572 0.8572 0.515 63.4531 576.8644)" class="st15" width="19.8" height="18.8"/>
	<rect x="483.9" y="146.7" class="st15" width="22.8" height="16.9"/>
	<rect x="663.4" y="146.7" class="st15" width="22.8" height="16.9"/>
	<path class="st15" d="M285.6,85.2c0.8,0,1.5,0,2.3,0c35.6,1.2,63.4,31.1,62.2,66.6c-1.2,34.7-29.7,62.2-64.4,62.2
		c-0.8,0-1.5,0-2.3,0c-35.6-1.2-63.4-31.1-62.2-66.6C222.4,112.7,250.8,85.2,285.6,85.2 M285.6,69.3v15.9V69.3
		c-44.4,0-80.3,36-80.3,80.4c0,43.3,34.3,78.8,77.6,80.3c0.9,0,1.9,0,2.8,0c44.4,0,80.3-36,80.3-80.4c0-43.3-34.3-78.8-77.6-80.3
		C287.4,69.3,286.5,69.3,285.6,69.3z"/>
	
		<rect x="276.3" y="50.9" transform="matrix(3.469443e-02 -0.9994 0.9994 3.469443e-02 215.9583 344.3085)" class="st15" width="19.8" height="18.8"/>
	
		<rect x="321.9" y="64" transform="matrix(0.5445 -0.8388 0.8388 0.5445 89.5487 311.7303)" class="st15" width="19.8" height="18.8"/>
	
		<rect x="353.8" y="97.3" transform="matrix(0.8909 -0.4542 0.4542 0.8909 -8.7947 176.8203)" class="st15" width="19.8" height="18.8"/>
	
		<rect x="351.6" y="187.2" transform="matrix(0.559 -0.8292 0.8292 0.559 -4.2636 386.2447)" class="st15" width="18.8" height="19.8"/>
	
		<rect x="201.2" y="91.5" transform="matrix(0.5149 -0.8573 0.8573 0.5149 15.268 229.791)" class="st15" width="18.8" height="19.8"/>
	
		<rect x="197.2" y="182.4" transform="matrix(0.8659 -0.5002 0.5002 0.8659 -68.1622 129.2954)" class="st15" width="19.8" height="18.8"/>
	
		<rect x="235.4" y="60.5" transform="matrix(0.8745 -0.485 0.485 0.8745 -3.4243 127.566)" class="st15" width="18.8" height="19.8"/>
	
		<rect x="270.1" y="229.3" transform="matrix(3.469443e-02 -0.9994 0.9994 3.469443e-02 31.7223 510.2981)" class="st15" width="19.8" height="18.8"/>
	
		<rect x="317" y="218.9" transform="matrix(0.8745 -0.485 0.485 0.8745 -70.0414 187.006)" class="st15" width="18.8" height="19.8"/>
	
		<rect x="229.5" y="216.4" transform="matrix(0.5445 -0.8388 0.8388 0.5445 -80.3695 303.6979)" class="st15" width="19.8" height="18.8"/>
	
		<rect x="187.5" y="135.6" transform="matrix(3.469437e-02 -0.9994 0.9994 3.469437e-02 42.1781 337.6935)" class="st15" width="16.9" height="22.8"/>
	
		<rect x="366.8" y="141.8" transform="matrix(3.469429e-02 -0.9994 0.9994 3.469429e-02 209.0897 522.953)" class="st15" width="16.9" height="22.8"/>
</g>
</svg>
