<svg id="Layer_1" data-name="Layer 1" xmlns="http://www.w3.org/2000/svg" viewBox="0 0 136.58 189.8"><defs><style>.cls-1{fill:#e48e66;}.cls-2{fill:#f7caa5;}.cls-3{fill:#f8ec7d;}.cls-4{fill:#cc7350;}.cls-5{fill:#63316d;}</style></defs><title>wrong-edited</title><path class="cls-1" d="M171.64,169.13v75.26H142.22V169.13Z" transform="translate(-139 -60)"/><path class="cls-2" d="M254.93,181.4a7.69,7.69,0,0,1,0,15.38h-.78v0a8.48,8.48,0,0,1,0,16.95h.25a8.22,8.22,0,0,1,0,16.44h-3.74a8.18,8.18,0,0,1,0,16.36H226.71a79.79,79.79,0,0,1-12.55-.73,30.61,30.61,0,0,1-11.59-4.11,45.86,45.86,0,0,0-24.15-6.87h-6.78V179.91H179A22.82,22.82,0,0,0,191,176c3-1.88,1.85-15.53,15.51-15.53h18.69v21Z" transform="translate(-139 -60)"/><path class="cls-3" d="M224.81,141.27a39.45,39.45,0,1,1,16.21,0l-.44.08a39.59,39.59,0,0,1-15.34,0Z" transform="translate(-139 -60)"/><path class="cls-4" d="M225.24,141.35a39.59,39.59,0,0,0,15.34,0V181.4H225.24V141.35Z" transform="translate(-139 -60)"/><path class="cls-2" d="M263.55,160.44v.32c0,8.91-4.42,16.14-13.33,16.14h-9.64V160.44Z" transform="translate(-139 -60)"/><path class="cls-5" d="M139,169.13v75.26a3.22,3.22,0,0,0,3.22,3.22h29.42a3.22,3.22,0,0,0,3.22-3.22v-6.32h3.56a42.49,42.49,0,0,1,22.45,6.39A34,34,0,0,0,213.65,249a82.68,82.68,0,0,0,13.06.77h23.95a11.4,11.4,0,0,0,9.39-17.86,11.41,11.41,0,0,0,2.22-18.23l.15-.14a11.68,11.68,0,0,0,0-16.53,10.89,10.89,0,0,0-4.94-18.54c5.76-2.85,9.3-9.27,9.3-17.72v-.32a3.22,3.22,0,0,0-3.22-3.22H243.8V143.91a42.66,42.66,0,1,0-21.78,0v13.31H206.55c-12,0-14.92,8.88-16.5,13.65a19.93,19.93,0,0,1-1,2.51,19.28,19.28,0,0,1-10.1,3.31h-4.14v-7.56a3.23,3.23,0,0,0-3.22-3.23H142.22A3.23,3.23,0,0,0,139,169.13Zm98.36-24v33.09h-8.89V145.09a43.07,43.07,0,0,0,8.89,0Zm3-7-.34.07H240a36.26,36.26,0,0,1-14.08,0h-.09l-.27,0a36.23,36.23,0,1,1,14.85,0Zm19.76,25.55c-.56,4.09-2.64,10-9.9,10H243.8v-10Zm-85.26,68v-48.5H179c4.49,0,9-1.45,13.75-4.43,1.87-1.17,2.58-3.31,3.41-5.79,1.8-5.41,3.6-9.25,10.39-9.25H222v11.17a3.22,3.22,0,0,0-6.29,1.26,9.54,9.54,0,0,0,9.5,8.53h29.69a4.47,4.47,0,1,1,0,8.93h-7.08a3.57,3.57,0,0,0-.46,0h-4.56a3.23,3.23,0,0,0,0,6.45h11.32a5.25,5.25,0,1,1,0,10.5H242.83a3.22,3.22,0,0,0,0,6.44H254.4a5,5,0,0,1,0,10H237.72a3.22,3.22,0,0,0,0,6.44h12.94a5,5,0,0,1,0,9.92H226.71a78.35,78.35,0,0,1-12.05-.69A27.55,27.55,0,0,1,204.27,239a48.88,48.88,0,0,0-25.85-7.36Zm-29.42-59.28h23v68.82h-23Z" transform="translate(-139 -60)"/><path class="cls-5" d="M232.91,107.21l9.29,9.3a3.22,3.22,0,1,0,4.56-4.56l-9.29-9.29,9.29-9.3a3.22,3.22,0,0,0-4.56-4.55l-9.29,9.29-9.29-9.29a3.22,3.22,0,0,0-4.56,4.55l9.3,9.3-9.3,9.29a3.22,3.22,0,1,0,4.56,4.56Z" transform="translate(-139 -60)"/></svg>