<svg height="496pt" viewBox="-2 0 496 496.01077" width="496pt" xmlns="http://www.w3.org/2000/svg"><path d="m486.003906 203.253906v140.1875h-54.789062v-140.1875zm0 0" fill="#e48e66"/><path d="m331.367188 226.113281v-39.03125h34.828124c25.441407 0 23.269532 25.410157 28.878907 28.921875 6.761719 4.230469 14.261719 7.339844 22.429687 7.339844h13.710938v102.320312h-12.640625c-15.890625-.003906-31.464844 4.429688-44.96875 12.808594-6.609375 3.976563-13.953125 6.578125-21.589844 7.648438-7.746094 1.0625-15.5625 1.519531-23.378906 1.363281h-44.601563c-8.417968 0-15.238281-6.824219-15.238281-15.242187 0-8.417969 6.820313-15.238282 15.238281-15.238282h-6.980468c-8.453126 0-15.308594-6.855468-15.308594-15.3125 0-8.453125 6.855468-15.308594 15.308594-15.308594h.480468c-8.714844 0-15.78125-7.066406-15.78125-15.78125 0-8.714843 7.066406-15.777343 15.78125-15.777343v-.070313h-1.46875c-7.910156 0-14.320312-6.414062-14.320312-14.320312 0-7.910156 6.410156-14.320313 14.320312-14.320313zm0 0" fill="#f7caa5"/><path d="m331.367188 151.523438c-9.429688 1.867187-19.132813 1.867187-28.5625 0-.28125-.050782-.550782-.101563-.820313-.160157-36.832031-7.734375-61.863281-42.058593-57.976563-79.492187 3.890626-37.4375 35.441407-65.878906 73.078126-65.878906 37.636718 0 69.1875 28.441406 73.078124 65.878906 3.886719 37.433594-21.144531 71.757812-57.980468 79.492187-.269532.058594-.546875.109375-.816406.160157zm0 0" fill="#f8ec7d"/><path d="m331.367188 187.082031v39.03125h-28.5625v-74.589843c9.429687 1.867187 19.132812 1.867187 28.5625 0zm0 0" fill="#cc7350"/><path d="m302.804688 187.082031v30.652344h-17.949219c-16.609375 0-24.832031-13.460937-24.832031-30.0625v-.589844zm0 0" fill="#f7caa5"/><path d="m189.207031 294.023438c-9.429687 1.867187-19.132812 1.867187-28.5625 0-.269531-.050782-.550781-.101563-.820312-.160157-36.832031-7.734375-61.863281-42.058593-57.976563-79.492187 3.890625-37.4375 35.441406-65.878906 73.078125-65.878906s69.1875 28.441406 73.078125 65.878906c3.886719 37.433594-21.144531 71.757812-57.980468 79.492187-.269532.058594-.539063.109375-.816407.160157zm0 0" fill="#f8ec7d"/><path d="m231.984375 329.582031v.589844c0 16.601563-8.21875 30.0625-24.828125 30.0625h-17.949219v-30.652344zm0 0" fill="#f7caa5"/><path d="m214.476562 397.253906v.070313c8.714844 0 15.777344 7.0625 15.777344 15.777343 0 8.714844-7.0625 15.78125-15.777344 15.78125h.480469c8.453125 0 15.308594 6.855469 15.308594 15.308594 0 8.457032-6.855469 15.3125-15.308594 15.3125h-6.980469c8.414063 0 15.238282 6.820313 15.238282 15.238282 0 8.417968-6.824219 15.242187-15.238282 15.242187h-44.601562c-7.816406.15625-15.632812-.300781-23.378906-1.363281-7.640625-1.070313-14.980469-3.671875-21.589844-7.648438-13.503906-8.378906-29.078125-12.8125-44.972656-12.808594h-12.636719v-102.320312h13.707031c8.171875 0 15.671875-3.109375 22.429688-7.339844 5.613281-3.511718 3.441406-28.921875 28.882812-28.921875h34.828125v39.03125h55.300781c7.910157 0 14.320313 6.410157 14.320313 14.320313 0 7.90625-6.410156 14.320312-14.320313 14.320312zm0 0" fill="#f7caa5"/><path d="m189.207031 360.234375v8.378906h-28.5625v-74.589843c9.429688 1.867187 19.132813 1.867187 28.5625 0zm0 0" fill="#cc7350"/><path d="m60.796875 468.164062v17.777344h-54.792969v-140.1875h54.792969zm0 0" fill="#e48e66"/><g fill="#63316d"><path d="m254.394531 221.953125c0-41.242187-31.554687-75.628906-72.644531-79.171875s-78.0625 24.941406-85.121094 65.574219c-7.058594 40.632812 18.140625 79.917969 58.015625 90.441406v24.785156h-28.828125c-22.269531 0-27.777344 16.539063-30.734375 25.425781-.480469 1.597657-1.070312 3.160157-1.761719 4.675782-6.742187 4.144531-12.902343 6.160156-18.816406 6.160156h-7.707031v-14.089844c0-3.316406-2.6875-6-6-6h-54.792969c-3.3125 0-5.99999975 2.683594-5.99999975 6v140.1875c0 3.316406 2.68749975 6 5.99999975 6h54.792969c3.3125 0 6-2.683594 6-6v-11.777344h6.636719c14.773437-.007812 29.253906 4.117188 41.808594 11.90625 7.285156 4.402344 15.386718 7.285157 23.8125 8.476563 8.058593 1.109375 16.1875 1.589844 24.320312 1.4375h44.601562c7.886719.003906 15.128907-4.367187 18.800782-11.351563 3.671875-6.984374 3.167968-15.425781-1.3125-21.921874 1.664062-.945313 3.195312-2.105469 4.550781-3.457032 4.074219-4.054687 6.328125-9.589844 6.25-15.335937-.078125-5.746094-2.480469-11.214844-6.660156-15.164063.09375-.089844.203125-.167968.289062-.257812 4.085938-4.089844 6.375-9.628906 6.371094-15.40625-.007813-5.78125-2.308594-11.316406-6.402344-15.394532 5.441407-5.109374 7.636719-12.792968 5.714844-20.003906-1.917969-7.210937-7.644531-12.785156-14.90625-14.507812 10.71875-5.328125 17.3125-17.285156 17.3125-33.015625v-.589844c0-3.3125-2.683594-6-6-6h-36.777344v-24.785156c34.820313-9.304688 59.078125-40.796875 59.1875-76.839844zm-71.1875 140.660156h-16.5625v-61.628906c5.503907.585937 11.054688.585937 16.5625 0zm-75.75-140.660156c.003907-35.464844 27.464844-64.875 62.847657-67.304687 35.382812-2.429688 66.605468 22.949218 71.457031 58.082031 4.851562 35.132812-18.324219 68.023437-53.042969 75.273437-.183594.042969-.371094.078125-.5625.113282l-.125.019531c-8.65625 1.703125-17.558594 1.703125-26.214844 0-.027344-.003907-.148437-.027344-.175781-.03125-.167969-.03125-.34375-.0625-.589844-.117188-31.183593-6.644531-53.507812-34.148437-53.59375-66.035156zm-52.660156 257.988281h-42.792969v-128.1875h42.792969zm169.46875-97.007812c-.003906 4.589844-3.726563 8.3125-8.320313 8.320312h-13.191406c-.289062 0-.578125.023438-.867187.070313h-8.492188c-3.3125 0-6 2.683593-6 6 0 3.3125 2.6875 6 6 6h21.082031c5.398438 0 9.777344 4.378906 9.777344 9.777343 0 5.402344-4.378906 9.78125-9.777344 9.78125h-21.082031c-3.3125 0-6 2.6875-6 6s2.6875 6 6 6h21.5625c5.140625 0 9.308594 4.167969 9.308594 9.308594 0 5.144532-4.167969 9.3125-9.308594 9.3125h-31.082031c-3.3125 0-6 2.683594-6 6 0 3.3125 2.6875 6 6 6h24.101562c5.101563 0 9.238282 4.136719 9.238282 9.238282 0 5.101562-4.136719 9.242187-9.238282 9.242187h-44.601562c-7.5.144531-15-.285156-22.429688-1.285156-6.851562-.949219-13.441406-3.269531-19.375-6.824219-14.453124-8.972656-31.125-13.722656-48.136718-13.710938h-6.636719v-90.320312h7.707031c8.359375 0 16.738282-2.703125 25.613282-8.253906 3.484374-2.179688 4.8125-6.167969 6.347656-10.789063 3.359375-10.082031 6.710937-17.21875 19.351562-17.21875h28.828125v20.800781c-.886719-2.964843-3.886719-4.769531-6.921875-4.160156-3.039062.605469-5.113281 3.425782-4.792968 6.503906.972656 9.046876 8.617187 15.902344 17.714843 15.886719h55.300781c4.59375 0 8.316407 3.726563 8.320313 8.320313zm1.339844-47.351563c-1.054688 7.601563-4.921875 18.652344-18.453125 18.652344h-11.945313v-18.652344zm0 0"/><path d="m486.003906 197.253906h-54.789062c-3.3125 0-6 2.683594-6 6v14.089844h-7.710938c-5.914062 0-12.070312-2.015625-18.8125-6.160156-.691406-1.515625-1.28125-3.078125-1.761718-4.675782-2.957032-8.886718-8.464844-25.425781-30.734376-25.425781h-28.828124v-24.789062c38.609374-10.191407 63.65625-47.457031 58.519531-87.054688-5.136719-39.601562-38.867188-69.238281-78.800781-69.238281-39.933594 0-73.664063 29.636719-78.800782 69.238281-5.140625 39.597657 19.910156 76.863281 58.519532 87.054688v24.789062h-36.78125c-3.3125 0-6 2.6875-6 6v.589844c0 15.730469 6.597656 27.6875 17.316406 33.011719-7.261719 1.726562-12.992188 7.296875-14.910156 14.511718-1.921876 7.210938.273437 14.894532 5.71875 20.003907-4.09375 4.078125-6.398438 9.617187-6.402344 15.394531-.003906 5.78125 2.289062 11.324219 6.375 15.410156.089844.089844.191406.167969.28125.253906-4.902344 4.636719-7.3125 11.324219-6.496094 18.019532.816406 6.699218 4.765625 12.613281 10.636719 15.933594-4.476563 6.496093-4.980469 14.9375-1.308594 21.921874 3.671875 6.984376 10.910156 11.355469 18.800781 11.351563h44.601563c8.132812.152344 16.265625-.328125 24.324219-1.4375 8.425781-1.191406 16.523437-4.074219 23.808593-8.476563 12.550781-7.789062 27.03125-11.914062 41.804688-11.90625h6.640625v11.777344c0 3.316406 2.6875 6 6 6h54.789062c3.316406 0 6-2.683594 6-6v-140.1875c0-3.316406-2.683594-6-6-6zm-168.917968-38.332031c2.765624-.003906 5.527343-.148437 8.28125-.441406v61.632812h-16.5625v-61.628906c2.75.289063 5.515624.433594 8.28125.4375zm-67.46875-79.46875c.003906-35.464844 27.464843-64.875 62.847656-67.304687 35.382812-2.429688 66.605468 22.949218 71.457031 58.082031 4.851563 35.132812-18.324219 68.023437-53.042969 75.273437-.167968.039063-.339844.070313-.507812.101563l-.09375.015625-.082032.015625c-8.65625 1.707031-17.5625 1.707031-26.214843 0l-.125-.019531c-.195313-.035157-.378907-.070313-.644531-.128907-31.183594-6.644531-53.507813-34.148437-53.59375-66.035156zm47.1875 113.628906v18.652344h-11.949219c-13.53125 0-17.398438-11.046875-18.453125-18.652344zm121.769531 126.582031c-17.007813-.011718-33.679688 4.738282-48.132813 13.710938-5.929687 3.554688-12.519531 5.871094-19.367187 6.820312-7.433594 1.003907-14.9375 1.433594-22.4375 1.289063h-44.601563c-5.101562 0-9.238281-4.140625-9.238281-9.242187 0-5.101563 4.136719-9.238282 9.238281-9.238282h24.101563c3.3125 0 6-2.6875 6-6 0-3.316406-2.6875-6-6-6h-31.082031c-5.140626 0-9.308594-4.167968-9.308594-9.3125 0-5.140625 4.167968-9.308594 9.308594-9.308594h21.5625c3.3125 0 6-2.6875 6-6s-2.6875-6-6-6h-21.082032c-5.402344 0-9.78125-4.378906-9.78125-9.78125 0-5.398437 4.378906-9.777343 9.78125-9.777343h21.082032c3.3125 0 6-2.6875 6-6 0-3.316407-2.6875-6-6-6h-8.492188c-.289062-.046875-.578125-.070313-.871094-.070313h-13.1875c-4.597656 0-8.320312-3.726562-8.320312-8.320312 0-4.597656 3.722656-8.320313 8.320312-8.320313h55.308594c9.09375.011719 16.730469-6.839843 17.699219-15.882812.320312-3.078125-1.753907-5.894531-4.789063-6.503907-3.035156-.605468-6.035156 1.195313-6.925781 4.160157v-20.804688h28.832031c12.640625 0 15.992188 7.136719 19.347656 17.21875 1.539063 4.621094 2.867188 8.609375 6.347657 10.789063 8.875 5.550781 17.253906 8.253906 25.613281 8.253906h7.710938v90.320312zm61.429687 17.777344h-42.789062v-128.1875h42.789062zm0 0"/><path d="m168.777344 246.976562 41.558594-41.5625c1.539062-1.511718 2.144531-3.730468 1.59375-5.8125-.550782-2.082031-2.179688-3.710937-4.261719-4.261718-2.082031-.554688-4.304688.054687-5.816407 1.589844l-37.316406 37.316406-16.539062-16.535156c-1.507813-1.550782-3.734375-2.167969-5.824219-1.617188-2.09375.550781-3.726563 2.183594-4.277344 4.273438-.550781 2.09375.070313 4.320312 1.617188 5.828124l20.78125 20.78125c2.34375 2.339844 6.140625 2.339844 8.484375 0zm0 0"/><path d="m334.394531 105.246094c1.511719 1.535156 3.730469 2.144531 5.8125 1.589844 2.085938-.550782 3.710938-2.179688 4.261719-4.261719.554688-2.085938-.054688-4.304688-1.589844-5.816407l-17.308594-17.304687 17.308594-17.308594c2.34375-2.34375 2.34375-6.140625 0-8.484375s-6.144531-2.34375-8.488281 0l-17.304687 17.304688-17.308594-17.304688c-2.34375-2.34375-6.140625-2.34375-8.484375 0s-2.34375 6.140625 0 8.484375l17.3125 17.308594-17.308594 17.304687c-1.535156 1.511719-2.144531 3.730469-1.589844 5.816407.550781 2.082031 2.175781 3.710937 4.261719 4.261719 2.082031.554687 4.300781-.054688 5.8125-1.589844l17.304688-17.308594zm0 0"/></g></svg>