<svg height="512pt" viewBox="0 -3 512.00036 512" width="512pt" xmlns="http://www.w3.org/2000/svg"><path d="m501.164062 259.503906c0 136.375-110.550781 246.929688-246.929687 246.929688-136.375 0-246.925781-110.554688-246.925781-246.929688s110.550781-246.925781 246.925781-246.925781c136.378906 0 246.929687 110.550781 246.929687 246.925781zm0 0" fill="#f84e82"/><path d="m47.953125 278.152344 102.761719-102.765625-27.792969-27.792969-113.757813 113.753906c-.625.40625-1.230468.859375-1.816406 1.34375-.480468.394532-.949218.804688-1.394531 1.253906-7.675781 7.671876-7.675781 20.117188 0 27.792969l4.007813 4.011719 208.03125 208.027344c11.832031 1.742187 23.929687 2.65625 36.242187 2.65625 7.109375 0 14.140625-.316406 21.09375-.90625zm0 0" fill="#7956ba"/><path d="m223.394531 480.894531-185.210937-185.144531-4.011719-4.011719c-7.675781-7.675781-7.675781-20.117187 0-27.792969.449219-.449218.917969-.859374 1.394531-1.253906.589844-.484375 1.195313-.933594 1.820313-1.34375l99.644531-99.644531-14.109375-14.109375-113.757813 113.753906c-.625.40625-1.230468.859375-1.816406 1.34375-.480468.394532-.949218.804688-1.394531 1.253906-7.675781 7.671876-7.675781 20.117188 0 27.792969l4.007813 4.011719 196.175781 196.175781 11.855469 11.851563c.015624.003906.03125.007812.050781.011718 10.085937 1.484376 20.375 2.339844 30.820312 2.566407zm0 0" fill="#4b358e"/><path d="m261.296875 324.910156 12.40625 12.402344.011719-.015625c36.472656 35.863281 95.101562 35.691406 131.339844-.550781 36.238281-36.238282 36.414062-94.867188.550781-131.335938l.011719-.015625-12.402344-12.402343zm0 0" fill="#fdd33a"/><path d="m311.007812 300.003906-.015624.015625-12.402344-12.402343-37.292969 37.292968 12.40625 12.402344.011719-.015625c36.472656 35.863281 95.101562 35.691406 131.339844-.550781 6.476562-6.476563 11.78125-13.679688 15.957031-21.335938-35.167969 19.171875-80.054688 14.046875-110.003907-15.40625zm0 0" fill="#f9bd3a"/><path d="m199.460938 366.59375-46.871094-176.515625-.46875.46875-79.773438-79.769531c-5.136718-5.136719-5.136718-13.464844 0-18.601563l88.324219-88.324219c5.136719-5.136718 13.464844-5.136718 18.601563 0l79.769531 79.773438-.46875.46875 176.515625 46.871094c10.230468 2.714844 13.671875 15.5 6.1875 22.984375l-218.832032 218.832031c-7.484374 7.484375-20.269531 4.042969-22.984374-6.1875zm0 0" fill="#7956ba"/><path d="m235.742188 329.300781-46.871094-176.515625-.46875.472656-79.769532-79.773437c-4.085937-4.085937-4.910156-10.183594-2.496093-15.097656l-33.789063 33.789062c-5.136718 5.136719-5.136718 13.464844 0 18.601563l79.769532 79.769531.472656-.46875 46.871094 176.515625c2.714843 10.230469 15.5 13.671875 22.984374 6.1875l37.585938-37.683594c-7.484375 7.484375-21.570312 4.4375-24.289062-5.796875zm0 0" fill="#4b358e"/><path d="m72.347656 92.175781 88.320313-88.324219c5.136719-5.136718 13.46875-5.136718 18.605469 0l79.769531 79.773438-106.921875 106.921875-79.773438-79.769531c-5.136718-5.136719-5.136718-13.464844 0-18.601563zm0 0" fill="#322277"/><path d="m188.871094 152.785156-.46875.472656-79.769532-79.773437c-4.085937-4.085937-4.910156-10.183594-2.496093-15.097656l-33.789063 33.789062c-5.136718 5.136719-5.136718 13.464844 0 18.601563l79.769532 79.769531.472656-.46875 36.492187-36.496094zm0 0" fill="#08053d"/><g fill="#ffe6a9"><path d="m403.378906 225.769531c-5.949218-5.949219-15.597656-5.949219-21.546875 0s-5.949219 15.597657 0 21.546875c5.949219 5.949219 15.597657 5.949219 21.546875 0 5.949219-5.949218 5.949219-15.597656 0-21.546875zm0 0"/><path d="m407.582031 269.910156c-9.433593-9.429687-24.726562-9.429687-34.15625 0-9.433593 9.433594-9.433593 24.726563 0 34.160156 9.429688 9.433594 24.722657 9.433594 34.15625 0 9.433594-9.433593 9.433594-24.726562 0-34.160156zm0 0"/><path d="m450.515625 391.046875-27.980469-27.976563c-2.957031-2.960937-2.957031-7.757812 0-10.71875 2.960938-2.960937 7.757813-2.960937 10.71875 0l27.976563 27.980469c2.960937 2.957031 2.960937 7.757813 0 10.714844-2.957031 2.960937-7.753907 2.960937-10.714844 0zm0 0"/><path d="m375.148438 439.265625c-.75-.746094-1.351563-1.664063-1.742188-2.722656l-13.761719-37.097657c-1.453125-3.925781.546875-8.285156 4.472657-9.742187 3.921874-1.453125 8.28125.546875 9.738281 4.472656l13.761719 37.097657c1.453124 3.925781-.546876 8.285156-4.472657 9.742187-2.867187 1.0625-5.96875.28125-7.996093-1.75zm0 0"/><path d="m461.964844 301.601562c-2.03125-2.027343-2.8125-5.128906-1.75-7.996093 1.457031-3.925781 5.816406-5.925781 9.742187-4.46875l37.097657 13.757812c3.925781 1.453125 5.925781 5.816407 4.46875 9.742188-1.453126 3.921875-5.816407 5.925781-9.738282 4.46875l-37.101562-13.761719c-1.054688-.390625-1.972656-.992188-2.71875-1.742188zm0 0"/></g><path d="m58.457031 277.648438c0 16.140624-13.085937 29.226562-29.230469 29.226562-16.140624 0-29.226562-13.085938-29.226562-29.226562 0-16.144532 13.085938-29.230469 29.226562-29.230469 16.144532 0 29.230469 13.085937 29.230469 29.230469zm0 0" fill="#08053d"/><path d="m45.355469 277.648438c0 8.90625-7.222657 16.125-16.128907 16.125s-16.125-7.21875-16.125-16.125 7.21875-16.128907 16.125-16.128907 16.128907 7.222657 16.128907 16.128907zm0 0" fill="#322277"/></svg>